# Blender v3.1.2 OBJ File: '1x12 diag slope.blend'
# www.blender.org
mtllib 1x12_ballast.mtl
o ballast_slope_Plane.002
v -12.500000 1.000000 -11.500000
v -0.500000 0.000000 0.500000
v 0.500000 0.000000 -0.500000
v -11.500000 1.000000 -12.500000
v -12.500000 0.000000 -11.500000
v -11.500000 0.000000 -12.500000
v -13.000000 1.000000 -12.000000
v -13.000000 0.000000 -12.000000
v -12.000000 1.000000 -12.000000
v -12.000000 0.000000 -12.000000
v -12.000000 1.000000 -13.000000
v -12.000000 0.000000 -13.000000
v -5.500000 0.500000 -6.500000
v -5.500000 0.000000 -6.500000
v -6.250000 0.562500 -7.250000
v -7.000000 0.625000 -8.000000
v -7.750000 0.687500 -8.750000
v -8.500000 0.750000 -9.500000
v -9.250000 0.812500 -10.250000
v -10.000000 0.875000 -11.000000
v -10.750000 0.937500 -11.750000
v -6.250000 0.000000 -7.250000
v -7.000000 0.000000 -8.000000
v -7.750000 0.000000 -8.750000
v -8.500000 0.000000 -9.500000
v -9.250000 0.000000 -10.250000
v -10.000000 0.000000 -11.000000
v -10.750000 0.000000 -11.750000
v -0.250000 0.062500 -1.250000
v -1.000000 0.125000 -2.000000
v -1.750000 0.187500 -2.750000
v -2.500000 0.250000 -3.500000
v -3.250000 0.312500 -4.250000
v -4.000000 0.375000 -5.000000
v -4.750000 0.437500 -5.750000
v -0.250000 0.000000 -1.250000
v -1.000000 0.000000 -2.000000
v -1.750000 0.000000 -2.750000
v -2.500000 0.000000 -3.500000
v -3.250000 0.000000 -4.250000
v -4.000000 0.000000 -5.000000
v -4.750000 0.000000 -5.750000
v -6.500000 0.500000 -5.500000
v -6.500000 0.000000 -5.500000
v -1.250000 0.062500 -0.250000
v -2.000000 0.125000 -1.000000
v -2.750000 0.187500 -1.750000
v -3.500000 0.250000 -2.500000
v -4.250000 0.312500 -3.250000
v -5.000000 0.375000 -4.000000
v -5.750000 0.437500 -4.750000
v -1.250000 0.000000 -0.250000
v -2.000000 0.000000 -1.000000
v -2.750000 0.000000 -1.750000
v -3.500000 0.000000 -2.500000
v -4.250000 0.000000 -3.250000
v -5.000000 0.000000 -4.000000
v -5.750000 0.000000 -4.750000
v -7.250000 0.562500 -6.250000
v -8.000000 0.625000 -7.000000
v -8.750000 0.687500 -7.750000
v -9.500000 0.750000 -8.500000
v -10.250000 0.812500 -9.250000
v -11.000000 0.875000 -10.000000
v -11.750000 0.937500 -10.750000
v -7.250000 0.000000 -6.250000
v -8.000000 0.000000 -7.000000
v -8.750000 0.000000 -7.750000
v -9.500000 0.000000 -8.500000
v -10.250000 0.000000 -9.250000
v -11.000000 0.000000 -10.000000
v -11.750000 0.000000 -10.750000
vt 1.410000 -0.060000
vt 1.410000 1.000000
vt 0.000000 1.000000
vt 0.707000 1.000000
vt 1.410000 1.707000
vt 0.900000 0.062500
vt 0.900000 0.000000
vt 1.960000 0.000000
vt 0.293000 0.000000
vt 1.000000 1.000000
vt 0.293000 1.000000
vt 1.000000 0.000000
vt 1.000000 1.000000
vt 0.000000 1.000000
vt 1.000000 0.000000
vt 1.000000 1.000000
vt 0.000000 1.000000
vt 0.293000 0.000000
vt 0.293000 1.000000
vt 1.000000 1.000000
vt 0.000000 1.707000
vt 0.900000 0.062500
vt 1.960000 0.000000
vt 0.900000 0.000000
vt 0.420000 0.000000
vt 0.420000 0.562000
vt 1.480000 0.500000
vt 0.000000 0.000000
vt 0.000000 1.000000
vt 1.060000 0.938000
vt 0.060000 0.000000
vt 0.060000 0.938000
vt 1.120000 0.875000
vt 0.120000 0.000000
vt 0.120000 0.875000
vt 1.180000 0.812000
vt 0.180000 0.000000
vt 0.180000 0.812000
vt 1.240000 0.750000
vt 0.240000 0.000000
vt 0.240000 0.750000
vt 1.300000 0.688000
vt 0.300000 0.000000
vt 0.300000 0.688000
vt 1.360000 0.625000
vt 0.360000 0.000000
vt 0.360000 0.625000
vt 1.420000 0.562000
vt 0.480000 0.000000
vt 0.480000 0.500000
vt 1.540000 0.438000
vt -0.460000 0.000000
vt -0.460000 0.438000
vt 0.600000 0.375000
vt -0.400000 0.000000
vt -0.400000 0.375000
vt 0.660000 0.312000
vt -0.340000 0.000000
vt -0.340000 0.312000
vt 0.720000 0.250000
vt -0.280000 0.000000
vt -0.280000 0.250000
vt 0.780000 0.188000
vt -0.220000 0.000000
vt -0.220000 0.188000
vt 0.840000 0.125000
vt -0.160000 0.000000
vt -0.160000 0.125000
vt 1.480000 0.500000
vt 0.420000 0.562000
vt 0.420000 0.000000
vt 1.540000 0.438000
vt 0.480000 0.500000
vt 0.480000 0.000000
vt 0.600000 0.375000
vt -0.460000 0.438000
vt -0.460000 0.000000
vt 0.660000 0.312000
vt -0.400000 0.375000
vt -0.400000 0.000000
vt 0.720000 0.250000
vt -0.340000 0.312000
vt -0.340000 0.000000
vt 0.780000 0.188000
vt -0.280000 0.250000
vt -0.280000 0.000000
vt 0.840000 0.125000
vt -0.220000 0.188000
vt -0.220000 0.000000
vt -0.160000 0.125000
vt -0.160000 0.000000
vt 1.060000 0.938000
vt 0.000000 0.000000
vt 1.120000 0.875000
vt 0.060000 0.938000
vt 0.060000 0.000000
vt 1.180000 0.812000
vt 0.120000 0.875000
vt 0.120000 0.000000
vt 1.240000 0.750000
vt 0.180000 0.812000
vt 0.180000 0.000000
vt 1.300000 0.688000
vt 0.240000 0.750000
vt 0.240000 0.000000
vt 1.360000 0.625000
vt 0.300000 0.688000
vt 0.300000 0.000000
vt 1.420000 0.562000
vt 0.360000 0.625000
vt 0.360000 0.000000
vt 0.000000 1.220000
vt 0.000000 0.160000
vt 1.410000 0.160000
vt 1.410000 0.220000
vt 1.410000 1.280000
vt 0.000000 1.280000
vt 1.410000 0.280000
vt 1.410000 1.340000
vt 0.000000 1.340000
vt 1.410000 0.340000
vt 1.410000 1.400000
vt 0.000000 1.400000
vt 1.410000 -0.600000
vt 1.410000 0.460000
vt 0.000000 0.460000
vt 1.410000 -0.540000
vt 1.410000 0.520000
vt 0.000000 0.520000
vt 1.410000 -0.480000
vt 1.410000 0.580000
vt 0.000000 0.580000
vt 1.410000 -0.420000
vt 1.410000 0.640000
vt 0.000000 0.640000
vt 1.410000 -0.360000
vt 1.410000 0.700000
vt 0.000000 0.700000
vt 1.410000 -0.360000
vt 1.410000 0.700000
vt 0.000000 0.700000
vt 0.000000 -0.060000
vt 1.410000 -0.240000
vt 1.410000 0.820000
vt 0.000000 0.820000
vt 1.410000 -0.180000
vt 1.410000 0.880000
vt 0.000000 0.880000
vt 1.410000 -0.120000
vt 1.410000 0.940000
vt 0.000000 0.940000
vt 1.410000 -0.300000
vt 1.410000 0.760000
vt 0.000000 0.760000
vt 0.000000 -0.300000
vt 1.000000 0.000000
vt 0.000000 0.000000
vt 0.000000 0.000000
vt 1.000000 0.000000
vt 1.480000 0.000000
vt 1.060000 0.000000
vt 1.120000 0.000000
vt 1.180000 0.000000
vt 1.240000 0.000000
vt 1.300000 0.000000
vt 1.360000 0.000000
vt 1.420000 0.000000
vt 1.540000 0.000000
vt 0.600000 0.000000
vt 0.660000 0.000000
vt 0.720000 0.000000
vt 0.780000 0.000000
vt 0.840000 0.000000
vt 1.480000 0.000000
vt 1.540000 0.000000
vt 0.600000 0.000000
vt 0.660000 0.000000
vt 0.720000 0.000000
vt 0.780000 0.000000
vt 0.840000 0.000000
vt 1.060000 0.000000
vt 1.120000 0.000000
vt 1.180000 0.000000
vt 1.240000 0.000000
vt 1.300000 0.000000
vt 1.360000 0.000000
vt 1.420000 0.000000
vt 1.410000 1.220000
vt 0.000000 0.220000
vt 0.000000 0.280000
vt 0.000000 0.340000
vt 0.000000 -0.600000
vt 0.000000 -0.540000
vt 0.000000 -0.480000
vt 0.000000 -0.420000
vt 0.000000 -0.360000
vt 0.000000 -0.360000
vt 0.000000 1.160000
vt 0.000000 0.100000
vt 1.410000 0.100000
vt 0.000000 -0.240000
vt 0.000000 -0.180000
vt 0.000000 -0.120000
vt 1.410000 1.160000
vn 0.0416 0.9983 0.0416
vn 0.0000 1.0000 0.0000
vn -0.7071 0.0000 0.7071
vn 0.0000 0.0000 -1.0000
vn -1.0000 0.0000 0.0000
vn 0.7071 0.0000 -0.7071
usemtl Material.002
s off
f 21/1/1 4/2/1 1/3/1
f 9/4/2 4/2/2 11/5/2
f 45/6/3 52/7/3 2/8/3
f 8/9/3 1/10/3 7/11/3
f 8/12/4 7/13/4 9/14/4
f 10/15/5 9/16/5 11/17/5
f 12/18/6 11/19/6 4/20/6
f 7/21/2 1/3/2 9/4/2
f 29/22/6 3/23/6 36/24/6
f 22/25/6 15/26/6 13/27/6
f 6/28/6 4/29/6 21/30/6
f 28/31/6 21/32/6 20/33/6
f 27/34/6 20/35/6 19/36/6
f 26/37/6 19/38/6 18/39/6
f 25/40/6 18/41/6 17/42/6
f 24/43/6 17/44/6 16/45/6
f 23/46/6 16/47/6 15/48/6
f 14/49/6 13/50/6 35/51/6
f 42/52/6 35/53/6 34/54/6
f 41/55/6 34/56/6 33/57/6
f 40/58/6 33/59/6 32/60/6
f 39/61/6 32/62/6 31/63/6
f 38/64/6 31/65/6 30/66/6
f 37/67/6 30/68/6 29/22/6
f 43/69/3 59/70/3 66/71/3
f 51/72/3 43/73/3 44/74/3
f 50/75/3 51/76/3 58/77/3
f 49/78/3 50/79/3 57/80/3
f 48/81/3 49/82/3 56/83/3
f 47/84/3 48/85/3 55/86/3
f 46/87/3 47/88/3 54/89/3
f 45/6/3 46/90/3 53/91/3
f 65/92/3 1/3/3 5/93/3
f 64/94/3 65/95/3 72/96/3
f 63/97/3 64/98/3 71/99/3
f 62/100/3 63/101/3 70/102/3
f 61/103/3 62/104/3 69/105/3
f 60/106/3 61/107/3 68/108/3
f 59/109/3 60/110/3 67/111/3
f 46/112/1 45/113/1 29/114/1
f 30/115/1 31/116/1 47/117/1
f 31/118/1 32/119/1 48/120/1
f 32/121/1 33/122/1 49/123/1
f 33/124/1 34/125/1 50/126/1
f 34/127/1 35/128/1 51/129/1
f 35/130/1 13/131/1 43/132/1
f 13/133/1 15/134/1 59/135/1
f 15/136/1 16/137/1 60/138/1
f 16/139/1 17/140/1 61/141/1
f 65/142/1 21/1/1 1/3/1
f 18/143/1 19/144/1 63/145/1
f 19/146/1 20/147/1 64/148/1
f 20/149/1 21/150/1 65/151/1
f 17/152/1 18/153/1 62/154/1
f 61/155/1 17/152/1 62/154/1
f 1/10/3 8/9/3 5/156/3
f 8/12/4 9/14/4 10/157/4
f 10/15/5 11/17/5 12/158/5
f 12/18/6 4/20/6 6/159/6
f 22/25/6 13/27/6 14/160/6
f 6/28/6 21/30/6 28/161/6
f 28/31/6 20/33/6 27/162/6
f 27/34/6 19/36/6 26/163/6
f 26/37/6 18/39/6 25/164/6
f 25/40/6 17/42/6 24/165/6
f 24/43/6 16/45/6 23/166/6
f 23/46/6 15/48/6 22/167/6
f 14/49/6 35/51/6 42/168/6
f 42/52/6 34/54/6 41/169/6
f 41/55/6 33/57/6 40/170/6
f 40/58/6 32/60/6 39/171/6
f 39/61/6 31/63/6 38/172/6
f 38/64/6 30/66/6 37/173/6
f 37/67/6 29/22/6 36/24/6
f 43/69/3 66/71/3 44/174/3
f 51/72/3 44/74/3 58/175/3
f 50/75/3 58/77/3 57/176/3
f 49/78/3 57/80/3 56/177/3
f 48/81/3 56/83/3 55/178/3
f 47/84/3 55/86/3 54/179/3
f 46/87/3 54/89/3 53/180/3
f 45/6/3 53/91/3 52/7/3
f 65/92/3 5/93/3 72/181/3
f 64/94/3 72/96/3 71/182/3
f 63/97/3 71/99/3 70/183/3
f 62/100/3 70/102/3 69/184/3
f 61/103/3 69/105/3 68/185/3
f 60/106/3 68/108/3 67/186/3
f 59/109/3 67/111/3 66/187/3
f 46/112/1 29/114/1 30/188/1
f 30/115/1 47/117/1 46/189/1
f 31/118/1 48/120/1 47/190/1
f 32/121/1 49/123/1 48/191/1
f 33/124/1 50/126/1 49/192/1
f 34/127/1 51/129/1 50/193/1
f 35/130/1 43/132/1 51/194/1
f 13/133/1 59/135/1 43/195/1
f 15/136/1 60/138/1 59/196/1
f 16/139/1 61/141/1 60/197/1
f 45/198/1 2/199/1 3/200/1
f 18/143/1 63/145/1 62/201/1
f 19/146/1 64/148/1 63/202/1
f 20/149/1 65/151/1 64/203/1
f 29/204/1 45/198/1 3/200/1
