# Blender v3.1.2 OBJ File: '1x18 diag slope.blend'
# www.blender.org
mtllib 1x18_ballast.mtl
o slope_ballast_Plane.001
v -17.500000 1.000000 -18.500000
v -0.500000 0.000000 0.500000
v -18.500000 1.000000 -17.500000
v 0.500000 0.000000 -0.500000
v -18.500000 0.000000 -17.500000
v -17.500000 0.000000 -18.500000
v -19.000000 1.000000 -18.000000
v -19.000000 0.000000 -18.000000
v -18.000000 1.000000 -18.000000
v -18.000000 0.000000 -18.000000
v -18.000000 1.000000 -19.000000
v -18.000000 0.000000 -19.000000
v -5.500000 0.333333 -6.500000
v -11.500000 0.666667 -12.500000
v -5.500000 0.000000 -6.500000
v -11.500000 0.000000 -12.500000
v -12.250000 0.708333 -13.250000
v -13.000000 0.750000 -14.000000
v -13.750000 0.791667 -14.750000
v -14.500000 0.833333 -15.500000
v -15.250000 0.875000 -16.250000
v -16.000000 0.916667 -17.000000
v -16.750000 0.958333 -17.750000
v -12.250000 0.000000 -13.250000
v -13.000000 0.000000 -14.000000
v -13.750000 0.000000 -14.750000
v -14.500000 0.000000 -15.500000
v -15.250000 0.000000 -16.250000
v -16.000000 0.000000 -17.000000
v -16.750000 0.000000 -17.750000
v -6.250000 0.375000 -7.250000
v -7.000000 0.416667 -8.000000
v -7.750000 0.458333 -8.750000
v -8.500000 0.500000 -9.500000
v -9.250000 0.541667 -10.250000
v -10.000000 0.583333 -11.000000
v -10.750000 0.625000 -11.750000
v -6.250000 0.000000 -7.250000
v -7.000000 0.000000 -8.000000
v -7.750000 0.000000 -8.750000
v -8.500000 0.000000 -9.500000
v -9.250000 0.000000 -10.250000
v -10.000000 0.000000 -11.000000
v -10.750000 0.000000 -11.750000
v -0.250000 0.041667 -1.250000
v -1.000000 0.083333 -2.000000
v -1.750000 0.125000 -2.750000
v -2.500000 0.166667 -3.500000
v -3.250000 0.208333 -4.250000
v -4.000000 0.250000 -5.000000
v -4.750000 0.291667 -5.750000
v -0.250000 0.000000 -1.250000
v -1.000000 0.000000 -2.000000
v -1.750000 0.000000 -2.750000
v -2.500000 0.000000 -3.500000
v -3.250000 0.000000 -4.250000
v -4.000000 0.000000 -5.000000
v -4.750000 0.000000 -5.750000
v -6.500000 0.333333 -5.500000
v -12.500000 0.666667 -11.500000
v -6.500000 0.000000 -5.500000
v -12.500000 0.000000 -11.500000
v -1.250000 0.041667 -0.250000
v -2.000000 0.083333 -1.000000
v -2.750000 0.125000 -1.750000
v -3.500000 0.166667 -2.500000
v -4.250000 0.208333 -3.250000
v -5.000000 0.250000 -4.000000
v -5.750000 0.291667 -4.750000
v -1.250000 0.000000 -0.250000
v -2.000000 0.000000 -1.000000
v -2.750000 0.000000 -1.750000
v -3.500000 0.000000 -2.500000
v -4.250000 0.000000 -3.250000
v -5.000000 0.000000 -4.000000
v -5.750000 0.000000 -4.750000
v -7.250000 0.375000 -6.250000
v -8.000000 0.416667 -7.000000
v -8.750000 0.458333 -7.750000
v -9.500000 0.500000 -8.500000
v -10.250000 0.541667 -9.250000
v -11.000000 0.583333 -10.000000
v -11.750000 0.625000 -10.750000
v -7.250000 0.000000 -6.250000
v -8.000000 0.000000 -7.000000
v -8.750000 0.000000 -7.750000
v -9.500000 0.000000 -8.500000
v -10.250000 0.000000 -9.250000
v -11.000000 0.000000 -10.000000
v -11.750000 0.000000 -10.750000
v -13.250000 0.708333 -12.250000
v -14.000000 0.750000 -13.000000
v -14.750000 0.791667 -13.750000
v -15.500000 0.833333 -14.500000
v -16.250000 0.875000 -15.250000
v -17.000000 0.916667 -16.000000
v -17.750000 0.958333 -16.750000
v -13.250000 0.000000 -12.250000
v -14.000000 0.000000 -13.000000
v -14.750000 0.000000 -13.750000
v -15.500000 0.000000 -14.500000
v -16.250000 0.000000 -15.250000
v -17.000000 0.000000 -16.000000
v -17.750000 0.000000 -16.750000
vt 1.380000 0.041700
vt 1.380000 0.000000
vt 2.440000 0.000000
vt 0.599995 0.041700
vt -0.460005 0.000000
vt 0.599995 0.000000
vt 0.000000 0.680000
vt 0.000000 -0.380000
vt 1.410000 -0.380000
vt 1.000000 0.000000
vt 1.000000 1.000000
vt 0.000000 1.000000
vt 1.000000 1.000000
vt 0.293000 1.000000
vt 0.293000 0.000000
vt -0.020004 1.000000
vt -0.020004 0.000000
vt 0.686996 0.000000
vt 1.410000 1.767000
vt 0.707000 1.060000
vt 1.410000 1.060000
vt 0.000000 1.767000
vt 0.000000 1.060000
vt 0.559996 0.000000
vt 0.559996 0.708000
vt -0.500004 0.667000
vt 1.079995 0.000000
vt 1.079995 0.375000
vt 0.019996 0.333000
vt 0.979996 0.000000
vt 0.979996 1.000000
vt -0.080004 0.958000
vt 0.919996 0.000000
vt 0.919996 0.958000
vt -0.140004 0.917000
vt 0.859996 0.000000
vt 0.859996 0.917000
vt -0.200004 0.875000
vt 0.799996 0.000000
vt 0.799996 0.875000
vt -0.260004 0.833000
vt 0.739996 0.000000
vt 0.739996 0.833000
vt -0.320004 0.792000
vt 0.679996 0.000000
vt 0.679996 0.792000
vt -0.380004 0.750000
vt 0.619996 0.000000
vt 0.619996 0.750000
vt -0.440004 0.708000
vt 0.499996 0.000000
vt 0.499996 0.667000
vt -0.560004 0.625000
vt 1.439996 0.000000
vt 1.439996 0.625000
vt 0.379996 0.583000
vt 1.379996 0.000000
vt 1.379996 0.583000
vt 0.319996 0.542000
vt 1.319996 0.000000
vt 1.319996 0.542000
vt 0.259996 0.500000
vt 1.259996 0.000000
vt 1.259996 0.500000
vt 0.199996 0.458000
vt 1.199996 0.000000
vt 1.199996 0.458000
vt 0.139996 0.417000
vt 1.139995 0.000000
vt 1.139996 0.417000
vt 0.079996 0.375000
vt 1.019996 0.000000
vt 1.019996 0.333000
vt -0.040004 0.292000
vt 0.959996 0.000000
vt 0.959996 0.292000
vt -0.100004 0.250000
vt 0.899996 0.000000
vt 0.899996 0.250000
vt -0.160004 0.208000
vt 0.839996 0.000000
vt 0.839996 0.208000
vt -0.220004 0.167000
vt 0.779996 0.000000
vt 0.779996 0.167000
vt -0.280004 0.125000
vt 0.719996 0.000000
vt 0.719996 0.125000
vt -0.340004 0.083300
vt 0.659996 0.000000
vt 0.659996 0.083300
vt -0.400004 0.041700
vt 1.480000 0.667000
vt 0.420000 0.708000
vt 0.420000 0.000000
vt 0.960000 0.333000
vt -0.100000 0.375000
vt -0.100000 0.000000
vt 1.020000 0.292000
vt -0.040000 0.333000
vt -0.040000 0.000000
vt 1.080000 0.250000
vt 0.020000 0.292000
vt 0.020000 0.000000
vt 1.140000 0.208000
vt 0.080000 0.250000
vt 0.080000 0.000000
vt 1.200000 0.167000
vt 0.140000 0.208000
vt 0.140000 0.000000
vt 1.260000 0.125000
vt 0.200000 0.167000
vt 0.200000 0.000000
vt 1.320000 0.083300
vt 0.260000 0.125000
vt 0.260000 0.000000
vt 0.320000 0.083300
vt 0.320000 0.000000
vt 1.540000 0.625000
vt 0.480000 0.667000
vt 0.480000 0.000000
vt 0.600000 0.583000
vt -0.460000 0.625000
vt -0.460000 0.000000
vt 0.660000 0.542000
vt -0.400000 0.583000
vt -0.400000 0.000000
vt 0.720000 0.500000
vt -0.340000 0.542000
vt -0.340000 0.000000
vt 0.780000 0.458000
vt -0.280000 0.500000
vt -0.280000 0.000000
vt 0.840000 0.417000
vt -0.220000 0.458000
vt -0.220000 0.000000
vt 0.900000 0.375000
vt -0.160000 0.417000
vt -0.160000 0.000000
vt 1.060000 0.958000
vt 0.000000 1.000000
vt 0.000000 0.000000
vt 1.120000 0.917000
vt 0.060000 0.958000
vt 0.060000 0.000000
vt 1.180000 0.875000
vt 0.120000 0.917000
vt 0.120000 0.000000
vt 1.240000 0.833000
vt 0.180000 0.875000
vt 0.180000 0.000000
vt 1.300000 0.792000
vt 0.240000 0.833000
vt 0.240000 0.000000
vt 1.360000 0.750000
vt 0.300000 0.792000
vt 0.300000 0.000000
vt 1.420000 0.708000
vt 0.360000 0.750000
vt 0.360000 0.000000
vt 0.000000 0.740000
vt 0.000000 -0.320000
vt 1.410000 -0.320000
vt 1.410000 -0.260000
vt 1.410000 0.800000
vt 0.000000 0.800000
vt 1.410000 -0.200000
vt 1.410000 0.860000
vt 0.000000 0.860000
vt 1.410000 -0.140000
vt 1.410000 0.920000
vt 0.000000 0.920000
vt 1.410000 -0.080000
vt 1.410000 0.980000
vt 0.000000 0.980000
vt 1.410000 -0.020000
vt 1.410000 1.040000
vt 0.000000 1.040000
vt 1.410000 0.040000
vt 1.410000 1.100000
vt 0.000000 1.100000
vt 1.410000 0.100000
vt 1.410000 1.160000
vt 0.000000 1.160000
vt 1.410000 0.160000
vt 1.410000 1.220000
vt 0.000000 1.220000
vt 1.410000 0.220000
vt 1.410000 1.280000
vt 0.000000 1.280000
vt 1.410000 0.280000
vt 1.410000 1.340000
vt 0.000000 1.340000
vt 1.410000 0.340000
vt 1.410000 1.400000
vt 0.000000 1.400000
vt 1.410000 0.400000
vt 1.410000 1.460000
vt 0.000000 1.460000
vt 1.410000 -0.540000
vt 1.410000 0.520000
vt 0.000000 0.520000
vt 1.410000 -0.480000
vt 1.410000 0.580000
vt 0.000000 0.580000
vt 1.410000 -0.420000
vt 1.410000 0.640000
vt 0.000000 0.640000
vt 1.410000 -0.360000
vt 1.410000 0.700000
vt 0.000000 0.700000
vt 1.410000 -0.300000
vt 1.410000 0.760000
vt 0.000000 0.760000
vt 1.410000 -0.240000
vt 1.410000 0.820000
vt 0.000000 0.820000
vt 1.410000 -0.180000
vt 1.410000 0.880000
vt 0.000000 0.880000
vt 1.410000 -0.120000
vt 1.410000 0.940000
vt 0.000000 0.940000
vt 1.410000 -0.060000
vt 1.410000 1.000000
vt 0.000000 1.000000
vt 1.410000 0.000000
vt 1.410000 0.680000
vt 1.000000 0.000000
vt 0.000000 0.000000
vt 1.000000 1.000000
vt 0.000000 0.000000
vt 1.000000 0.000000
vt 0.686996 1.000000
vt -0.500004 0.000000
vt 0.019996 0.000000
vt -0.080004 0.000000
vt -0.140004 0.000000
vt -0.200004 0.000000
vt -0.260004 0.000000
vt -0.320004 0.000000
vt -0.380004 0.000000
vt -0.440004 0.000000
vt -0.560004 0.000000
vt 0.379996 0.000000
vt 0.319996 0.000000
vt 0.259996 0.000000
vt 0.199996 0.000000
vt 0.139996 0.000000
vt 0.079996 0.000000
vt -0.040004 0.000000
vt -0.100004 0.000000
vt -0.160004 0.000000
vt -0.220004 0.000000
vt -0.280004 0.000000
vt -0.340004 0.000000
vt -0.400004 0.000000
vt 1.480000 0.000000
vt 0.960000 0.000000
vt 1.020000 0.000000
vt 1.080000 0.000000
vt 1.140000 0.000000
vt 1.200000 0.000000
vt 1.260000 0.000000
vt 1.320000 0.000000
vt 1.540000 0.000000
vt 0.600000 0.000000
vt 0.660000 0.000000
vt 0.720000 0.000000
vt 0.780000 0.000000
vt 0.840000 0.000000
vt 0.900000 0.000000
vt 1.060000 0.000000
vt 1.120000 0.000000
vt 1.180000 0.000000
vt 1.240000 0.000000
vt 1.300000 0.000000
vt 1.360000 0.000000
vt 1.420000 0.000000
vt 1.410000 0.740000
vt 0.000000 -0.260000
vt 0.000000 -0.200000
vt 0.000000 -0.140000
vt 0.000000 -0.080000
vt 0.000000 -0.020000
vt 0.000000 0.040000
vt 0.000000 0.100000
vt 0.000000 0.160000
vt 0.000000 0.220000
vt 0.000000 0.280000
vt 0.000000 0.340000
vt 0.000000 0.400000
vt 0.000000 -0.540000
vt 0.000000 -0.480000
vt 0.000000 -0.420000
vt 0.000000 -0.360000
vt 0.000000 -0.300000
vt 0.000000 -0.240000
vt 0.000000 -0.180000
vt 0.000000 -0.120000
vt 0.000000 -0.060000
vt 0.000000 0.000000
vt 0.000000 1.000000
vn -0.7071 0.0000 0.7071
vn 0.7071 0.0000 -0.7071
vn 0.0278 0.9992 0.0278
vn 0.0000 0.0000 -1.0000
vn 0.0000 1.0000 0.0000
vn -1.0000 0.0000 0.0000
usemtl Material.002
s off
f 63/1/1 70/2/1 2/3/1
f 45/4/2 4/5/2 52/6/2
f 63/7/3 2/8/3 4/9/3
f 8/10/4 7/11/4 9/12/4
f 3/13/1 7/14/1 8/15/1
f 1/16/2 6/17/2 12/18/2
f 11/19/5 9/20/5 1/21/5
f 7/22/5 3/23/5 9/20/5
f 24/24/2 17/25/2 14/26/2
f 38/27/2 31/28/2 13/29/2
f 6/30/2 1/31/2 23/32/2
f 30/33/2 23/34/2 22/35/2
f 29/36/2 22/37/2 21/38/2
f 28/39/2 21/40/2 20/41/2
f 27/42/2 20/43/2 19/44/2
f 26/45/2 19/46/2 18/47/2
f 25/48/2 18/49/2 17/50/2
f 16/51/2 14/52/2 37/53/2
f 44/54/2 37/55/2 36/56/2
f 43/57/2 36/58/2 35/59/2
f 42/60/2 35/61/2 34/62/2
f 41/63/2 34/64/2 33/65/2
f 40/66/2 33/67/2 32/68/2
f 39/69/2 32/70/2 31/71/2
f 15/72/2 13/73/2 51/74/2
f 58/75/2 51/76/2 50/77/2
f 57/78/2 50/79/2 49/80/2
f 56/81/2 49/82/2 48/83/2
f 55/84/2 48/85/2 47/86/2
f 54/87/2 47/88/2 46/89/2
f 53/90/2 46/91/2 45/92/2
f 60/93/1 91/94/1 98/95/1
f 59/96/1 77/97/1 84/98/1
f 69/99/1 59/100/1 61/101/1
f 68/102/1 69/103/1 76/104/1
f 67/105/1 68/106/1 75/107/1
f 66/108/1 67/109/1 74/110/1
f 65/111/1 66/112/1 73/113/1
f 64/114/1 65/115/1 72/116/1
f 63/1/1 64/117/1 71/118/1
f 83/119/1 60/120/1 62/121/1
f 82/122/1 83/123/1 90/124/1
f 81/125/1 82/126/1 89/127/1
f 80/128/1 81/129/1 88/130/1
f 79/131/1 80/132/1 87/133/1
f 78/134/1 79/135/1 86/136/1
f 77/137/1 78/138/1 85/139/1
f 97/140/1 3/141/1 5/142/1
f 96/143/1 97/144/1 104/145/1
f 95/146/1 96/147/1 103/148/1
f 94/149/1 95/150/1 102/151/1
f 93/152/1 94/153/1 101/154/1
f 92/155/1 93/156/1 100/157/1
f 91/158/1 92/159/1 99/160/1
f 64/161/3 63/162/3 45/163/3
f 46/164/3 47/165/3 65/166/3
f 47/167/3 48/168/3 66/169/3
f 48/170/3 49/171/3 67/172/3
f 49/173/3 50/174/3 68/175/3
f 50/176/3 51/177/3 69/178/3
f 51/179/3 13/180/3 59/181/3
f 13/182/3 31/183/3 77/184/3
f 31/185/3 32/186/3 78/187/3
f 32/188/3 33/189/3 79/190/3
f 33/191/3 34/192/3 80/193/3
f 34/194/3 35/195/3 81/196/3
f 35/197/3 36/198/3 82/199/3
f 36/200/3 37/201/3 83/202/3
f 37/203/3 14/204/3 60/205/3
f 14/206/3 17/207/3 91/208/3
f 17/209/3 18/210/3 92/211/3
f 18/212/3 19/213/3 93/214/3
f 19/215/3 20/216/3 94/217/3
f 20/218/3 21/219/3 95/220/3
f 21/221/3 22/222/3 96/223/3
f 22/224/3 23/225/3 97/226/3
f 23/227/3 1/21/3 3/23/3
f 63/7/3 4/9/3 45/228/3
f 3/13/1 8/15/1 5/229/1
f 8/10/4 9/12/4 10/230/4
f 9/231/6 12/232/6 10/233/6
f 1/16/2 12/18/2 11/234/2
f 24/24/2 14/26/2 16/235/2
f 38/27/2 13/29/2 15/236/2
f 6/30/2 23/32/2 30/237/2
f 30/33/2 22/35/2 29/238/2
f 29/36/2 21/38/2 28/239/2
f 28/39/2 20/41/2 27/240/2
f 27/42/2 19/44/2 26/241/2
f 26/45/2 18/47/2 25/242/2
f 25/48/2 17/50/2 24/243/2
f 16/51/2 37/53/2 44/244/2
f 44/54/2 36/56/2 43/245/2
f 43/57/2 35/59/2 42/246/2
f 42/60/2 34/62/2 41/247/2
f 41/63/2 33/65/2 40/248/2
f 40/66/2 32/68/2 39/249/2
f 39/69/2 31/71/2 38/250/2
f 15/72/2 51/74/2 58/251/2
f 58/75/2 50/77/2 57/252/2
f 57/78/2 49/80/2 56/253/2
f 56/81/2 48/83/2 55/254/2
f 55/84/2 47/86/2 54/255/2
f 54/87/2 46/89/2 53/256/2
f 53/90/2 45/92/2 52/257/2
f 60/93/1 98/95/1 62/258/1
f 59/96/1 84/98/1 61/259/1
f 69/99/1 61/101/1 76/260/1
f 68/102/1 76/104/1 75/261/1
f 67/105/1 75/107/1 74/262/1
f 66/108/1 74/110/1 73/263/1
f 65/111/1 73/113/1 72/264/1
f 64/114/1 72/116/1 71/265/1
f 63/1/1 71/118/1 70/2/1
f 83/119/1 62/121/1 90/266/1
f 82/122/1 90/124/1 89/267/1
f 81/125/1 89/127/1 88/268/1
f 80/128/1 88/130/1 87/269/1
f 79/131/1 87/133/1 86/270/1
f 78/134/1 86/136/1 85/271/1
f 77/137/1 85/139/1 84/272/1
f 97/140/1 5/142/1 104/273/1
f 96/143/1 104/145/1 103/274/1
f 95/146/1 103/148/1 102/275/1
f 94/149/1 102/151/1 101/276/1
f 93/152/1 101/154/1 100/277/1
f 92/155/1 100/157/1 99/278/1
f 91/158/1 99/160/1 98/279/1
f 64/161/3 45/163/3 46/280/3
f 46/164/3 65/166/3 64/281/3
f 47/167/3 66/169/3 65/282/3
f 48/170/3 67/172/3 66/283/3
f 49/173/3 68/175/3 67/284/3
f 50/176/3 69/178/3 68/285/3
f 51/179/3 59/181/3 69/286/3
f 13/182/3 77/184/3 59/287/3
f 31/185/3 78/187/3 77/288/3
f 32/188/3 79/190/3 78/289/3
f 33/191/3 80/193/3 79/290/3
f 34/194/3 81/196/3 80/291/3
f 35/197/3 82/199/3 81/292/3
f 36/200/3 83/202/3 82/293/3
f 37/203/3 60/205/3 83/294/3
f 14/206/3 91/208/3 60/295/3
f 17/209/3 92/211/3 91/296/3
f 18/212/3 93/214/3 92/297/3
f 19/215/3 94/217/3 93/298/3
f 20/218/3 95/220/3 94/299/3
f 21/221/3 96/223/3 95/300/3
f 22/224/3 97/226/3 96/301/3
f 23/227/3 3/23/3 97/302/3
f 9/231/6 11/303/6 12/232/6
