# Blender v3.1.2 OBJ File: '1x3 diag slope.blend'
# www.blender.org
mtllib 1x3_track.mtl
o slope_track_track_normal.019
v -0.242349 0.071584 0.242347
v -0.218204 0.085803 0.218204
v -0.218205 0.071584 0.218204
v -0.225017 0.071584 0.225016
v -0.249161 0.071584 0.249160
v -0.249160 0.085803 0.249160
v -0.212469 0.025803 0.212469
v -0.254896 0.025803 0.254896
v -0.254896 0.041289 0.254895
v -0.242348 0.041289 0.242348
v -0.225017 0.041289 0.225017
v -0.212469 0.041289 0.212469
v -3.254896 1.025803 -2.745104
v -3.254895 1.041289 -2.745104
v -3.225017 1.041289 -2.774983
v -3.242348 1.041289 -2.757652
v -3.212469 1.025803 -2.787531
v -3.212469 1.041289 -2.787531
v -3.242347 1.071584 -2.757651
v -3.225016 1.071584 -2.774982
v -3.218204 1.071584 -2.781795
v -3.218204 1.085803 -2.781796
v -3.249160 1.085803 -2.750840
v -3.249160 1.071584 -2.750839
v -0.283483 -0.000129 0.123622
v -0.270518 0.077741 0.136588
v -0.291731 0.077741 0.157801
v -0.304696 -0.000129 0.144835
v -0.304132 0.006747 0.102974
v -0.291166 0.084617 0.115939
v -0.325345 0.006747 0.124187
v -0.312379 0.084617 0.137152
v 0.157801 0.077741 -0.291731
v 0.136588 0.077741 -0.270518
v 0.123622 -0.000129 -0.283483
v 0.144835 -0.000129 -0.304696
v 0.115939 0.084617 -0.291166
v 0.102974 0.006747 -0.304132
v 0.137153 0.084617 -0.312379
v 0.124187 0.006747 -0.325345
v 0.289500 -0.017330 -0.375180
v 0.299224 0.041072 -0.365456
v -0.365456 0.041072 0.299224
v -0.375180 -0.017330 0.289500
v 0.193141 0.014758 -0.471540
v 0.202865 0.073161 -0.461816
v -0.471540 0.014758 0.193141
v -0.461816 0.073161 0.202865
v -0.472761 0.062901 -0.065656
v -0.459795 0.140772 -0.052690
v -0.481009 0.140772 -0.031477
v -0.493974 0.062901 -0.044442
v -0.493410 0.069777 -0.086304
v -0.480444 0.147648 -0.073339
v -0.514623 0.069777 -0.065091
v -0.501657 0.147648 -0.052125
v -0.031477 0.140772 -0.481009
v -0.052690 0.140772 -0.459795
v -0.065656 0.062901 -0.472761
v -0.044442 0.062901 -0.493974
v -0.073339 0.147648 -0.480444
v -0.086304 0.069777 -0.493410
v -0.052125 0.147648 -0.501657
v -0.065091 0.069777 -0.514623
v 0.100222 0.045700 -0.564458
v 0.109947 0.104103 -0.554734
v -0.554734 0.104103 0.109946
v -0.564458 0.045700 0.100222
v 0.003863 0.077788 -0.660818
v 0.013587 0.136191 -0.651094
v -0.660818 0.077788 0.003863
v -0.651094 0.136191 0.013587
v -0.662039 0.125931 -0.254933
v -0.649073 0.203802 -0.241968
v -0.670287 0.203802 -0.220755
v -0.683252 0.125931 -0.233720
v -0.682687 0.132807 -0.275582
v -0.669722 0.210678 -0.262616
v -0.703901 0.132807 -0.254369
v -0.690935 0.210678 -0.241403
v -0.220755 0.203802 -0.670287
v -0.241968 0.203802 -0.649073
v -0.254933 0.125931 -0.662039
v -0.233720 0.125931 -0.683252
v -0.262616 0.210678 -0.669722
v -0.275582 0.132807 -0.682687
v -0.241403 0.210678 -0.690935
v -0.254369 0.132807 -0.703901
v -0.089055 0.108730 -0.753736
v -0.079331 0.167133 -0.744012
v -0.744012 0.167133 -0.079331
v -0.753736 0.108730 -0.089056
v -0.185415 0.140818 -0.850096
v -0.175691 0.199221 -0.840371
v -0.850096 0.140818 -0.185415
v -0.840371 0.199221 -0.175691
v -0.851317 0.188962 -0.444211
v -0.838351 0.266832 -0.431246
v -0.859564 0.266832 -0.410033
v -0.872530 0.188962 -0.422998
v -0.871965 0.195838 -0.464860
v -0.859000 0.273708 -0.451894
v -0.893178 0.195838 -0.443647
v -0.880213 0.273708 -0.430681
v -0.410033 0.266832 -0.859564
v -0.431246 0.266832 -0.838351
v -0.444211 0.188962 -0.851317
v -0.422998 0.188962 -0.872530
v -0.451894 0.273708 -0.859000
v -0.464860 0.195838 -0.871965
v -0.430681 0.273708 -0.880213
v -0.443647 0.195838 -0.893178
v -0.278333 0.171760 -0.943014
v -0.268609 0.230163 -0.933290
v -0.933290 0.230163 -0.268609
v -0.943014 0.171760 -0.278333
v -0.374693 0.203848 -1.039373
v -0.364969 0.262251 -1.029649
v -1.039373 0.203848 -0.374693
v -1.029649 0.262251 -0.364969
v -1.040595 0.251992 -0.633489
v -1.027629 0.329862 -0.620524
v -1.048842 0.329862 -0.599310
v -1.061808 0.251992 -0.612276
v -1.061243 0.258868 -0.654138
v -1.048277 0.336738 -0.641172
v -1.082456 0.258868 -0.632924
v -1.069491 0.336738 -0.619959
v -0.599310 0.329862 -1.048842
v -0.620524 0.329862 -1.027629
v -0.633489 0.251992 -1.040595
v -0.612276 0.251992 -1.061808
v -0.641172 0.336738 -1.048277
v -0.654138 0.258868 -1.061243
v -0.619959 0.336738 -1.069491
v -0.632924 0.258868 -1.082456
v -0.467611 0.234790 -1.132292
v -0.457887 0.293193 -1.122567
v -1.122567 0.293193 -0.457887
v -1.132292 0.234790 -0.467611
v -0.563971 0.266878 -1.228651
v -0.554247 0.325281 -1.218927
v -1.228651 0.266878 -0.563971
v -1.218927 0.325281 -0.554247
v -1.229872 0.315022 -0.822767
v -1.216907 0.392892 -0.809802
v -1.238120 0.392892 -0.788588
v -1.251086 0.315022 -0.801554
v -1.250521 0.321898 -0.843415
v -1.237555 0.399768 -0.830450
v -1.271734 0.321898 -0.822202
v -1.258769 0.399768 -0.809237
v -0.788588 0.392892 -1.238120
v -0.809801 0.392892 -1.216907
v -0.822767 0.315022 -1.229872
v -0.801554 0.315022 -1.251086
v -0.830450 0.399768 -1.237555
v -0.843415 0.321898 -1.250521
v -0.809237 0.399768 -1.258769
v -0.822202 0.321898 -1.271734
v -0.656889 0.297821 -1.321569
v -0.647165 0.356223 -1.311845
v -1.311845 0.356223 -0.647165
v -1.321569 0.297821 -0.656889
v -0.753249 0.329909 -1.417929
v -0.743524 0.388311 -1.408205
v -1.417929 0.329909 -0.753249
v -1.408205 0.388311 -0.743525
v -1.419150 0.378052 -1.012045
v -1.406185 0.455922 -0.999079
v -1.427398 0.455922 -0.977866
v -1.440363 0.378052 -0.990832
v -1.439799 0.384928 -1.032693
v -1.426833 0.462798 -1.019728
v -1.461012 0.384928 -1.011480
v -1.448046 0.462798 -0.998515
v -0.977866 0.455922 -1.427398
v -0.999079 0.455922 -1.406185
v -1.012045 0.378052 -1.419150
v -0.990831 0.378052 -1.440363
v -1.019728 0.462798 -1.426833
v -1.032693 0.384928 -1.439799
v -0.998514 0.462798 -1.448046
v -1.011480 0.384928 -1.461012
v -0.846167 0.360851 -1.510847
v -0.836443 0.419253 -1.501123
v -1.501123 0.419253 -0.836443
v -1.510847 0.360851 -0.846167
v -0.942526 0.392939 -1.607207
v -0.932802 0.451342 -1.597483
v -1.607207 0.392939 -0.942527
v -1.597483 0.451342 -0.932802
v -1.608428 0.441082 -1.201323
v -1.595462 0.518952 -1.188357
v -1.616676 0.518952 -1.167144
v -1.629641 0.441082 -1.180109
v -1.629076 0.447958 -1.221971
v -1.616111 0.525829 -1.209006
v -1.650290 0.447958 -1.200758
v -1.637324 0.525829 -1.187792
v -1.167144 0.518952 -1.616676
v -1.188357 0.518952 -1.595462
v -1.201322 0.441082 -1.608428
v -1.180109 0.441082 -1.629641
v -1.209005 0.525829 -1.616111
v -1.221971 0.447958 -1.629077
v -1.187792 0.525829 -1.637324
v -1.200758 0.447958 -1.650290
v -1.035445 0.423881 -1.700125
v -1.025720 0.482284 -1.690401
v -1.690401 0.482284 -1.025721
v -1.700125 0.423881 -1.035445
v -1.131804 0.455969 -1.796485
v -1.122080 0.514372 -1.786761
v -1.796485 0.455969 -1.131804
v -1.786760 0.514372 -1.122080
v -1.797706 0.504112 -1.390600
v -1.784740 0.581983 -1.377635
v -1.805954 0.581983 -1.356422
v -1.818919 0.504112 -1.369387
v -1.818354 0.510988 -1.411249
v -1.805389 0.588859 -1.398283
v -1.839568 0.510988 -1.390036
v -1.826602 0.588859 -1.377070
v -1.356422 0.581983 -1.805954
v -1.377635 0.581983 -1.784740
v -1.390600 0.504112 -1.797706
v -1.369387 0.504112 -1.818919
v -1.398283 0.588859 -1.805389
v -1.411249 0.510988 -1.818354
v -1.377070 0.588859 -1.826602
v -1.390036 0.510988 -1.839568
v -1.224723 0.486911 -1.889403
v -1.214998 0.545314 -1.879679
v -1.879679 0.545314 -1.214999
v -1.889403 0.486911 -1.224723
v -1.321082 0.518999 -1.985763
v -1.311358 0.577402 -1.976038
v -1.985762 0.518999 -1.321082
v -1.976038 0.577402 -1.311358
v -1.986984 0.567142 -1.579878
v -1.974018 0.645013 -1.566913
v -1.995231 0.645013 -1.545700
v -2.008197 0.567142 -1.558665
v -2.007632 0.574019 -1.600527
v -1.994667 0.651889 -1.587562
v -2.028846 0.574019 -1.579314
v -2.015880 0.651889 -1.566348
v -1.545699 0.645013 -1.995231
v -1.566913 0.645013 -1.974018
v -1.579878 0.567142 -1.986984
v -1.558665 0.567142 -2.008197
v -1.587561 0.651889 -1.994667
v -1.600527 0.574019 -2.007632
v -1.566348 0.651889 -2.015880
v -1.579314 0.574019 -2.028846
v -1.414001 0.549941 -2.078681
v -1.404276 0.608344 -2.068957
v -2.068957 0.608344 -1.404276
v -2.078681 0.549941 -1.414001
v -1.510360 0.582029 -2.175040
v -1.500636 0.640432 -2.165316
v -2.175040 0.582029 -1.510360
v -2.165316 0.640432 -1.500636
v -2.176262 0.630173 -1.769156
v -2.163296 0.708043 -1.756191
v -2.184509 0.708043 -1.734978
v -2.197475 0.630173 -1.747943
v -2.196910 0.637049 -1.789805
v -2.183945 0.714919 -1.776839
v -2.218123 0.637049 -1.768592
v -2.205158 0.714919 -1.755626
v -1.734977 0.708043 -2.184510
v -1.756191 0.708043 -2.163296
v -1.769156 0.630173 -2.176262
v -1.747943 0.630173 -2.197475
v -1.776839 0.714919 -2.183945
v -1.789805 0.637049 -2.196910
v -1.755626 0.714919 -2.205158
v -1.768592 0.637049 -2.218124
v -1.603278 0.612971 -2.267959
v -1.593554 0.671374 -2.258235
v -2.258235 0.671374 -1.593554
v -2.267959 0.612971 -1.603279
v -1.699638 0.645059 -2.364318
v -1.689914 0.703462 -2.354594
v -2.364318 0.645059 -1.699638
v -2.354594 0.703462 -1.689914
v -2.365540 0.693203 -1.958434
v -2.352574 0.771073 -1.945469
v -2.373787 0.771073 -1.924255
v -2.386753 0.693203 -1.937221
v -2.386188 0.700079 -1.979083
v -2.373223 0.777949 -1.966117
v -2.407401 0.700079 -1.957870
v -2.394436 0.777949 -1.944904
v -1.924255 0.771073 -2.373787
v -1.945469 0.771073 -2.352574
v -1.958434 0.693203 -2.365540
v -1.937221 0.693203 -2.386753
v -1.966117 0.777949 -2.373223
v -1.979083 0.700079 -2.386188
v -1.944904 0.777949 -2.394436
v -1.957869 0.700079 -2.407402
v -1.792556 0.676001 -2.457237
v -1.782832 0.734404 -2.447513
v -2.447512 0.734404 -1.782832
v -2.457237 0.676001 -1.792556
v -1.888916 0.708090 -2.553596
v -1.879192 0.766492 -2.543872
v -2.553596 0.708090 -1.888916
v -2.543872 0.766492 -1.879192
v -2.554817 0.756233 -2.147712
v -2.541852 0.834103 -2.134747
v -2.563065 0.834103 -2.113533
v -2.576031 0.756233 -2.126499
v -2.575466 0.763109 -2.168361
v -2.562500 0.840979 -2.155395
v -2.596679 0.763109 -2.147148
v -2.583714 0.840979 -2.134182
v -2.113533 0.834103 -2.563065
v -2.134747 0.834103 -2.541852
v -2.147712 0.756233 -2.554818
v -2.126499 0.756233 -2.576031
v -2.155395 0.840979 -2.562501
v -2.168360 0.763109 -2.575466
v -2.134182 0.840979 -2.583714
v -2.147147 0.763109 -2.596679
v -1.981834 0.739032 -2.646515
v -1.972110 0.797434 -2.636791
v -2.636790 0.797434 -1.972110
v -2.646514 0.739032 -1.981834
v -2.078194 0.771120 -2.742874
v -2.068470 0.829522 -2.733150
v -2.742874 0.771120 -2.078194
v -2.733150 0.829522 -2.068470
v -2.744095 0.819263 -2.336990
v -2.731130 0.897133 -2.324025
v -2.752343 0.897133 -2.302811
v -2.765309 0.819263 -2.315777
v -2.764744 0.826139 -2.357639
v -2.751778 0.904010 -2.344673
v -2.785957 0.826139 -2.336425
v -2.772991 0.904010 -2.323460
v -2.302811 0.897133 -2.752343
v -2.324024 0.897133 -2.731130
v -2.336990 0.819263 -2.744096
v -2.315777 0.819263 -2.765309
v -2.344673 0.904010 -2.751779
v -2.357638 0.826139 -2.764744
v -2.323460 0.904010 -2.772992
v -2.336425 0.826139 -2.785957
v -2.171112 0.802062 -2.835793
v -2.161388 0.860465 -2.826068
v -2.826068 0.860465 -2.161388
v -2.835792 0.802062 -2.171112
v -2.267472 0.834150 -2.932152
v -2.257747 0.892553 -2.922428
v -2.932152 0.834150 -2.267472
v -2.922428 0.892553 -2.257748
v -2.933373 0.882293 -2.526268
v -2.920408 0.960164 -2.513303
v -2.941621 0.960164 -2.492089
v -2.954587 0.882293 -2.505055
v -2.954022 0.889169 -2.546916
v -2.941056 0.967040 -2.533951
v -2.975235 0.889169 -2.525703
v -2.962269 0.967040 -2.512738
v -2.492089 0.960164 -2.941621
v -2.513302 0.960164 -2.920408
v -2.526268 0.882293 -2.933373
v -2.505054 0.882293 -2.954587
v -2.533951 0.967040 -2.941056
v -2.546916 0.889169 -2.954022
v -2.512738 0.967040 -2.962270
v -2.525703 0.889169 -2.975235
v -2.360390 0.865092 -3.025070
v -2.350666 0.923495 -3.015346
v -3.015346 0.923495 -2.350666
v -3.025070 0.865092 -2.360390
v -2.456749 0.897180 -3.121430
v -2.447025 0.955583 -3.111706
v -3.121430 0.897180 -2.456750
v -3.111706 0.955583 -2.447026
v -3.122651 0.945324 -2.715546
v -3.109686 1.023194 -2.702580
v -3.130899 1.023194 -2.681367
v -3.143864 0.945324 -2.694333
v -3.143299 0.952199 -2.736194
v -3.130334 1.030070 -2.723229
v -3.164513 0.952199 -2.714981
v -3.151547 1.030070 -2.702015
v -2.681367 1.023194 -3.130899
v -2.702580 1.023194 -3.109686
v -2.715546 0.945324 -3.122651
v -2.694332 0.945324 -3.143865
v -2.723228 1.030070 -3.130334
v -2.736194 0.952199 -3.143300
v -2.702015 1.030070 -3.151547
v -2.714981 0.952199 -3.164513
v -2.549667 0.928122 -3.214348
v -2.539943 0.986525 -3.204624
v -3.204624 0.986525 -2.539944
v -3.214348 0.928122 -2.549668
v -2.646027 0.960210 -3.310708
v -2.636303 1.018613 -3.300984
v -3.310708 0.960210 -2.646028
v -3.300984 1.018613 -2.636303
v 0.242347 0.071584 -0.242348
v 0.218204 0.085803 -0.218204
v 0.218204 0.071584 -0.218205
v 0.225016 0.071584 -0.225017
v 0.249160 0.071584 -0.249161
v 0.249160 0.085803 -0.249160
v 0.212469 0.025803 -0.212469
v 0.254896 0.025803 -0.254896
v 0.254895 0.041289 -0.254896
v 0.242348 0.041289 -0.242348
v 0.225017 0.041289 -0.225017
v 0.212469 0.041289 -0.212469
v -2.745104 1.025803 -3.254896
v -2.745104 1.041289 -3.254896
v -2.774982 1.041289 -3.225017
v -2.757651 1.041289 -3.242348
v -2.787530 1.025803 -3.212470
v -2.787530 1.041289 -3.212470
v -2.757651 1.071584 -3.242347
v -2.774982 1.071584 -3.225016
v -2.781794 1.071584 -3.218204
v -2.781795 1.085803 -3.218205
v -2.750840 1.085803 -3.249160
v -2.750839 1.071584 -3.249160
vt 0.905875 0.121202
vt 0.905875 0.093759
vt 0.000000 0.093759
vt -0.000122 0.210448
vt 0.905753 0.210448
vt 0.905753 0.156096
vt 0.000000 0.012881
vt 0.905875 0.012881
vt 0.905875 0.000000
vt 0.905875 0.025761
vt 0.905875 0.012881
vt 0.000000 0.012881
vt 0.906075 0.296828
vt 0.000200 0.296828
vt 0.000200 0.312903
vt 0.905875 0.048121
vt 0.000000 0.048121
vt 0.000000 0.062150
vt 0.000512 0.321630
vt 0.906387 0.321630
vt 0.906387 0.312903
vt 0.906075 0.281378
vt 0.000200 0.281378
vt 0.000200 0.297453
vt 0.000000 0.034093
vt 0.000000 0.048121
vt 0.905875 0.048121
vt 0.000200 0.219937
vt 0.000200 0.259595
vt 0.937500 0.259595
vt 0.000512 0.330358
vt 0.906387 0.330358
vt 0.906387 0.321630
vt 0.988729 0.115757
vt 0.958243 0.103062
vt 0.949641 0.115757
vt 0.980908 0.014240
vt 0.959024 0.014240
vt 0.959024 0.041289
vt 0.000000 0.089593
vt 0.905875 0.089593
vt 0.905875 0.062150
vt 0.000000 0.121202
vt -0.000122 0.156096
vt 0.000000 0.000000
vt 0.000000 0.025761
vt 0.906075 0.312903
vt 0.905875 0.062150
vt 0.000512 0.312903
vt 0.906075 0.297453
vt 0.905875 0.034093
vt 0.937500 0.219937
vt 0.000512 0.321630
vt 0.958243 0.076013
vt 0.942399 0.062186
vt 0.942399 0.076013
vt 0.980127 0.076013
vt 0.995971 0.062186
vt 0.995971 0.076013
vt 0.980127 0.103062
vt 0.988729 0.103062
vt 0.949641 0.103062
vt 0.943180 0.014240
vt 0.943180 0.000413
vt 0.996752 0.000413
vt 0.996752 0.014240
vt 0.980908 0.041289
vt 0.989510 0.053985
vt 0.989510 0.041289
vt 0.950422 0.053985
vt 0.950422 0.041289
vt 0.000000 0.062150
vt 0.999050 0.342604
vt 0.939310 0.183297
vt 0.999050 0.183297
vt 0.999050 0.342604
vt 0.939310 0.183297
vt 0.999050 0.183297
vt 0.999050 0.342604
vt 0.939310 0.183297
vt 0.999050 0.183297
vt 0.999050 0.342604
vt 0.939310 0.183297
vt 0.999050 0.183297
vt 0.985655 0.179437
vt 0.939081 0.132863
vt 0.985655 0.132863
vt 0.999050 0.342604
vt 0.939310 0.183297
vt 0.939310 0.342604
vt 0.999050 0.342604
vt 0.939310 0.183297
vt 0.939310 0.342604
vt 0.999050 0.342604
vt 0.939310 0.183297
vt 0.939310 0.342604
vt 0.999050 0.342604
vt 0.939310 0.183297
vt 0.939310 0.342604
vt 0.985655 0.179437
vt 0.939081 0.132863
vt 0.939081 0.179437
vt 0.979692 0.844034
vt -0.000781 0.781451
vt 0.979692 0.781451
vt 0.145247 0.718868
vt -0.000781 0.656284
vt 0.145247 0.656284
vt 0.979692 0.781451
vt -0.000781 0.718868
vt 0.979692 0.718868
vt 0.302823 0.718868
vt 0.156795 0.656284
vt 0.302823 0.656284
vt 1.000000 1.000000
vt 0.000000 0.851064
vt 1.000000 0.851064
vt 0.998987 0.652658
vt 0.001647 0.504118
vt 0.998987 0.504118
vt 0.999050 0.342604
vt 0.939310 0.183297
vt 0.999050 0.183297
vt 0.999050 0.342604
vt 0.939310 0.183297
vt 0.999050 0.183297
vt 0.999050 0.342604
vt 0.939310 0.183297
vt 0.999050 0.183297
vt 0.999050 0.342604
vt 0.939310 0.183297
vt 0.999050 0.183297
vt 0.985655 0.179437
vt 0.939081 0.132863
vt 0.985655 0.132863
vt 0.999050 0.342604
vt 0.939310 0.183297
vt 0.939310 0.342604
vt 0.999050 0.342604
vt 0.939310 0.183297
vt 0.939310 0.342604
vt 0.999050 0.342604
vt 0.939310 0.183297
vt 0.939310 0.342604
vt 0.999050 0.342604
vt 0.939310 0.183297
vt 0.939310 0.342604
vt 0.985655 0.179437
vt 0.939081 0.132863
vt 0.939081 0.179437
vt 0.979692 0.844034
vt -0.000781 0.781451
vt 0.979692 0.781451
vt 0.145247 0.718868
vt -0.000781 0.656284
vt 0.145247 0.656284
vt 0.979692 0.781451
vt -0.000781 0.718868
vt 0.979692 0.718868
vt 0.302823 0.718868
vt 0.156795 0.656284
vt 0.302823 0.656284
vt 1.000000 1.000000
vt 0.000000 0.851064
vt 1.000000 0.851064
vt 0.998987 0.652658
vt 0.001647 0.504118
vt 0.998987 0.504118
vt 0.999050 0.342604
vt 0.939310 0.183297
vt 0.999050 0.183297
vt 0.999050 0.342604
vt 0.939310 0.183297
vt 0.999050 0.183297
vt 0.999050 0.342604
vt 0.939310 0.183297
vt 0.999050 0.183297
vt 0.999050 0.342604
vt 0.939310 0.183297
vt 0.999050 0.183297
vt 0.985655 0.179437
vt 0.939081 0.132863
vt 0.985655 0.132863
vt 0.999050 0.342604
vt 0.939310 0.183297
vt 0.939310 0.342604
vt 0.999050 0.342604
vt 0.939310 0.183297
vt 0.939310 0.342604
vt 0.999050 0.342604
vt 0.939310 0.183297
vt 0.939310 0.342604
vt 0.999050 0.342604
vt 0.939310 0.183297
vt 0.939310 0.342604
vt 0.985655 0.179437
vt 0.939081 0.132863
vt 0.939081 0.179437
vt 0.979692 0.844034
vt -0.000781 0.781451
vt 0.979692 0.781451
vt 0.145247 0.718868
vt -0.000781 0.656284
vt 0.145247 0.656284
vt 0.979692 0.781451
vt -0.000781 0.718868
vt 0.979692 0.718868
vt 0.302823 0.718868
vt 0.156795 0.656284
vt 0.302823 0.656284
vt 1.000000 1.000000
vt 0.000000 0.851064
vt 1.000000 0.851064
vt 0.998987 0.652658
vt 0.001647 0.504118
vt 0.998987 0.504118
vt 0.999050 0.342604
vt 0.939310 0.183297
vt 0.999050 0.183297
vt 0.999050 0.342604
vt 0.939310 0.183297
vt 0.999050 0.183297
vt 0.999050 0.342604
vt 0.939310 0.183297
vt 0.999050 0.183297
vt 0.999050 0.342604
vt 0.939310 0.183297
vt 0.999050 0.183297
vt 0.985655 0.179437
vt 0.939081 0.132863
vt 0.985655 0.132863
vt 0.999050 0.342604
vt 0.939310 0.183297
vt 0.939310 0.342604
vt 0.999050 0.342604
vt 0.939310 0.183297
vt 0.939310 0.342604
vt 0.999050 0.342604
vt 0.939310 0.183297
vt 0.939310 0.342604
vt 0.999050 0.342604
vt 0.939310 0.183297
vt 0.939310 0.342604
vt 0.985655 0.179437
vt 0.939081 0.132863
vt 0.939081 0.179437
vt 0.979692 0.844034
vt -0.000781 0.781451
vt 0.979692 0.781451
vt 0.145247 0.718868
vt -0.000781 0.656284
vt 0.145247 0.656284
vt 0.979692 0.781451
vt -0.000781 0.718868
vt 0.979692 0.718868
vt 0.302823 0.718868
vt 0.156795 0.656284
vt 0.302823 0.656284
vt 1.000000 1.000000
vt 0.000000 0.851064
vt 1.000000 0.851064
vt 0.998987 0.652658
vt 0.001647 0.504118
vt 0.998987 0.504118
vt 0.999050 0.342604
vt 0.939310 0.183297
vt 0.999050 0.183297
vt 0.999050 0.342604
vt 0.939310 0.183297
vt 0.999050 0.183297
vt 0.999050 0.342604
vt 0.939310 0.183297
vt 0.999050 0.183297
vt 0.999050 0.342604
vt 0.939310 0.183297
vt 0.999050 0.183297
vt 0.985655 0.179437
vt 0.939081 0.132863
vt 0.985655 0.132863
vt 0.999050 0.342604
vt 0.939310 0.183297
vt 0.939310 0.342604
vt 0.999050 0.342604
vt 0.939310 0.183297
vt 0.939310 0.342604
vt 0.999050 0.342604
vt 0.939310 0.183297
vt 0.939310 0.342604
vt 0.999050 0.342604
vt 0.939310 0.183297
vt 0.939310 0.342604
vt 0.985655 0.179437
vt 0.939081 0.132863
vt 0.939081 0.179437
vt 0.979692 0.844034
vt -0.000781 0.781451
vt 0.979692 0.781451
vt 0.145247 0.718868
vt -0.000781 0.656284
vt 0.145247 0.656284
vt 0.979692 0.781451
vt -0.000781 0.718868
vt 0.979692 0.718868
vt 0.302823 0.718868
vt 0.156795 0.656284
vt 0.302823 0.656284
vt 1.000000 1.000000
vt 0.000000 0.851064
vt 1.000000 0.851064
vt 0.998987 0.652658
vt 0.001647 0.504118
vt 0.998987 0.504118
vt 0.999050 0.342604
vt 0.939310 0.183297
vt 0.999050 0.183297
vt 0.999050 0.342604
vt 0.939310 0.183297
vt 0.999050 0.183297
vt 0.999050 0.342604
vt 0.939310 0.183297
vt 0.999050 0.183297
vt 0.999050 0.342604
vt 0.939310 0.183297
vt 0.999050 0.183297
vt 0.985655 0.179437
vt 0.939081 0.132863
vt 0.985655 0.132863
vt 0.999050 0.342604
vt 0.939310 0.183297
vt 0.939310 0.342604
vt 0.999050 0.342604
vt 0.939310 0.183297
vt 0.939310 0.342604
vt 0.999050 0.342604
vt 0.939310 0.183297
vt 0.939310 0.342604
vt 0.999050 0.342604
vt 0.939310 0.183297
vt 0.939310 0.342604
vt 0.985655 0.179437
vt 0.939081 0.132863
vt 0.939081 0.179437
vt 0.979692 0.844034
vt -0.000781 0.781451
vt 0.979692 0.781451
vt 0.145247 0.718868
vt -0.000781 0.656284
vt 0.145247 0.656284
vt 0.979692 0.781451
vt -0.000781 0.718868
vt 0.979692 0.718868
vt 0.302823 0.718868
vt 0.156795 0.656284
vt 0.302823 0.656284
vt 1.000000 1.000000
vt 0.000000 0.851064
vt 1.000000 0.851064
vt 0.998987 0.652658
vt 0.001647 0.504118
vt 0.998987 0.504118
vt 0.999050 0.342604
vt 0.939310 0.183297
vt 0.999050 0.183297
vt 0.999050 0.342604
vt 0.939310 0.183297
vt 0.999050 0.183297
vt 0.999050 0.342604
vt 0.939310 0.183297
vt 0.999050 0.183297
vt 0.999050 0.342604
vt 0.939310 0.183297
vt 0.999050 0.183297
vt 0.985655 0.179437
vt 0.939081 0.132863
vt 0.985655 0.132863
vt 0.999050 0.342604
vt 0.939310 0.183297
vt 0.939310 0.342604
vt 0.999050 0.342604
vt 0.939310 0.183297
vt 0.939310 0.342604
vt 0.999050 0.342604
vt 0.939310 0.183297
vt 0.939310 0.342604
vt 0.999050 0.342604
vt 0.939310 0.183297
vt 0.939310 0.342604
vt 0.985655 0.179437
vt 0.939081 0.132863
vt 0.939081 0.179437
vt 0.979692 0.844034
vt -0.000781 0.781451
vt 0.979692 0.781451
vt 0.145247 0.718868
vt -0.000781 0.656284
vt 0.145247 0.656284
vt 0.979692 0.781451
vt -0.000781 0.718868
vt 0.979692 0.718868
vt 0.302823 0.718868
vt 0.156795 0.656284
vt 0.302823 0.656284
vt 1.000000 1.000000
vt 0.000000 0.851064
vt 1.000000 0.851064
vt 0.998987 0.652658
vt 0.001647 0.504118
vt 0.998987 0.504118
vt 0.999050 0.342604
vt 0.939310 0.183297
vt 0.999050 0.183297
vt 0.999050 0.342604
vt 0.939310 0.183297
vt 0.999050 0.183297
vt 0.999050 0.342604
vt 0.939310 0.183297
vt 0.999050 0.183297
vt 0.999050 0.342604
vt 0.939310 0.183297
vt 0.999050 0.183297
vt 0.985655 0.179437
vt 0.939081 0.132863
vt 0.985655 0.132863
vt 0.999050 0.342604
vt 0.939310 0.183297
vt 0.939310 0.342604
vt 0.999050 0.342604
vt 0.939310 0.183297
vt 0.939310 0.342604
vt 0.999050 0.342604
vt 0.939310 0.183297
vt 0.939310 0.342604
vt 0.999050 0.342604
vt 0.939310 0.183297
vt 0.939310 0.342604
vt 0.985655 0.179437
vt 0.939081 0.132863
vt 0.939081 0.179437
vt 0.979692 0.844034
vt -0.000781 0.781451
vt 0.979692 0.781451
vt 0.145247 0.718868
vt -0.000781 0.656284
vt 0.145247 0.656284
vt 0.979692 0.781451
vt -0.000781 0.718868
vt 0.979692 0.718868
vt 0.302823 0.718868
vt 0.156795 0.656284
vt 0.302823 0.656284
vt 1.000000 1.000000
vt 0.000000 0.851064
vt 1.000000 0.851064
vt 0.998987 0.652658
vt 0.001647 0.504118
vt 0.998987 0.504118
vt 0.999050 0.342604
vt 0.939310 0.183297
vt 0.999050 0.183297
vt 0.999050 0.342604
vt 0.939310 0.183297
vt 0.999050 0.183297
vt 0.999050 0.342604
vt 0.939310 0.183297
vt 0.999050 0.183297
vt 0.999050 0.342604
vt 0.939310 0.183297
vt 0.999050 0.183297
vt 0.985655 0.179437
vt 0.939081 0.132863
vt 0.985655 0.132863
vt 0.999050 0.342604
vt 0.939310 0.183297
vt 0.939310 0.342604
vt 0.999050 0.342604
vt 0.939310 0.183297
vt 0.939310 0.342604
vt 0.999050 0.342604
vt 0.939310 0.183297
vt 0.939310 0.342604
vt 0.999050 0.342604
vt 0.939310 0.183297
vt 0.939310 0.342604
vt 0.985655 0.179437
vt 0.939081 0.132863
vt 0.939081 0.179437
vt 0.979692 0.844034
vt -0.000781 0.781451
vt 0.979692 0.781451
vt 0.145247 0.718868
vt -0.000781 0.656284
vt 0.145247 0.656284
vt 0.979692 0.781451
vt -0.000781 0.718868
vt 0.979692 0.718868
vt 0.302823 0.718868
vt 0.156795 0.656284
vt 0.302823 0.656284
vt 1.000000 1.000000
vt 0.000000 0.851064
vt 1.000000 0.851064
vt 0.998987 0.652658
vt 0.001647 0.504118
vt 0.998987 0.504118
vt 0.999050 0.342604
vt 0.939310 0.183297
vt 0.999050 0.183297
vt 0.999050 0.342604
vt 0.939310 0.183297
vt 0.999050 0.183297
vt 0.999050 0.342604
vt 0.939310 0.183297
vt 0.999050 0.183297
vt 0.999050 0.342604
vt 0.939310 0.183297
vt 0.999050 0.183297
vt 0.985655 0.179437
vt 0.939081 0.132863
vt 0.985655 0.132863
vt 0.999050 0.342604
vt 0.939310 0.183297
vt 0.939310 0.342604
vt 0.999050 0.342604
vt 0.939310 0.183297
vt 0.939310 0.342604
vt 0.999050 0.342604
vt 0.939310 0.183297
vt 0.939310 0.342604
vt 0.999050 0.342604
vt 0.939310 0.183297
vt 0.939310 0.342604
vt 0.985655 0.179437
vt 0.939081 0.132863
vt 0.939081 0.179437
vt 0.979692 0.844034
vt -0.000781 0.781451
vt 0.979692 0.781451
vt 0.145247 0.718868
vt -0.000781 0.656284
vt 0.145247 0.656284
vt 0.979692 0.781451
vt -0.000781 0.718868
vt 0.979692 0.718868
vt 0.302823 0.718868
vt 0.156795 0.656284
vt 0.302823 0.656284
vt 1.000000 1.000000
vt 0.000000 0.851064
vt 1.000000 0.851064
vt 0.998987 0.652658
vt 0.001647 0.504118
vt 0.998987 0.504118
vt 0.999050 0.342604
vt 0.939310 0.183297
vt 0.999050 0.183297
vt 0.999050 0.342604
vt 0.939310 0.183297
vt 0.999050 0.183297
vt 0.999050 0.342604
vt 0.939310 0.183297
vt 0.999050 0.183297
vt 0.999050 0.342604
vt 0.939310 0.183297
vt 0.999050 0.183297
vt 0.985655 0.179437
vt 0.939081 0.132863
vt 0.985655 0.132863
vt 0.999050 0.342604
vt 0.939310 0.183297
vt 0.939310 0.342604
vt 0.999050 0.342604
vt 0.939310 0.183297
vt 0.939310 0.342604
vt 0.999050 0.342604
vt 0.939310 0.183297
vt 0.939310 0.342604
vt 0.999050 0.342604
vt 0.939310 0.183297
vt 0.939310 0.342604
vt 0.985655 0.179437
vt 0.939081 0.132863
vt 0.939081 0.179437
vt 0.979692 0.844034
vt -0.000781 0.781451
vt 0.979692 0.781451
vt 0.145247 0.718868
vt -0.000781 0.656284
vt 0.145247 0.656284
vt 0.979692 0.781451
vt -0.000781 0.718868
vt 0.979692 0.718868
vt 0.302823 0.718868
vt 0.156795 0.656284
vt 0.302823 0.656284
vt 1.000000 1.000000
vt 0.000000 0.851064
vt 1.000000 0.851064
vt 0.998987 0.652658
vt 0.001647 0.504118
vt 0.998987 0.504118
vt 0.999050 0.342604
vt 0.939310 0.183297
vt 0.999050 0.183297
vt 0.999050 0.342604
vt 0.939310 0.183297
vt 0.999050 0.183297
vt 0.999050 0.342604
vt 0.939310 0.183297
vt 0.999050 0.183297
vt 0.999050 0.342604
vt 0.939310 0.183297
vt 0.999050 0.183297
vt 0.985655 0.179437
vt 0.939081 0.132863
vt 0.985655 0.132863
vt 0.999050 0.342604
vt 0.939310 0.183297
vt 0.939310 0.342604
vt 0.999050 0.342604
vt 0.939310 0.183297
vt 0.939310 0.342604
vt 0.999050 0.342604
vt 0.939310 0.183297
vt 0.939310 0.342604
vt 0.999050 0.342604
vt 0.939310 0.183297
vt 0.939310 0.342604
vt 0.985655 0.179437
vt 0.939081 0.132863
vt 0.939081 0.179437
vt 0.979692 0.844034
vt -0.000781 0.781451
vt 0.979692 0.781451
vt 0.145247 0.718868
vt -0.000781 0.656284
vt 0.145247 0.656284
vt 0.979692 0.781451
vt -0.000781 0.718868
vt 0.979692 0.718868
vt 0.302823 0.718868
vt 0.156795 0.656284
vt 0.302823 0.656284
vt 1.000000 1.000000
vt 0.000000 0.851064
vt 1.000000 0.851064
vt 0.998987 0.652658
vt 0.001647 0.504118
vt 0.998987 0.504118
vt 0.999050 0.342604
vt 0.939310 0.183297
vt 0.999050 0.183297
vt 0.999050 0.342604
vt 0.939310 0.183297
vt 0.999050 0.183297
vt 0.999050 0.342604
vt 0.939310 0.183297
vt 0.999050 0.183297
vt 0.999050 0.342604
vt 0.939310 0.183297
vt 0.999050 0.183297
vt 0.985655 0.179437
vt 0.939081 0.132863
vt 0.985655 0.132863
vt 0.999050 0.342604
vt 0.939310 0.183297
vt 0.939310 0.342604
vt 0.999050 0.342604
vt 0.939310 0.183297
vt 0.939310 0.342604
vt 0.999050 0.342604
vt 0.939310 0.183297
vt 0.939310 0.342604
vt 0.999050 0.342604
vt 0.939310 0.183297
vt 0.939310 0.342604
vt 0.985655 0.179437
vt 0.939081 0.132863
vt 0.939081 0.179437
vt 0.979692 0.844034
vt -0.000781 0.781451
vt 0.979692 0.781451
vt 0.145247 0.718868
vt -0.000781 0.656284
vt 0.145247 0.656284
vt 0.979692 0.781451
vt -0.000781 0.718868
vt 0.979692 0.718868
vt 0.302823 0.718868
vt 0.156795 0.656284
vt 0.302823 0.656284
vt 1.000000 1.000000
vt 0.000000 0.851064
vt 1.000000 0.851064
vt 0.998987 0.652658
vt 0.001647 0.504118
vt 0.998987 0.504118
vt 0.999050 0.342604
vt 0.939310 0.183297
vt 0.999050 0.183297
vt 0.999050 0.342604
vt 0.939310 0.183297
vt 0.999050 0.183297
vt 0.999050 0.342604
vt 0.939310 0.183297
vt 0.999050 0.183297
vt 0.999050 0.342604
vt 0.939310 0.183297
vt 0.999050 0.183297
vt 0.985655 0.179437
vt 0.939081 0.132863
vt 0.985655 0.132863
vt 0.999050 0.342604
vt 0.939310 0.183297
vt 0.939310 0.342604
vt 0.999050 0.342604
vt 0.939310 0.183297
vt 0.939310 0.342604
vt 0.999050 0.342604
vt 0.939310 0.183297
vt 0.939310 0.342604
vt 0.999050 0.342604
vt 0.939310 0.183297
vt 0.939310 0.342604
vt 0.985655 0.179437
vt 0.939081 0.132863
vt 0.939081 0.179437
vt 0.979692 0.844034
vt -0.000781 0.781451
vt 0.979692 0.781451
vt 0.145247 0.718868
vt -0.000781 0.656284
vt 0.145247 0.656284
vt 0.979692 0.781451
vt -0.000781 0.718868
vt 0.979692 0.718868
vt 0.302823 0.718868
vt 0.156795 0.656284
vt 0.302823 0.656284
vt 1.000000 1.000000
vt 0.000000 0.851064
vt 1.000000 0.851064
vt 0.998987 0.652658
vt 0.001647 0.504118
vt 0.998987 0.504118
vt 0.999050 0.342604
vt 0.939310 0.183297
vt 0.999050 0.183297
vt 0.999050 0.342604
vt 0.939310 0.183297
vt 0.999050 0.183297
vt 0.999050 0.342604
vt 0.939310 0.183297
vt 0.999050 0.183297
vt 0.999050 0.342604
vt 0.939310 0.183297
vt 0.999050 0.183297
vt 0.985655 0.179437
vt 0.939081 0.132863
vt 0.985655 0.132863
vt 0.999050 0.342604
vt 0.939310 0.183297
vt 0.939310 0.342604
vt 0.999050 0.342604
vt 0.939310 0.183297
vt 0.939310 0.342604
vt 0.999050 0.342604
vt 0.939310 0.183297
vt 0.939310 0.342604
vt 0.999050 0.342604
vt 0.939310 0.183297
vt 0.939310 0.342604
vt 0.985655 0.179437
vt 0.939081 0.132863
vt 0.939081 0.179437
vt 0.979692 0.844034
vt -0.000781 0.781451
vt 0.979692 0.781451
vt 0.145247 0.718868
vt -0.000781 0.656284
vt 0.145247 0.656284
vt 0.979692 0.781451
vt -0.000781 0.718868
vt 0.979692 0.718868
vt 0.302823 0.718868
vt 0.156795 0.656284
vt 0.302823 0.656284
vt 1.000000 1.000000
vt 0.000000 0.851064
vt 1.000000 0.851064
vt 0.998987 0.652658
vt 0.001647 0.504118
vt 0.998987 0.504118
vt 0.999050 0.342604
vt 0.939310 0.183297
vt 0.999050 0.183297
vt 0.999050 0.342604
vt 0.939310 0.183297
vt 0.999050 0.183297
vt 0.999050 0.342604
vt 0.939310 0.183297
vt 0.999050 0.183297
vt 0.999050 0.342604
vt 0.939310 0.183297
vt 0.999050 0.183297
vt 0.985655 0.179437
vt 0.939081 0.132863
vt 0.985655 0.132863
vt 0.999050 0.342604
vt 0.939310 0.183297
vt 0.939310 0.342604
vt 0.999050 0.342604
vt 0.939310 0.183297
vt 0.939310 0.342604
vt 0.999050 0.342604
vt 0.939310 0.183297
vt 0.939310 0.342604
vt 0.999050 0.342604
vt 0.939310 0.183297
vt 0.939310 0.342604
vt 0.985655 0.179437
vt 0.939081 0.132863
vt 0.939081 0.179437
vt 0.979692 0.844034
vt -0.000781 0.781451
vt 0.979692 0.781451
vt 0.145247 0.718868
vt -0.000781 0.656284
vt 0.145247 0.656284
vt 0.979692 0.781451
vt -0.000781 0.718868
vt 0.979692 0.718868
vt 0.302823 0.718868
vt 0.156795 0.656284
vt 0.302823 0.656284
vt 1.000000 1.000000
vt 0.000000 0.851064
vt 1.000000 0.851064
vt 0.998987 0.652658
vt 0.001647 0.504118
vt 0.998987 0.504118
vt 0.939310 0.342604
vt 0.939310 0.342604
vt 0.939310 0.342604
vt 0.939310 0.342604
vt 0.939081 0.179437
vt 0.999050 0.183297
vt 0.999050 0.183297
vt 0.999050 0.183297
vt 0.999050 0.183297
vt 0.985655 0.132863
vt -0.000781 0.844034
vt -0.000781 0.718868
vt -0.000781 0.781451
vt 0.156795 0.718868
vt 0.000000 1.000000
vt 0.001647 0.652658
vt 0.939310 0.342604
vt 0.939310 0.342604
vt 0.939310 0.342604
vt 0.939310 0.342604
vt 0.939081 0.179437
vt 0.999050 0.183297
vt 0.999050 0.183297
vt 0.999050 0.183297
vt 0.999050 0.183297
vt 0.985655 0.132863
vt -0.000781 0.844034
vt -0.000781 0.718868
vt -0.000781 0.781451
vt 0.156795 0.718868
vt 0.000000 1.000000
vt 0.001647 0.652658
vt 0.939310 0.342604
vt 0.939310 0.342604
vt 0.939310 0.342604
vt 0.939310 0.342604
vt 0.939081 0.179437
vt 0.999050 0.183297
vt 0.999050 0.183297
vt 0.999050 0.183297
vt 0.999050 0.183297
vt 0.985655 0.132863
vt -0.000781 0.844034
vt -0.000781 0.718868
vt -0.000781 0.781451
vt 0.156795 0.718868
vt 0.000000 1.000000
vt 0.001647 0.652658
vt 0.939310 0.342604
vt 0.939310 0.342604
vt 0.939310 0.342604
vt 0.939310 0.342604
vt 0.939081 0.179437
vt 0.999050 0.183297
vt 0.999050 0.183297
vt 0.999050 0.183297
vt 0.999050 0.183297
vt 0.985655 0.132863
vt -0.000781 0.844034
vt -0.000781 0.718868
vt -0.000781 0.781451
vt 0.156795 0.718868
vt 0.000000 1.000000
vt 0.001647 0.652658
vt 0.939310 0.342604
vt 0.939310 0.342604
vt 0.939310 0.342604
vt 0.939310 0.342604
vt 0.939081 0.179437
vt 0.999050 0.183297
vt 0.999050 0.183297
vt 0.999050 0.183297
vt 0.999050 0.183297
vt 0.985655 0.132863
vt -0.000781 0.844034
vt -0.000781 0.718868
vt -0.000781 0.781451
vt 0.156795 0.718868
vt 0.000000 1.000000
vt 0.001647 0.652658
vt 0.939310 0.342604
vt 0.939310 0.342604
vt 0.939310 0.342604
vt 0.939310 0.342604
vt 0.939081 0.179437
vt 0.999050 0.183297
vt 0.999050 0.183297
vt 0.999050 0.183297
vt 0.999050 0.183297
vt 0.985655 0.132863
vt -0.000781 0.844034
vt -0.000781 0.718868
vt -0.000781 0.781451
vt 0.156795 0.718868
vt 0.000000 1.000000
vt 0.001647 0.652658
vt 0.939310 0.342604
vt 0.939310 0.342604
vt 0.939310 0.342604
vt 0.939310 0.342604
vt 0.939081 0.179437
vt 0.999050 0.183297
vt 0.999050 0.183297
vt 0.999050 0.183297
vt 0.999050 0.183297
vt 0.985655 0.132863
vt -0.000781 0.844034
vt -0.000781 0.718868
vt -0.000781 0.781451
vt 0.156795 0.718868
vt 0.000000 1.000000
vt 0.001647 0.652658
vt 0.939310 0.342604
vt 0.939310 0.342604
vt 0.939310 0.342604
vt 0.939310 0.342604
vt 0.939081 0.179437
vt 0.999050 0.183297
vt 0.999050 0.183297
vt 0.999050 0.183297
vt 0.999050 0.183297
vt 0.985655 0.132863
vt -0.000781 0.844034
vt -0.000781 0.718868
vt -0.000781 0.781451
vt 0.156795 0.718868
vt 0.000000 1.000000
vt 0.001647 0.652658
vt 0.939310 0.342604
vt 0.939310 0.342604
vt 0.939310 0.342604
vt 0.939310 0.342604
vt 0.939081 0.179437
vt 0.999050 0.183297
vt 0.999050 0.183297
vt 0.999050 0.183297
vt 0.999050 0.183297
vt 0.985655 0.132863
vt -0.000781 0.844034
vt -0.000781 0.718868
vt -0.000781 0.781451
vt 0.156795 0.718868
vt 0.000000 1.000000
vt 0.001647 0.652658
vt 0.939310 0.342604
vt 0.939310 0.342604
vt 0.939310 0.342604
vt 0.939310 0.342604
vt 0.939081 0.179437
vt 0.999050 0.183297
vt 0.999050 0.183297
vt 0.999050 0.183297
vt 0.999050 0.183297
vt 0.985655 0.132863
vt -0.000781 0.844034
vt -0.000781 0.718868
vt -0.000781 0.781451
vt 0.156795 0.718868
vt 0.000000 1.000000
vt 0.001647 0.652658
vt 0.939310 0.342604
vt 0.939310 0.342604
vt 0.939310 0.342604
vt 0.939310 0.342604
vt 0.939081 0.179437
vt 0.999050 0.183297
vt 0.999050 0.183297
vt 0.999050 0.183297
vt 0.999050 0.183297
vt 0.985655 0.132863
vt -0.000781 0.844034
vt -0.000781 0.718868
vt -0.000781 0.781451
vt 0.156795 0.718868
vt 0.000000 1.000000
vt 0.001647 0.652658
vt 0.939310 0.342604
vt 0.939310 0.342604
vt 0.939310 0.342604
vt 0.939310 0.342604
vt 0.939081 0.179437
vt 0.999050 0.183297
vt 0.999050 0.183297
vt 0.999050 0.183297
vt 0.999050 0.183297
vt 0.985655 0.132863
vt -0.000781 0.844034
vt -0.000781 0.718868
vt -0.000781 0.781451
vt 0.156795 0.718868
vt 0.000000 1.000000
vt 0.001647 0.652658
vt 0.939310 0.342604
vt 0.939310 0.342604
vt 0.939310 0.342604
vt 0.939310 0.342604
vt 0.939081 0.179437
vt 0.999050 0.183297
vt 0.999050 0.183297
vt 0.999050 0.183297
vt 0.999050 0.183297
vt 0.985655 0.132863
vt -0.000781 0.844034
vt -0.000781 0.718868
vt -0.000781 0.781451
vt 0.156795 0.718868
vt 0.000000 1.000000
vt 0.001647 0.652658
vt 0.939310 0.342604
vt 0.939310 0.342604
vt 0.939310 0.342604
vt 0.939310 0.342604
vt 0.939081 0.179437
vt 0.999050 0.183297
vt 0.999050 0.183297
vt 0.999050 0.183297
vt 0.999050 0.183297
vt 0.985655 0.132863
vt -0.000781 0.844034
vt -0.000781 0.718868
vt -0.000781 0.781451
vt 0.156795 0.718868
vt 0.000000 1.000000
vt 0.001647 0.652658
vt 0.939310 0.342604
vt 0.939310 0.342604
vt 0.939310 0.342604
vt 0.939310 0.342604
vt 0.939081 0.179437
vt 0.999050 0.183297
vt 0.999050 0.183297
vt 0.999050 0.183297
vt 0.999050 0.183297
vt 0.985655 0.132863
vt -0.000781 0.844034
vt -0.000781 0.718868
vt -0.000781 0.781451
vt 0.156795 0.718868
vt 0.000000 1.000000
vt 0.001647 0.652658
vt 0.939310 0.342604
vt 0.939310 0.342604
vt 0.939310 0.342604
vt 0.939310 0.342604
vt 0.939081 0.179437
vt 0.999050 0.183297
vt 0.999050 0.183297
vt 0.999050 0.183297
vt 0.999050 0.183297
vt 0.985655 0.132863
vt -0.000781 0.844034
vt -0.000781 0.718868
vt -0.000781 0.781451
vt 0.156795 0.718868
vt 0.000000 1.000000
vt 0.001647 0.652658
vt 0.905875 0.121202
vt 0.000000 0.093759
vt 0.905875 0.093759
vt -0.000122 0.210448
vt 0.905753 0.156096
vt 0.905753 0.210448
vt 0.000000 0.012881
vt 0.905875 0.000000
vt 0.905875 0.012881
vt 0.905875 0.025761
vt 0.000000 0.012881
vt 0.905875 0.012881
vt 0.906075 0.296828
vt 0.000200 0.312903
vt 0.000200 0.296828
vt 0.905875 0.048121
vt 0.000000 0.062150
vt 0.000000 0.048121
vt 0.000512 0.321630
vt 0.906387 0.312903
vt 0.906387 0.321630
vt 0.906075 0.281378
vt 0.000200 0.297453
vt 0.000200 0.281378
vt 0.000000 0.034093
vt 0.905875 0.048121
vt 0.000000 0.048121
vt 0.000200 0.219937
vt 0.937500 0.259595
vt 0.000200 0.259595
vt 0.000512 0.330358
vt 0.906387 0.321630
vt 0.906387 0.330358
vt 0.988729 0.115757
vt 0.949641 0.115757
vt 0.958243 0.103062
vt 0.980908 0.014240
vt 0.959024 0.041289
vt 0.959024 0.014240
vt 0.000000 0.089593
vt 0.905875 0.062150
vt 0.905875 0.089593
vt 0.000000 0.121202
vt -0.000122 0.156096
vt 0.000000 0.000000
vt 0.000000 0.025761
vt 0.906075 0.312903
vt 0.905875 0.062150
vt 0.000512 0.312903
vt 0.906075 0.297453
vt 0.905875 0.034093
vt 0.937500 0.219937
vt 0.000512 0.321630
vt 0.958243 0.076013
vt 0.942399 0.076013
vt 0.942399 0.062186
vt 0.995971 0.062186
vt 0.980127 0.076013
vt 0.995971 0.076013
vt 0.980127 0.103062
vt 0.988729 0.103062
vt 0.949641 0.103062
vt 0.943180 0.014240
vt 0.943180 0.000413
vt 0.996752 0.000413
vt 0.996752 0.014240
vt 0.980908 0.041289
vt 0.989510 0.041289
vt 0.989510 0.053985
vt 0.950422 0.053985
vt 0.950422 0.041289
vt 0.000000 0.062150
vn 0.7071 0.0000 -0.7071
vn -0.1622 -0.9733 -0.1622
vn -0.7071 0.0000 0.7071
vn 0.1638 0.9728 0.1638
vn 0.1626 0.9733 0.1619
vn 0.1619 0.9733 0.1626
vn -0.1662 -0.9720 -0.1662
vn -0.1619 -0.9733 -0.1626
vn -0.1626 -0.9733 -0.1619
vn 0.1673 0.9716 0.1675
vn 0.7071 -0.0000 0.7071
vn -0.7071 0.0000 -0.7071
vn 0.1638 0.9733 0.1606
vn 0.1619 0.9734 0.1619
vn 0.1606 0.9733 0.1638
vn -0.1581 -0.9733 -0.1663
vn -0.1619 -0.9734 -0.1619
vn -0.1663 -0.9733 -0.1582
vn 0.1568 0.9733 0.1675
vn 0.1675 0.9733 0.1569
vn -0.1663 -0.9733 -0.1581
vn 0.7071 -0.0001 0.7071
vn -0.7071 -0.0001 -0.7071
vn 0.6883 -0.2292 0.6883
vn -0.6883 0.2292 -0.6883
vn 0.1621 0.9734 0.1621
vn -0.1621 -0.9734 -0.1621
vn 0.1674 0.9716 0.1674
usemtl Default_OBJ.007
s off
f 4/1/1 11/2/1 15/3/1
f 8/4/2 13/5/2 17/6/2
f 6/7/3 23/8/3 24/9/3
f 2/10/1 3/11/1 21/12/1
f 12/13/4 18/14/5 15/15/6
f 13/16/3 8/17/3 9/18/3
f 5/19/7 24/20/8 19/21/9
f 10/22/4 16/23/5 14/24/6
f 17/25/1 18/26/1 12/27/1
f 22/28/5 23/29/6 6/30/10
f 4/31/7 20/32/8 21/33/9
f 6/34/11 4/35/11 2/36/11
f 15/37/12 16/38/12 19/39/12
f 1/40/3 19/41/3 16/42/3
f 4/1/1 15/3/1 20/43/1
f 8/4/2 17/6/2 7/44/2
f 6/7/3 24/9/3 5/45/3
f 2/10/1 21/12/1 22/46/1
f 12/13/13 15/15/14 11/47/15
f 13/16/3 9/18/3 14/48/3
f 5/19/16 19/21/17 1/49/18
f 10/22/13 14/24/14 9/50/15
f 17/25/1 12/27/1 7/51/1
f 22/28/14 6/30/19 2/52/20
f 4/31/16 21/33/17 3/53/21
f 11/54/11 7/55/11 12/56/11
f 7/55/11 10/57/11 8/58/11
f 8/58/11 10/57/11 9/59/11
f 11/54/11 10/57/11 7/55/11
f 1/60/22 6/34/22 5/61/22
f 11/54/11 4/35/11 10/57/11
f 10/57/11 4/35/11 1/60/11
f 2/36/11 4/35/11 3/62/11
f 1/60/22 4/35/22 6/34/22
f 14/63/12 16/38/12 13/64/12
f 13/64/12 16/38/12 17/65/12
f 17/65/12 15/37/12 18/66/12
f 20/67/23 22/68/23 21/69/23
f 20/67/12 23/70/12 22/68/12
f 23/70/23 19/39/23 24/71/23
f 20/67/23 19/39/23 23/70/23
f 16/38/12 15/37/12 17/65/12
f 15/37/12 19/39/12 20/67/12
f 1/40/3 16/42/3 10/72/3
f 26/73/24 28/74/24 25/75/24
f 30/76/1 25/77/1 29/78/1
f 32/79/25 29/80/25 31/81/25
f 27/82/3 31/83/3 28/84/3
f 30/85/26 27/86/26 26/87/26
f 34/88/24 36/89/24 33/90/24
f 37/91/3 35/92/3 34/93/3
f 39/94/25 38/95/25 37/96/25
f 33/97/1 40/98/1 39/99/1
f 37/100/26 33/101/26 39/102/26
f 42/103/24 44/104/24 41/105/24
f 46/106/1 41/107/1 45/108/1
f 48/109/25 45/110/25 47/111/25
f 43/112/3 47/113/3 44/114/3
f 46/115/26 43/116/26 42/117/26
f 41/118/27 47/119/27 45/120/27
f 50/121/24 52/122/24 49/123/24
f 54/124/1 49/125/1 53/126/1
f 56/127/25 53/128/25 55/129/25
f 51/130/3 55/131/3 52/132/3
f 54/133/26 51/134/26 50/135/26
f 58/136/24 60/137/24 57/138/24
f 61/139/3 59/140/3 58/141/3
f 63/142/25 62/143/25 61/144/25
f 57/145/1 64/146/1 63/147/1
f 61/148/26 57/149/26 63/150/26
f 66/151/24 68/152/24 65/153/24
f 70/154/1 65/155/1 69/156/1
f 72/157/25 69/158/25 71/159/25
f 67/160/3 71/161/3 68/162/3
f 70/163/26 67/164/26 66/165/26
f 65/166/27 71/167/27 69/168/27
f 74/169/24 76/170/24 73/171/24
f 78/172/1 73/173/1 77/174/1
f 80/175/25 77/176/25 79/177/25
f 75/178/3 79/179/3 76/180/3
f 78/181/26 75/182/26 74/183/26
f 82/184/24 84/185/24 81/186/24
f 85/187/3 83/188/3 82/189/3
f 87/190/25 86/191/25 85/192/25
f 81/193/1 88/194/1 87/195/1
f 85/196/26 81/197/26 87/198/26
f 90/199/24 92/200/24 89/201/24
f 94/202/1 89/203/1 93/204/1
f 96/205/25 93/206/25 95/207/25
f 91/208/3 95/209/3 92/210/3
f 94/211/26 91/212/26 90/213/26
f 89/214/27 95/215/27 93/216/27
f 98/217/24 100/218/24 97/219/24
f 102/220/1 97/221/1 101/222/1
f 104/223/25 101/224/25 103/225/25
f 99/226/3 103/227/3 100/228/3
f 102/229/26 99/230/26 98/231/26
f 106/232/24 108/233/24 105/234/24
f 109/235/3 107/236/3 106/237/3
f 111/238/25 110/239/25 109/240/25
f 105/241/1 112/242/1 111/243/1
f 109/244/26 105/245/26 111/246/26
f 114/247/24 116/248/24 113/249/24
f 118/250/1 113/251/1 117/252/1
f 120/253/25 117/254/25 119/255/25
f 115/256/3 119/257/3 116/258/3
f 118/259/26 115/260/26 114/261/26
f 113/262/27 119/263/27 117/264/27
f 122/265/24 124/266/24 121/267/24
f 126/268/1 121/269/1 125/270/1
f 128/271/25 125/272/25 127/273/25
f 123/274/3 127/275/3 124/276/3
f 126/277/26 123/278/26 122/279/26
f 130/280/24 132/281/24 129/282/24
f 133/283/3 131/284/3 130/285/3
f 135/286/25 134/287/25 133/288/25
f 129/289/1 136/290/1 135/291/1
f 133/292/26 129/293/26 135/294/26
f 138/295/24 140/296/24 137/297/24
f 142/298/1 137/299/1 141/300/1
f 144/301/25 141/302/25 143/303/25
f 139/304/3 143/305/3 140/306/3
f 142/307/26 139/308/26 138/309/26
f 137/310/27 143/311/27 141/312/27
f 146/313/24 148/314/24 145/315/24
f 150/316/1 145/317/1 149/318/1
f 152/319/25 149/320/25 151/321/25
f 147/322/3 151/323/3 148/324/3
f 150/325/26 147/326/26 146/327/26
f 154/328/24 156/329/24 153/330/24
f 157/331/3 155/332/3 154/333/3
f 159/334/25 158/335/25 157/336/25
f 153/337/1 160/338/1 159/339/1
f 157/340/26 153/341/26 159/342/26
f 162/343/24 164/344/24 161/345/24
f 166/346/1 161/347/1 165/348/1
f 168/349/25 165/350/25 167/351/25
f 163/352/3 167/353/3 164/354/3
f 166/355/26 163/356/26 162/357/26
f 161/358/27 167/359/27 165/360/27
f 170/361/24 172/362/24 169/363/24
f 174/364/1 169/365/1 173/366/1
f 176/367/25 173/368/25 175/369/25
f 171/370/3 175/371/3 172/372/3
f 174/373/26 171/374/26 170/375/26
f 178/376/24 180/377/24 177/378/24
f 181/379/3 179/380/3 178/381/3
f 183/382/25 182/383/25 181/384/25
f 177/385/1 184/386/1 183/387/1
f 181/388/26 177/389/26 183/390/26
f 186/391/24 188/392/24 185/393/24
f 190/394/1 185/395/1 189/396/1
f 192/397/25 189/398/25 191/399/25
f 187/400/3 191/401/3 188/402/3
f 190/403/26 187/404/26 186/405/26
f 185/406/27 191/407/27 189/408/27
f 194/409/24 196/410/24 193/411/24
f 198/412/1 193/413/1 197/414/1
f 200/415/25 197/416/25 199/417/25
f 195/418/3 199/419/3 196/420/3
f 198/421/26 195/422/26 194/423/26
f 202/424/24 204/425/24 201/426/24
f 205/427/3 203/428/3 202/429/3
f 207/430/25 206/431/25 205/432/25
f 201/433/1 208/434/1 207/435/1
f 205/436/26 201/437/26 207/438/26
f 210/439/24 212/440/24 209/441/24
f 214/442/1 209/443/1 213/444/1
f 216/445/25 213/446/25 215/447/25
f 211/448/3 215/449/3 212/450/3
f 214/451/26 211/452/26 210/453/26
f 209/454/27 215/455/27 213/456/27
f 218/457/24 220/458/24 217/459/24
f 222/460/1 217/461/1 221/462/1
f 224/463/25 221/464/25 223/465/25
f 219/466/3 223/467/3 220/468/3
f 222/469/26 219/470/26 218/471/26
f 226/472/24 228/473/24 225/474/24
f 229/475/3 227/476/3 226/477/3
f 231/478/25 230/479/25 229/480/25
f 225/481/1 232/482/1 231/483/1
f 229/484/26 225/485/26 231/486/26
f 234/487/24 236/488/24 233/489/24
f 238/490/1 233/491/1 237/492/1
f 240/493/25 237/494/25 239/495/25
f 235/496/3 239/497/3 236/498/3
f 238/499/26 235/500/26 234/501/26
f 233/502/27 239/503/27 237/504/27
f 242/505/24 244/506/24 241/507/24
f 246/508/1 241/509/1 245/510/1
f 248/511/25 245/512/25 247/513/25
f 243/514/3 247/515/3 244/516/3
f 246/517/26 243/518/26 242/519/26
f 250/520/24 252/521/24 249/522/24
f 253/523/3 251/524/3 250/525/3
f 255/526/25 254/527/25 253/528/25
f 249/529/1 256/530/1 255/531/1
f 253/532/26 249/533/26 255/534/26
f 258/535/24 260/536/24 257/537/24
f 262/538/1 257/539/1 261/540/1
f 264/541/25 261/542/25 263/543/25
f 259/544/3 263/545/3 260/546/3
f 262/547/26 259/548/26 258/549/26
f 257/550/27 263/551/27 261/552/27
f 266/553/24 268/554/24 265/555/24
f 270/556/1 265/557/1 269/558/1
f 272/559/25 269/560/25 271/561/25
f 267/562/3 271/563/3 268/564/3
f 270/565/26 267/566/26 266/567/26
f 274/568/24 276/569/24 273/570/24
f 277/571/3 275/572/3 274/573/3
f 279/574/25 278/575/25 277/576/25
f 273/577/1 280/578/1 279/579/1
f 277/580/26 273/581/26 279/582/26
f 282/583/24 284/584/24 281/585/24
f 286/586/1 281/587/1 285/588/1
f 288/589/25 285/590/25 287/591/25
f 283/592/3 287/593/3 284/594/3
f 286/595/26 283/596/26 282/597/26
f 281/598/27 287/599/27 285/600/27
f 290/601/24 292/602/24 289/603/24
f 294/604/1 289/605/1 293/606/1
f 296/607/25 293/608/25 295/609/25
f 291/610/3 295/611/3 292/612/3
f 294/613/26 291/614/26 290/615/26
f 298/616/24 300/617/24 297/618/24
f 301/619/3 299/620/3 298/621/3
f 303/622/25 302/623/25 301/624/25
f 297/625/1 304/626/1 303/627/1
f 301/628/26 297/629/26 303/630/26
f 306/631/24 308/632/24 305/633/24
f 310/634/1 305/635/1 309/636/1
f 312/637/25 309/638/25 311/639/25
f 307/640/3 311/641/3 308/642/3
f 310/643/26 307/644/26 306/645/26
f 305/646/27 311/647/27 309/648/27
f 314/649/24 316/650/24 313/651/24
f 318/652/1 313/653/1 317/654/1
f 320/655/25 317/656/25 319/657/25
f 315/658/3 319/659/3 316/660/3
f 318/661/26 315/662/26 314/663/26
f 322/664/24 324/665/24 321/666/24
f 325/667/3 323/668/3 322/669/3
f 327/670/25 326/671/25 325/672/25
f 321/673/1 328/674/1 327/675/1
f 325/676/26 321/677/26 327/678/26
f 330/679/24 332/680/24 329/681/24
f 334/682/1 329/683/1 333/684/1
f 336/685/25 333/686/25 335/687/25
f 331/688/3 335/689/3 332/690/3
f 334/691/26 331/692/26 330/693/26
f 329/694/27 335/695/27 333/696/27
f 338/697/24 340/698/24 337/699/24
f 342/700/1 337/701/1 341/702/1
f 344/703/25 341/704/25 343/705/25
f 339/706/3 343/707/3 340/708/3
f 342/709/26 339/710/26 338/711/26
f 346/712/24 348/713/24 345/714/24
f 349/715/3 347/716/3 346/717/3
f 351/718/25 350/719/25 349/720/25
f 345/721/1 352/722/1 351/723/1
f 349/724/26 345/725/26 351/726/26
f 354/727/24 356/728/24 353/729/24
f 358/730/1 353/731/1 357/732/1
f 360/733/25 357/734/25 359/735/25
f 355/736/3 359/737/3 356/738/3
f 358/739/26 355/740/26 354/741/26
f 353/742/27 359/743/27 357/744/27
f 362/745/24 364/746/24 361/747/24
f 366/748/1 361/749/1 365/750/1
f 368/751/25 365/752/25 367/753/25
f 363/754/3 367/755/3 364/756/3
f 366/757/26 363/758/26 362/759/26
f 370/760/24 372/761/24 369/762/24
f 373/763/3 371/764/3 370/765/3
f 375/766/25 374/767/25 373/768/25
f 369/769/1 376/770/1 375/771/1
f 373/772/26 369/773/26 375/774/26
f 378/775/24 380/776/24 377/777/24
f 382/778/1 377/779/1 381/780/1
f 384/781/25 381/782/25 383/783/25
f 379/784/3 383/785/3 380/786/3
f 382/787/26 379/788/26 378/789/26
f 377/790/27 383/791/27 381/792/27
f 386/793/24 388/794/24 385/795/24
f 390/796/1 385/797/1 389/798/1
f 392/799/25 389/800/25 391/801/25
f 387/802/3 391/803/3 388/804/3
f 390/805/26 387/806/26 386/807/26
f 394/808/24 396/809/24 393/810/24
f 397/811/3 395/812/3 394/813/3
f 399/814/25 398/815/25 397/816/25
f 393/817/1 400/818/1 399/819/1
f 397/820/26 393/821/26 399/822/26
f 402/823/24 404/824/24 401/825/24
f 406/826/1 401/827/1 405/828/1
f 408/829/25 405/830/25 407/831/25
f 403/832/3 407/833/3 404/834/3
f 406/835/26 403/836/26 402/837/26
f 401/838/27 407/839/27 405/840/27
f 26/73/24 27/841/24 28/74/24
f 30/76/1 26/842/1 25/77/1
f 32/79/25 30/843/25 29/80/25
f 27/82/3 32/844/3 31/83/3
f 30/85/26 32/845/26 27/86/26
f 34/88/24 35/846/24 36/89/24
f 37/91/3 38/847/3 35/92/3
f 39/94/25 40/848/25 38/95/25
f 33/97/1 36/849/1 40/98/1
f 37/100/26 34/850/26 33/101/26
f 42/103/24 43/851/24 44/104/24
f 46/106/1 42/852/1 41/107/1
f 48/109/25 46/853/25 45/110/25
f 43/112/3 48/854/3 47/113/3
f 46/115/26 48/855/26 43/116/26
f 41/118/27 44/856/27 47/119/27
f 50/121/24 51/857/24 52/122/24
f 54/124/1 50/858/1 49/125/1
f 56/127/25 54/859/25 53/128/25
f 51/130/3 56/860/3 55/131/3
f 54/133/26 56/861/26 51/134/26
f 58/136/24 59/862/24 60/137/24
f 61/139/3 62/863/3 59/140/3
f 63/142/25 64/864/25 62/143/25
f 57/145/1 60/865/1 64/146/1
f 61/148/26 58/866/26 57/149/26
f 66/151/24 67/867/24 68/152/24
f 70/154/1 66/868/1 65/155/1
f 72/157/25 70/869/25 69/158/25
f 67/160/3 72/870/3 71/161/3
f 70/163/26 72/871/26 67/164/26
f 65/166/27 68/872/27 71/167/27
f 74/169/24 75/873/24 76/170/24
f 78/172/1 74/874/1 73/173/1
f 80/175/25 78/875/25 77/176/25
f 75/178/3 80/876/3 79/179/3
f 78/181/26 80/877/26 75/182/26
f 82/184/24 83/878/24 84/185/24
f 85/187/3 86/879/3 83/188/3
f 87/190/25 88/880/25 86/191/25
f 81/193/1 84/881/1 88/194/1
f 85/196/26 82/882/26 81/197/26
f 90/199/24 91/883/24 92/200/24
f 94/202/1 90/884/1 89/203/1
f 96/205/25 94/885/25 93/206/25
f 91/208/3 96/886/3 95/209/3
f 94/211/26 96/887/26 91/212/26
f 89/214/27 92/888/27 95/215/27
f 98/217/24 99/889/24 100/218/24
f 102/220/1 98/890/1 97/221/1
f 104/223/25 102/891/25 101/224/25
f 99/226/3 104/892/3 103/227/3
f 102/229/26 104/893/26 99/230/26
f 106/232/24 107/894/24 108/233/24
f 109/235/3 110/895/3 107/236/3
f 111/238/25 112/896/25 110/239/25
f 105/241/1 108/897/1 112/242/1
f 109/244/26 106/898/26 105/245/26
f 114/247/24 115/899/24 116/248/24
f 118/250/1 114/900/1 113/251/1
f 120/253/25 118/901/25 117/254/25
f 115/256/3 120/902/3 119/257/3
f 118/259/26 120/903/26 115/260/26
f 113/262/27 116/904/27 119/263/27
f 122/265/24 123/905/24 124/266/24
f 126/268/1 122/906/1 121/269/1
f 128/271/25 126/907/25 125/272/25
f 123/274/3 128/908/3 127/275/3
f 126/277/26 128/909/26 123/278/26
f 130/280/24 131/910/24 132/281/24
f 133/283/3 134/911/3 131/284/3
f 135/286/25 136/912/25 134/287/25
f 129/289/1 132/913/1 136/290/1
f 133/292/26 130/914/26 129/293/26
f 138/295/24 139/915/24 140/296/24
f 142/298/1 138/916/1 137/299/1
f 144/301/25 142/917/25 141/302/25
f 139/304/3 144/918/3 143/305/3
f 142/307/26 144/919/26 139/308/26
f 137/310/27 140/920/27 143/311/27
f 146/313/24 147/921/24 148/314/24
f 150/316/1 146/922/1 145/317/1
f 152/319/25 150/923/25 149/320/25
f 147/322/3 152/924/3 151/323/3
f 150/325/26 152/925/26 147/326/26
f 154/328/24 155/926/24 156/329/24
f 157/331/3 158/927/3 155/332/3
f 159/334/25 160/928/25 158/335/25
f 153/337/1 156/929/1 160/338/1
f 157/340/26 154/930/26 153/341/26
f 162/343/24 163/931/24 164/344/24
f 166/346/1 162/932/1 161/347/1
f 168/349/25 166/933/25 165/350/25
f 163/352/3 168/934/3 167/353/3
f 166/355/26 168/935/26 163/356/26
f 161/358/27 164/936/27 167/359/27
f 170/361/24 171/937/24 172/362/24
f 174/364/1 170/938/1 169/365/1
f 176/367/25 174/939/25 173/368/25
f 171/370/3 176/940/3 175/371/3
f 174/373/26 176/941/26 171/374/26
f 178/376/24 179/942/24 180/377/24
f 181/379/3 182/943/3 179/380/3
f 183/382/25 184/944/25 182/383/25
f 177/385/1 180/945/1 184/386/1
f 181/388/26 178/946/26 177/389/26
f 186/391/24 187/947/24 188/392/24
f 190/394/1 186/948/1 185/395/1
f 192/397/25 190/949/25 189/398/25
f 187/400/3 192/950/3 191/401/3
f 190/403/26 192/951/26 187/404/26
f 185/406/27 188/952/27 191/407/27
f 194/409/24 195/953/24 196/410/24
f 198/412/1 194/954/1 193/413/1
f 200/415/25 198/955/25 197/416/25
f 195/418/3 200/956/3 199/419/3
f 198/421/26 200/957/26 195/422/26
f 202/424/24 203/958/24 204/425/24
f 205/427/3 206/959/3 203/428/3
f 207/430/25 208/960/25 206/431/25
f 201/433/1 204/961/1 208/434/1
f 205/436/26 202/962/26 201/437/26
f 210/439/24 211/963/24 212/440/24
f 214/442/1 210/964/1 209/443/1
f 216/445/25 214/965/25 213/446/25
f 211/448/3 216/966/3 215/449/3
f 214/451/26 216/967/26 211/452/26
f 209/454/27 212/968/27 215/455/27
f 218/457/24 219/969/24 220/458/24
f 222/460/1 218/970/1 217/461/1
f 224/463/25 222/971/25 221/464/25
f 219/466/3 224/972/3 223/467/3
f 222/469/26 224/973/26 219/470/26
f 226/472/24 227/974/24 228/473/24
f 229/475/3 230/975/3 227/476/3
f 231/478/25 232/976/25 230/479/25
f 225/481/1 228/977/1 232/482/1
f 229/484/26 226/978/26 225/485/26
f 234/487/24 235/979/24 236/488/24
f 238/490/1 234/980/1 233/491/1
f 240/493/25 238/981/25 237/494/25
f 235/496/3 240/982/3 239/497/3
f 238/499/26 240/983/26 235/500/26
f 233/502/27 236/984/27 239/503/27
f 242/505/24 243/985/24 244/506/24
f 246/508/1 242/986/1 241/509/1
f 248/511/25 246/987/25 245/512/25
f 243/514/3 248/988/3 247/515/3
f 246/517/26 248/989/26 243/518/26
f 250/520/24 251/990/24 252/521/24
f 253/523/3 254/991/3 251/524/3
f 255/526/25 256/992/25 254/527/25
f 249/529/1 252/993/1 256/530/1
f 253/532/26 250/994/26 249/533/26
f 258/535/24 259/995/24 260/536/24
f 262/538/1 258/996/1 257/539/1
f 264/541/25 262/997/25 261/542/25
f 259/544/3 264/998/3 263/545/3
f 262/547/26 264/999/26 259/548/26
f 257/550/27 260/1000/27 263/551/27
f 266/553/24 267/1001/24 268/554/24
f 270/556/1 266/1002/1 265/557/1
f 272/559/25 270/1003/25 269/560/25
f 267/562/3 272/1004/3 271/563/3
f 270/565/26 272/1005/26 267/566/26
f 274/568/24 275/1006/24 276/569/24
f 277/571/3 278/1007/3 275/572/3
f 279/574/25 280/1008/25 278/575/25
f 273/577/1 276/1009/1 280/578/1
f 277/580/26 274/1010/26 273/581/26
f 282/583/24 283/1011/24 284/584/24
f 286/586/1 282/1012/1 281/587/1
f 288/589/25 286/1013/25 285/590/25
f 283/592/3 288/1014/3 287/593/3
f 286/595/26 288/1015/26 283/596/26
f 281/598/27 284/1016/27 287/599/27
f 290/601/24 291/1017/24 292/602/24
f 294/604/1 290/1018/1 289/605/1
f 296/607/25 294/1019/25 293/608/25
f 291/610/3 296/1020/3 295/611/3
f 294/613/26 296/1021/26 291/614/26
f 298/616/24 299/1022/24 300/617/24
f 301/619/3 302/1023/3 299/620/3
f 303/622/25 304/1024/25 302/623/25
f 297/625/1 300/1025/1 304/626/1
f 301/628/26 298/1026/26 297/629/26
f 306/631/24 307/1027/24 308/632/24
f 310/634/1 306/1028/1 305/635/1
f 312/637/25 310/1029/25 309/638/25
f 307/640/3 312/1030/3 311/641/3
f 310/643/26 312/1031/26 307/644/26
f 305/646/27 308/1032/27 311/647/27
f 314/649/24 315/1033/24 316/650/24
f 318/652/1 314/1034/1 313/653/1
f 320/655/25 318/1035/25 317/656/25
f 315/658/3 320/1036/3 319/659/3
f 318/661/26 320/1037/26 315/662/26
f 322/664/24 323/1038/24 324/665/24
f 325/667/3 326/1039/3 323/668/3
f 327/670/25 328/1040/25 326/671/25
f 321/673/1 324/1041/1 328/674/1
f 325/676/26 322/1042/26 321/677/26
f 330/679/24 331/1043/24 332/680/24
f 334/682/1 330/1044/1 329/683/1
f 336/685/25 334/1045/25 333/686/25
f 331/688/3 336/1046/3 335/689/3
f 334/691/26 336/1047/26 331/692/26
f 329/694/27 332/1048/27 335/695/27
f 338/697/24 339/1049/24 340/698/24
f 342/700/1 338/1050/1 337/701/1
f 344/703/25 342/1051/25 341/704/25
f 339/706/3 344/1052/3 343/707/3
f 342/709/26 344/1053/26 339/710/26
f 346/712/24 347/1054/24 348/713/24
f 349/715/3 350/1055/3 347/716/3
f 351/718/25 352/1056/25 350/719/25
f 345/721/1 348/1057/1 352/722/1
f 349/724/26 346/1058/26 345/725/26
f 354/727/24 355/1059/24 356/728/24
f 358/730/1 354/1060/1 353/731/1
f 360/733/25 358/1061/25 357/734/25
f 355/736/3 360/1062/3 359/737/3
f 358/739/26 360/1063/26 355/740/26
f 353/742/27 356/1064/27 359/743/27
f 362/745/24 363/1065/24 364/746/24
f 366/748/1 362/1066/1 361/749/1
f 368/751/25 366/1067/25 365/752/25
f 363/754/3 368/1068/3 367/755/3
f 366/757/26 368/1069/26 363/758/26
f 370/760/24 371/1070/24 372/761/24
f 373/763/3 374/1071/3 371/764/3
f 375/766/25 376/1072/25 374/767/25
f 369/769/1 372/1073/1 376/770/1
f 373/772/26 370/1074/26 369/773/26
f 378/775/24 379/1075/24 380/776/24
f 382/778/1 378/1076/1 377/779/1
f 384/781/25 382/1077/25 381/782/25
f 379/784/3 384/1078/3 383/785/3
f 382/787/26 384/1079/26 379/788/26
f 377/790/27 380/1080/27 383/791/27
f 386/793/24 387/1081/24 388/794/24
f 390/796/1 386/1082/1 385/797/1
f 392/799/25 390/1083/25 389/800/25
f 387/802/3 392/1084/3 391/803/3
f 390/805/26 392/1085/26 387/806/26
f 394/808/24 395/1086/24 396/809/24
f 397/811/3 398/1087/3 395/812/3
f 399/814/25 400/1088/25 398/815/25
f 393/817/1 396/1089/1 400/818/1
f 397/820/26 394/1090/26 393/821/26
f 402/823/24 403/1091/24 404/824/24
f 406/826/1 402/1092/1 401/827/1
f 408/829/25 406/1093/25 405/830/25
f 403/832/3 408/1094/3 407/833/3
f 406/835/26 408/1095/26 403/836/26
f 401/838/27 404/1096/27 407/839/27
f 412/1097/3 423/1098/3 419/1099/3
f 416/1100/2 425/1101/2 421/1102/2
f 414/1103/1 432/1104/1 431/1105/1
f 410/1106/3 429/1107/3 411/1108/3
f 420/1109/4 423/1110/14 426/1111/14
f 421/1112/1 417/1113/1 416/1114/1
f 413/1115/7 427/1116/17 432/1117/17
f 418/1118/4 422/1119/14 424/1120/14
f 425/1121/3 420/1122/3 426/1123/3
f 430/1124/14 414/1125/28 431/1126/14
f 412/1127/7 429/1128/17 428/1129/17
f 414/1130/22 410/1131/22 412/1132/22
f 423/1133/12 427/1134/12 424/1135/12
f 409/1136/1 424/1137/1 427/1138/1
f 412/1097/3 428/1139/3 423/1098/3
f 416/1100/2 415/1140/2 425/1101/2
f 414/1103/1 413/1141/1 432/1104/1
f 410/1106/3 430/1142/3 429/1107/3
f 420/1109/4 419/1143/4 423/1110/14
f 421/1112/1 422/1144/1 417/1113/1
f 413/1115/7 409/1145/7 427/1116/17
f 418/1118/4 417/1146/4 422/1119/14
f 425/1121/3 415/1147/3 420/1122/3
f 430/1124/14 410/1148/28 414/1125/28
f 412/1127/7 411/1149/7 429/1128/17
f 419/1150/11 420/1151/11 415/1152/11
f 415/1152/11 416/1153/11 418/1154/11
f 416/1153/11 417/1155/11 418/1154/11
f 419/1150/11 415/1152/11 418/1154/11
f 409/1156/22 413/1157/22 414/1130/22
f 419/1150/11 418/1154/11 412/1132/11
f 418/1154/11 409/1156/11 412/1132/11
f 410/1131/22 411/1158/22 412/1132/22
f 409/1156/22 414/1130/22 412/1132/22
f 422/1159/12 421/1160/12 424/1135/12
f 421/1160/12 425/1161/12 424/1135/12
f 425/1161/12 426/1162/12 423/1133/12
f 428/1163/23 429/1164/23 430/1165/23
f 428/1163/23 430/1165/23 431/1166/23
f 431/1166/23 432/1167/23 427/1134/23
f 428/1163/23 431/1166/23 427/1134/23
f 424/1135/12 425/1161/12 423/1133/12
f 423/1133/12 428/1163/12 427/1134/12
f 409/1136/1 418/1168/1 424/1137/1
