# Blender v3.1.2 OBJ File: '1x3 diag slope.blend'
# www.blender.org
mtllib 1x3_ballast.mtl
o slope_ballast_Plane.001
v -3.500000 1.000000 -2.500000
v 0.500000 0.000000 -0.500000
v -2.500000 1.000000 -3.500000
v -0.500000 0.000000 0.500000
v -3.500000 0.000000 -2.500000
v -2.500000 0.000000 -3.500000
v -3.000000 1.000000 -4.000000
v -3.000000 0.000000 -4.000000
v -3.000000 1.000000 -3.000000
v -3.000000 0.000000 -3.000000
v -4.000000 1.000000 -3.000000
v -4.000000 0.000000 -3.000000
v -0.250000 0.250000 -1.250000
v -1.000000 0.500000 -2.000000
v -1.750000 0.750000 -2.750000
v -0.250000 0.000000 -1.250000
v -1.000000 0.000000 -2.000000
v -1.750000 0.000000 -2.750000
v -1.250000 0.250000 -0.250000
v -2.000000 0.500000 -1.000000
v -2.750000 0.750000 -1.750000
v -1.250000 0.000000 -0.250000
v -2.000000 0.000000 -1.000000
v -2.750000 0.000000 -1.750000
vt 0.179997 0.250000
vt 0.179997 0.000000
vt 1.239997 0.000000
vt 0.820000 0.250000
vt -0.240000 0.000000
vt 0.820000 0.000000
vt 0.000000 1.000000
vt 0.000000 0.000000
vt 0.707000 0.000000
vt 0.000000 0.000000
vt 1.000000 1.000000
vt 0.000000 1.000000
vt 0.000000 1.000000
vt 0.000000 0.000000
vt 1.000000 0.000000
vt 1.000000 0.000000
vt 1.000000 1.000000
vt 0.293000 0.000000
vt -0.410000 0.707003
vt -0.410000 0.000003
vt 0.293000 0.000003
vt 1.000000 0.707003
vt 1.000000 0.000003
vt 0.707000 1.000000
vt 1.000000 0.000000
vt 1.000000 1.000000
vt 0.293000 1.000000
vt 1.000000 0.000000
vt 1.000000 1.000000
vt -0.060000 0.750000
vt 0.940000 0.000000
vt 0.940000 0.750000
vt -0.120000 0.500000
vt 0.880000 0.000000
vt 0.880000 0.500000
vt -0.180000 0.250000
vt 1.060000 0.750000
vt 0.000000 1.000000
vt 0.000000 0.000000
vt 1.120000 0.500000
vt 0.060000 0.750000
vt 0.060000 0.000000
vt 1.180000 0.250000
vt 0.120000 0.500000
vt 0.120000 0.000000
vt 1.000000 -0.360000
vt 1.000000 0.730000
vt -0.410000 0.730000
vt 1.000000 -0.270000
vt 1.000000 0.820000
vt -0.410000 0.820000
vt 1.000000 -0.180000
vt 1.000000 0.910000
vt -0.410000 0.910000
vt 1.000000 -0.090000
vt -0.410000 1.000000
vt -0.060000 0.000000
vt -0.120000 0.000000
vt -0.180000 0.000000
vt 1.060000 0.000000
vt 1.120000 0.000000
vt 1.180000 0.000000
vt -0.410000 -0.360000
vt -0.410000 -0.270000
vt -0.410000 -0.180000
vt -0.410000 -0.090000
vn -0.7071 0.0000 0.7071
vn 0.7071 0.0000 -0.7071
vn -1.0000 0.0000 0.0000
vn 0.0000 0.0000 -1.0000
vn 0.0000 1.0000 0.0000
vn 0.1622 0.9733 0.1622
usemtl Material.001
s off
f 19/1/1 22/2/1 4/3/1
f 13/4/2 2/5/2 16/6/2
f 3/7/2 6/8/2 8/9/2
f 8/10/3 9/11/3 7/12/3
f 9/13/4 10/14/4 12/15/4
f 5/16/1 1/17/1 12/18/1
f 11/19/5 1/20/5 9/21/5
f 7/22/5 9/21/5 3/23/5
f 3/7/2 8/9/2 7/24/2
f 9/11/3 8/10/3 10/25/3
f 9/13/4 12/15/4 11/26/4
f 12/18/1 1/17/1 11/27/1
f 6/28/2 3/29/2 15/30/2
f 18/31/2 15/32/2 14/33/2
f 17/34/2 14/35/2 13/36/2
f 21/37/1 1/38/1 5/39/1
f 20/40/1 21/41/1 24/42/1
f 19/43/1 20/44/1 23/45/1
f 2/46/6 13/47/6 19/48/6
f 13/49/6 14/50/6 20/51/6
f 14/52/6 15/53/6 21/54/6
f 15/55/6 3/29/6 1/56/6
f 6/28/2 15/30/2 18/57/2
f 18/31/2 14/33/2 17/58/2
f 17/34/2 13/36/2 16/59/2
f 21/37/1 5/39/1 24/60/1
f 20/40/1 24/42/1 23/61/1
f 19/43/1 23/45/1 22/62/1
f 2/46/6 19/48/6 4/63/6
f 13/49/6 20/51/6 19/64/6
f 14/52/6 21/54/6 20/65/6
f 21/66/6 15/55/6 1/56/6
