# Blender v3.1.2 OBJ File: '1x6 diag slope.blend'
# www.blender.org
mtllib 1x6_ballast.mtl
o ballast_normal_Plane.010
v -5.999999 1.000000 -7.000001
v -5.999999 1.000000 -6.000001
v -6.999999 1.000000 -6.000001
v -5.999999 0.000000 -7.000001
v -6.999999 0.000000 -6.000001
v -5.999999 0.000000 -6.000001
v -5.500001 1.000000 -6.500001
v 0.500000 0.000000 -0.500000
v -6.500001 1.000000 -5.500001
v -0.500000 0.000000 0.500000
v -4.833334 0.888889 -5.833334
v -4.166667 0.777778 -5.166667
v -3.500001 0.666667 -4.500000
v -2.833334 0.555556 -3.833333
v -2.166667 0.444444 -3.166667
v -1.500000 0.333333 -2.500000
v -0.833333 0.222222 -1.833333
v -0.166667 0.111111 -1.166667
v -5.833334 0.888889 -4.833334
v -5.166668 0.777778 -4.166667
v -4.500001 0.666667 -3.500001
v -3.833334 0.555556 -2.833334
v -3.166667 0.444444 -2.166667
v -2.500000 0.333333 -1.500000
v -1.833334 0.222222 -0.833334
v -1.166667 0.111111 -0.166667
v -5.999999 1.000000 -7.000001
v -5.999999 1.000000 -6.000001
v -6.999999 1.000000 -6.000001
v -5.500001 1.000000 -6.500001
v 0.500000 0.000000 -0.500000
v -6.500001 1.000000 -5.500001
v -0.500000 0.000000 0.500000
v -1.166667 0.000000 -0.166667
v -4.833334 0.888889 -5.833334
v -4.166667 0.777778 -5.166667
v -3.500001 0.666667 -4.500000
v -2.833334 0.555556 -3.833333
v -2.166667 0.444444 -3.166667
v -1.500000 0.333333 -2.500000
v -0.833333 0.222222 -1.833333
v -0.166667 0.111111 -1.166667
v -5.833334 0.888889 -4.833334
v -5.166668 0.777778 -4.166667
v -4.500001 0.666667 -3.500001
v -3.833334 0.555556 -2.833334
v -3.166667 0.444444 -2.166667
v -2.500000 0.333333 -1.500000
v -1.833334 0.222222 -0.833334
v -1.166667 0.111111 -0.166667
v -0.166667 0.000000 -1.166667
v -0.833333 0.000000 -1.833333
v -1.500000 0.000000 -2.500000
v -2.166667 0.000000 -3.166667
v -2.833334 0.000000 -3.833333
v -3.500001 0.000000 -4.500000
v -4.166667 0.000000 -5.166667
v -4.833334 0.000000 -5.833334
v -1.833334 0.000000 -0.833334
v -2.500000 0.000000 -1.500000
v -3.166667 0.000000 -2.166667
v -3.833334 0.000000 -2.833334
v -4.500001 0.000000 -3.500001
v -5.166668 0.000000 -4.166667
v -5.833334 0.000000 -4.833334
v -6.500001 0.000000 -5.500001
v -5.500001 0.000000 -6.500001
v -5.999999 0.000000 -7.000000
v -6.999999 0.000000 -6.000000
v -6.999999 1.000000 -6.000000
v -5.999999 1.000000 -7.000001
vt 0.000000 0.000000
vt 1.000000 1.000000
vt 0.000000 1.000000
vt 1.000000 0.000000
vt 1.000000 1.000000
vt 0.000000 1.000000
vt 1.000000 0.000000
vt 0.000000 0.000000
vt 0.000000 -0.408000
vt 1.410000 -0.408000
vt 1.410000 0.541000
vt 1.410000 0.592000
vt 0.000000 -0.357000
vt 1.410000 -0.357000
vt 0.000000 -0.306000
vt 1.410000 -0.306000
vt 1.410000 0.643000
vt 0.000000 -0.255000
vt 1.410000 -0.255000
vt 1.410000 0.694000
vt 0.000000 -0.204000
vt 1.410000 -0.204000
vt 1.410000 0.745000
vt 0.000000 -0.153000
vt 1.410000 -0.153000
vt 1.410000 0.796000
vt 0.000000 -0.102000
vt 1.410000 -0.102000
vt 1.410000 0.847000
vt 0.000000 -0.051000
vt 1.410000 -0.051000
vt 1.410000 0.898000
vt 0.000000 0.000000
vt 1.410000 0.000000
vt 1.410000 0.949000
vt 0.000000 0.541000
vt 0.000000 0.592000
vt 0.000000 0.643000
vt 0.000000 0.694000
vt 0.000000 0.745000
vt 0.000000 0.796000
vt 0.000000 0.847000
vt 0.000000 0.898000
vt 0.000000 0.949000
vt 0.000000 0.248000
vt 0.000000 -0.459000
vt 0.705000 -0.459000
vt 1.410000 0.248000
vt 1.410000 -0.459000
vt -0.057003 0.111000
vt 0.885997 0.000000
vt 0.885997 0.222000
vt -0.171003 0.333000
vt 0.771997 0.000000
vt 0.771997 0.444000
vt -0.342000 0.667000
vt 0.601000 0.000000
vt 0.601000 0.778000
vt 0.487000 0.000000
vt -0.456000 0.000000
vt -0.456000 0.889000
vt -0.399000 0.778000
vt 0.544000 0.889000
vt 0.544000 0.000000
vt -0.171003 0.333000
vt 0.771997 0.444000
vt 0.771997 0.000000
vt -0.342000 0.667000
vt 0.601000 0.778000
vt 0.601000 0.000000
vt -0.228003 0.444000
vt 0.714997 0.556000
vt 0.714997 0.000000
vt 0.487000 1.000000
vt -0.342000 0.000000
vt -0.399000 0.778000
vt -0.399000 0.000000
vt 0.544000 0.000000
vt -0.114003 0.222000
vt 0.828997 0.000000
vt -0.114003 0.000000
vt -0.057003 0.111000
vt 0.885997 0.000000
vt -0.057003 0.000000
vt -0.342000 0.000000
vt -0.456000 0.889000
vt -0.456000 0.000000
vt 0.487000 0.000000
vt -0.171003 0.000000
vt -0.399000 0.000000
vt -0.285003 0.556000
vt 0.657997 0.000000
vt 0.657997 0.667000
vt -0.114003 0.222000
vt 0.828997 0.000000
vt 0.828997 0.333000
vt 0.544000 0.889000
vt 0.000000 0.000000
vt 0.943000 0.111000
vt 0.943000 0.000000
vt 0.828997 0.333000
vt -0.285003 0.556000
vt 0.657997 0.667000
vt 0.657997 0.000000
vt 0.885997 0.222000
vt -0.171003 0.000000
vt -0.114003 0.000000
vt 0.487000 1.000000
vt 0.943000 0.111000
vt 0.000000 0.000000
vt 0.943000 0.000000
vt -0.228003 0.000000
vt -0.285003 0.000000
vt -0.057003 0.000000
vt -0.228004 0.444000
vt -0.228004 0.000000
vt 0.714997 0.000000
vt -0.285003 0.000000
vt 0.714997 0.556000
vt 1.194000 0.000000
vt 1.194000 1.000000
vt 1.194000 0.000000
vt 1.194000 1.000000
vn -1.0000 0.0000 0.0000
vn 0.0000 0.0000 -1.0000
vn 0.0828 0.9931 0.0828
vn 0.0000 1.0000 0.0000
vn 0.7071 0.0000 -0.7071
vn -0.7071 0.0000 0.7071
usemtl Material.002
s off
f 4/1/1 2/2/1 1/3/1
f 6/4/1 2/2/1 4/1/1
f 3/5/2 2/6/2 5/7/2
f 6/8/2 5/7/2 2/6/2
f 19/9/3 11/10/3 7/11/3
f 11/12/3 20/13/3 12/14/3
f 21/15/3 13/16/3 12/17/3
f 22/18/3 14/19/3 13/20/3
f 23/21/3 15/22/3 14/23/3
f 24/24/3 16/25/3 15/26/3
f 25/27/3 17/28/3 16/29/3
f 26/30/3 18/31/3 17/32/3
f 10/33/3 8/34/3 18/35/3
f 19/9/3 7/11/3 9/36/3
f 19/37/3 20/13/3 11/12/3
f 21/15/3 12/17/3 20/38/3
f 22/18/3 13/20/3 21/39/3
f 23/21/3 14/23/3 22/40/3
f 24/24/3 15/26/3 23/41/3
f 25/27/3 16/29/3 24/42/3
f 26/30/3 17/32/3 25/43/3
f 10/33/3 18/35/3 26/44/3
f 29/45/4 9/46/4 28/47/4
f 27/48/4 28/47/4 7/49/4
f 42/50/5 52/51/5 41/52/5
f 40/53/5 54/54/5 39/55/5
f 37/56/5 57/57/5 36/58/5
f 66/59/6 65/60/6 43/61/6
f 44/62/6 43/63/6 65/64/6
f 48/65/6 47/66/6 61/67/6
f 45/68/6 44/69/6 64/70/6
f 47/71/6 46/72/6 62/73/6
f 66/59/6 43/61/6 32/74/6
f 37/56/5 56/75/5 57/57/5
f 36/76/5 57/77/5 58/78/5
f 49/79/6 60/80/6 59/81/6
f 50/82/6 59/83/6 34/84/6
f 45/68/6 64/70/6 63/85/6
f 35/86/5 58/87/5 67/88/5
f 40/53/5 53/89/5 54/54/5
f 44/62/6 65/64/6 64/90/6
f 38/91/5 56/92/5 37/93/5
f 41/94/5 53/95/5 40/96/5
f 36/76/5 58/78/5 35/97/5
f 33/98/6 50/99/6 34/100/6
f 49/79/6 48/101/6 60/80/6
f 46/102/6 45/103/6 63/104/6
f 50/82/6 49/105/6 59/83/6
f 48/65/6 61/67/6 60/106/6
f 41/94/5 52/107/5 53/95/5
f 35/86/5 67/88/5 30/108/5
f 42/109/5 31/110/5 51/111/5
f 47/71/6 62/73/6 61/112/6
f 38/91/5 55/113/5 56/92/5
f 42/50/5 51/114/5 52/51/5
f 39/115/5 54/116/5 55/117/5
f 46/102/6 63/104/6 62/118/6
f 39/115/5 55/117/5 38/119/5
f 67/88/5 68/120/5 30/108/5
f 68/120/5 71/121/5 30/108/5
f 69/122/6 32/74/6 70/123/6
f 32/74/6 69/122/6 66/59/6
