# Blender v3.1.2 OBJ File: ''
# www.blender.org
mtllib hayes buffer no track.mtl
o track_normal.001
v 0.271841 -0.016399 0.292147
v 0.090571 0.479743 0.248741
v 0.090571 0.472770 0.169045
v 0.271841 -0.023372 0.212452
v 0.128159 0.486399 0.167853
v 0.309429 -0.009743 0.211259
v 0.128159 0.493372 0.247548
v 0.309429 -0.002770 0.290955
v -0.306562 -0.003762 0.292147
v -0.126510 0.492824 0.248741
v -0.130992 0.487482 0.169045
v -0.311044 -0.009103 0.212452
v -0.093438 0.473762 0.167853
v -0.273490 -0.022824 0.211259
v -0.088956 0.479103 0.247548
v -0.269008 -0.017482 0.290955
v 0.040000 0.390000 0.160000
v 0.040000 0.470000 0.160000
v 0.200000 0.130000 -0.300000
v 0.200000 0.050000 -0.300000
v 0.160000 0.130000 -0.300000
v 0.160000 0.150000 -0.300000
v 0.160000 0.150000 -0.320000
v 0.160000 0.130000 -0.320000
v 0.260000 0.050000 -0.300000
v 0.260000 0.130000 -0.300000
v 0.100000 0.470000 0.160000
v 0.100000 0.390000 0.160000
v 0.200000 0.150000 -0.300000
v 0.260000 0.150000 -0.300000
v 0.260000 0.150000 -0.320000
v 0.200000 0.150000 -0.320000
v 0.000000 0.470000 0.160000
v 0.200000 0.030000 -0.300000
v 0.260000 0.030000 -0.300000
v 0.100000 0.370000 0.160000
v 0.040000 0.370000 0.160000
v 0.040000 0.490000 0.160000
v 0.000000 0.490000 0.160000
v 0.100000 0.490000 0.160000
v 0.140000 0.490000 0.160000
v 0.300000 0.150000 -0.300000
v 0.140000 0.470000 0.160000
v 0.300000 0.050000 -0.300000
v 0.140000 0.390000 0.160000
v 0.140000 0.370000 0.160000
v 0.300000 0.030000 -0.300000
v 0.300000 0.130000 -0.300000
v 0.200000 0.030000 -0.320000
v 0.260000 0.030000 -0.320000
v 0.300000 0.130000 -0.320000
v 0.300000 0.150000 -0.320000
v 0.000000 0.390000 0.160000
v 0.160000 0.050000 -0.300000
v 0.160000 0.030000 -0.300000
v 0.000000 0.370000 0.160000
v 0.300000 0.030000 -0.320000
v 0.200000 0.050000 -0.320000
v 0.200000 0.130000 -0.320000
v 0.260000 0.130000 -0.320000
v 0.260000 0.050000 -0.320000
v 0.300000 0.050000 -0.320000
v 0.160000 0.030000 -0.320000
v 0.160000 0.050000 -0.320000
v -0.100000 0.390000 0.160000
v -0.100000 0.470000 0.160000
v -0.260000 0.130000 -0.300000
v -0.260000 0.050000 -0.300000
v -0.300000 0.130000 -0.300000
v -0.300000 0.150000 -0.300000
v -0.300000 0.150000 -0.320000
v -0.300000 0.130000 -0.320000
v -0.200000 0.050000 -0.300000
v -0.200000 0.130000 -0.300000
v -0.040000 0.470000 0.160000
v -0.040000 0.390000 0.160000
v -0.260000 0.150000 -0.300000
v -0.200000 0.150000 -0.300000
v -0.200000 0.150000 -0.320000
v -0.260000 0.150000 -0.320000
v -0.140000 0.470000 0.160000
v -0.260000 0.030000 -0.300000
v -0.200000 0.030000 -0.300000
v -0.040000 0.370000 0.160000
v -0.100000 0.370000 0.160000
v -0.100000 0.490000 0.160000
v -0.140000 0.490000 0.160000
v -0.040000 0.490000 0.160000
v 0.000000 0.490000 0.160000
v -0.160000 0.150000 -0.300000
v 0.000000 0.470000 0.160000
v -0.160000 0.050000 -0.300000
v 0.000000 0.390000 0.160000
v 0.000000 0.370000 0.160000
v -0.160000 0.030000 -0.300000
v -0.160000 0.130000 -0.300000
v -0.260000 0.030000 -0.320000
v -0.200000 0.030000 -0.320000
v -0.160000 0.130000 -0.320000
v -0.160000 0.150000 -0.320000
v -0.140000 0.390000 0.160000
v -0.300000 0.050000 -0.300000
v -0.300000 0.030000 -0.300000
v -0.140000 0.370000 0.160000
v -0.160000 0.030000 -0.320000
v -0.260000 0.050000 -0.320000
v -0.260000 0.130000 -0.320000
v -0.200000 0.130000 -0.320000
v -0.200000 0.050000 -0.320000
v -0.160000 0.050000 -0.320000
v -0.300000 0.030000 -0.320000
v -0.300000 0.050000 -0.320000
v -0.110000 0.360000 0.260000
v -0.110000 0.500000 0.260000
v -0.110000 0.500000 0.150000
v -0.110000 0.360000 0.150000
v 0.110000 0.500000 0.150000
v 0.110000 0.360000 0.150000
v 0.110000 0.500000 0.260000
v 0.110000 0.360000 0.260000
v 0.090000 0.480000 0.280000
v 0.090000 0.380000 0.280000
v 0.090000 0.380000 0.260000
v 0.090000 0.480000 0.260000
v -0.110000 0.360000 0.300000
v -0.110000 0.500000 0.300000
v -0.110000 0.500000 0.280000
v -0.110000 0.360000 0.280000
v -0.090000 0.480000 0.280000
v -0.090000 0.480000 0.260000
v 0.110000 0.360000 0.280000
v 0.110000 0.500000 0.280000
v 0.110000 0.500000 0.300000
v 0.110000 0.360000 0.300000
v -0.090000 0.380000 0.260000
v -0.090000 0.380000 0.280000
vt 0.564304 0.379954
vt 0.511020 0.379954
vt 0.511020 0.244322
vt 0.832430 0.223290
vt 0.842118 0.223290
vt 0.842118 0.320170
vt 0.713616 0.609973
vt 0.690304 0.609973
vt 0.690304 0.563350
vt 0.713616 0.656597
vt 0.690304 0.656597
vt 0.690304 0.563350
vt 0.632119 0.031184
vt 0.632119 0.244320
vt 0.564304 0.244322
vt 0.743364 0.853966
vt 0.743364 0.815214
vt 0.753052 0.815214
vt 0.791803 0.853964
vt 0.801491 0.853964
vt 0.801491 0.912092
vt 0.801491 0.950844
vt 0.791803 0.950844
vt 0.791803 0.912092
vt 0.753052 0.912093
vt 0.690304 0.563350
vt 0.713616 0.563350
vt 0.713616 0.656597
vt 0.743364 0.912094
vt 0.690304 0.330232
vt 0.713616 0.330232
vt 0.713616 0.423479
vt 0.824552 0.686324
vt 0.843928 0.686323
vt 0.843928 0.763826
vt 0.713616 0.563350
vt 0.690304 0.376856
vt 0.843928 0.686320
vt 0.824552 0.686321
vt 0.824552 0.608818
vt 0.690304 0.376856
vt 0.713616 0.376856
vt 0.713616 0.563350
vt 0.753052 0.950845
vt 0.743364 0.950846
vt 0.791804 0.815213
vt 0.690304 0.330232
vt 0.511020 0.244322
vt 0.564304 0.244322
vt 0.564304 0.379954
vt 0.801491 0.815212
vt 0.938455 0.917236
vt 0.938455 0.122116
vt 0.964239 0.136540
vt 0.937349 0.895601
vt 0.898674 0.917237
vt 0.898674 0.122116
vt 0.650327 0.166742
vt 0.668591 0.165179
vt 0.668591 0.242116
vt 0.781713 0.761703
vt 0.743021 0.760234
vt 0.743021 0.277337
vt 0.713616 0.563350
vt 0.690304 0.563350
vt 0.690304 0.423479
vt 0.650493 0.400056
vt 0.650493 0.323119
vt 0.668757 0.324681
vt 0.801138 0.278717
vt 0.801138 0.790661
vt 0.781769 0.790738
vt 0.650382 0.163845
vt 0.668591 0.165179
vt 0.668591 0.242290
vt 0.801143 0.790722
vt 0.781773 0.790645
vt 0.781773 0.278701
vt 0.781773 0.277324
vt 0.781773 0.759854
vt 0.743021 0.759954
vt 0.781773 0.761804
vt 0.743021 0.761704
vt 0.743021 0.279174
vt 0.668757 0.324508
vt 0.668757 0.401618
vt 0.650549 0.402953
vt 0.882774 0.104639
vt 0.908557 0.090215
vt 0.908558 0.885333
vt 0.801143 0.790782
vt 0.781775 0.790695
vt 0.781775 0.278690
vt 0.713616 0.609973
vt 0.690304 0.609973
vt 0.690304 0.563350
vt 0.849930 0.853965
vt 0.859618 0.853966
vt 0.859618 0.912094
vt 0.801491 0.853964
vt 0.801491 0.815212
vt 0.811179 0.815212
vt 0.781773 0.278706
vt 0.781773 0.761603
vt 0.743081 0.763073
vt 0.876969 0.829367
vt 0.876969 0.034246
vt 0.920875 0.095548
vt 0.876969 0.156849
vt 0.920875 0.095547
vt 0.920875 0.890669
vt 0.811179 0.912092
vt 0.811179 0.853964
vt 0.801140 0.278706
vt 0.801140 0.790711
vt 0.781773 0.790798
vt 0.690304 0.563350
vt 0.713616 0.563350
vt 0.713616 0.656597
vt 0.791804 0.853964
vt 0.791803 0.912092
vt 0.753052 0.912093
vt 0.849930 0.815213
vt 0.859618 0.815214
vt 0.713616 0.423479
vt 0.690304 0.330232
vt 0.937349 0.100480
vt 0.963133 0.086056
vt 0.963133 0.881177
vt 0.922199 0.890668
vt 0.922199 0.095547
vt 0.966105 0.156849
vt 0.922199 0.095547
vt 0.966105 0.034245
vt 0.966105 0.829366
vt 0.753052 0.815214
vt 0.791804 0.815212
vt 0.713616 0.609973
vt 0.690304 0.609973
vt 0.690304 0.563350
vt 0.811179 0.912092
vt 0.811179 0.853964
vt 0.849930 0.853965
vt 0.971910 0.104640
vt 0.971910 0.899759
vt 0.946126 0.885335
vt 0.899780 0.100480
vt 0.899780 0.895600
vt 0.873996 0.881176
vt 0.908558 0.885331
vt 0.882774 0.899755
vt 0.882774 0.104635
vt 0.953786 0.105543
vt 0.964762 0.090218
vt 0.964762 0.885329
vt 0.886604 0.885330
vt 0.875628 0.900655
vt 0.875626 0.105557
vt 0.843928 0.686322
vt 0.824552 0.686323
vt 0.824552 0.608820
vt 0.843928 0.763823
vt 0.824552 0.763824
vt 0.824552 0.686321
vt 0.713616 0.376856
vt 0.690304 0.376856
vt 0.690304 0.330232
vt 0.791804 0.950844
vt 0.753052 0.950845
vt 0.713616 0.563350
vt 0.872890 0.931661
vt 0.872890 0.136540
vt 0.859618 0.950845
vt 0.849930 0.950845
vt 0.946127 0.885335
vt 0.946127 0.090215
vt 0.971910 0.104639
vt 0.690304 0.423479
vt 0.713616 0.423479
vt 0.713616 0.376856
vt 0.690304 0.376856
vt 0.690304 0.330232
vt 0.713616 0.609973
vt 0.690304 0.609973
vt 0.690304 0.563350
vt 0.690304 0.330232
vt 0.713616 0.330232
vt 0.743364 0.853966
vt 0.743364 0.815214
vt 0.713616 0.656597
vt 0.690304 0.656597
vt 0.713616 0.563350
vt 0.886604 0.885331
vt 0.886604 0.090199
vt 0.897581 0.105524
vt 0.942809 0.105522
vt 0.942809 0.900655
vt 0.931833 0.885329
vt 0.801491 0.912092
vt 0.811179 0.950844
vt 0.801491 0.950844
vt 0.743364 0.950846
vt 0.801491 0.853964
vt 0.801491 0.912092
vt 0.743364 0.912094
vt 0.801491 0.950844
vt 0.801491 0.815212
vt 0.713616 0.423479
vt 0.690304 0.423479
vt 0.690304 0.330232
vt 0.938455 0.917236
vt 0.938455 0.122115
vt 0.964238 0.136538
vt 0.953786 0.885329
vt 0.942809 0.900655
vt 0.942809 0.105527
vt 0.908558 0.885331
vt 0.882774 0.899755
vt 0.882774 0.104635
vt 0.898674 0.917237
vt 0.872890 0.931661
vt 0.872889 0.136539
vt 0.971910 0.104635
vt 0.971910 0.899757
vt 0.946127 0.885333
vt 0.897581 0.105502
vt 0.908558 0.090176
vt 0.908558 0.885331
vt 0.690304 0.423479
vt 0.713616 0.376856
vt 0.690304 0.330232
vt 0.899779 0.100479
vt 0.899780 0.895600
vt 0.873996 0.881176
vt 0.897581 0.105524
vt 0.897579 0.900655
vt 0.886604 0.885330
vt 0.882774 0.104639
vt 0.908558 0.090215
vt 0.908558 0.885335
vt 0.937349 0.895600
vt 0.898673 0.122115
vt 0.801491 0.912092
vt 0.801491 0.853964
vt 0.811179 0.950844
vt 0.801491 0.950844
vt 0.937349 0.100478
vt 0.963132 0.086054
vt 0.963132 0.881177
vt 0.859618 0.853966
vt 0.859618 0.912094
vt 0.713616 0.563350
vt 0.946127 0.885330
vt 0.946127 0.090211
vt 0.971911 0.104635
vt 0.849930 0.815214
vt 0.859618 0.815214
vt 0.859618 0.950846
vt 0.849930 0.950845
vt 0.960933 0.885302
vt 0.960933 0.090199
vt 0.971910 0.105524
vt 0.801491 0.815212
vt 0.811179 0.815212
vt 0.743021 0.277424
vt 0.801143 0.278777
vt 0.781773 0.279274
vt 0.781768 0.278794
vt 0.650382 0.240955
vt 0.650549 0.325842
vt 0.743081 0.280176
vt 0.801143 0.278777
vt 0.781713 0.278806
vt 0.781773 0.278794
vt 0.650327 0.243679
vt 0.668757 0.401618
vt 0.876969 0.951971
vt 0.920875 0.890668
vt 0.849930 0.912093
vt 0.882774 0.899757
vt 0.964239 0.931660
vt 0.897581 0.900656
vt 0.931833 0.090197
vt 0.971910 0.899759
vt 0.713616 0.330232
vt 0.908558 0.090211
vt 0.953786 0.900655
vt 0.886604 0.090231
vt 0.946126 0.090216
vt 0.873996 0.086056
vt 0.713616 0.330232
vt 0.690304 0.656597
vt 0.753052 0.853965
vt 0.713616 0.330232
vt 0.843928 0.686321
vt 0.843928 0.608820
vt 0.922199 0.890668
vt 0.966105 0.951970
vt 0.849930 0.912093
vt 0.971911 0.899755
vt 0.971910 0.900627
vt 0.886604 0.090198
vt 0.882774 0.899759
vt 0.713616 0.330232
vt 0.873996 0.086054
vt 0.946127 0.090211
vt 0.897583 0.900655
vt 0.953785 0.090202
vt 0.908558 0.090211
vt 0.713616 0.330232
vt 0.964238 0.931660
vt 0.690304 0.656597
vt 0.753052 0.853965
vt 0.713616 0.330232
vt 0.843928 0.608817
vt 0.824552 0.763826
vt 0.511020 0.379954
vt 0.564304 0.031186
vt 0.832430 0.320170
vt 0.511020 0.031186
vt 0.563364 0.244324
vt 0.511020 0.244322
vt 0.563364 0.244320
vt 0.511020 0.031186
vt 0.563364 0.031183
vt 0.513575 0.842896
vt 0.503887 0.707264
vt 0.513575 0.707264
vt 0.822913 0.223289
vt 0.813396 0.048905
vt 0.822913 0.048905
vt 0.513575 0.978528
vt 0.503887 0.842896
vt 0.513575 0.842896
vt 0.672158 0.738219
vt 0.604343 0.951353
vt 0.604343 0.738217
vt 0.519160 0.735857
vt 0.528677 0.948993
vt 0.519160 0.948993
vt 0.519331 0.735856
vt 0.528848 0.948992
vt 0.519331 0.948992
vt 0.784845 0.223288
vt 0.726718 0.242662
vt 0.736406 0.223286
vt 0.784845 0.048904
vt 0.726718 0.029526
vt 0.794533 0.029528
vt 0.736406 0.048902
vt 0.794533 0.242664
vt 0.594655 0.757593
vt 0.536528 0.738219
vt 0.604343 0.738217
vt 0.546216 0.931978
vt 0.546216 0.757595
vt 0.604343 0.951353
vt 0.594655 0.931977
vt 0.536528 0.951355
vt 0.822913 0.223290
vt 0.813396 0.048905
vt 0.822913 0.048906
vt 0.842118 0.320171
vt 0.832430 0.223291
vt 0.842118 0.223291
vt 0.563364 0.031188
vt 0.503887 0.842896
vt 0.813396 0.223289
vt 0.503887 0.978528
vt 0.672158 0.951355
vt 0.528677 0.735857
vt 0.528848 0.735856
vt 0.813396 0.223289
vt 0.832430 0.320171
vn 1.0000 -0.0000 0.0000
vn 0.0000 1.0000 0.0000
vn 0.0000 0.0000 -1.0000
vn 0.0000 -1.0000 -0.0000
vn 0.0000 -0.0000 1.0000
vn -1.0000 0.0000 0.0000
vn 0.0000 0.8042 -0.5944
vn 0.0000 -0.8042 0.5944
vn -0.3397 -0.9370 0.0819
vn 0.9389 -0.3430 -0.0298
vn 0.3397 0.9370 -0.0819
vn -0.0000 0.0872 0.9962
vn 0.3420 -0.9361 0.0819
vn 0.0000 -0.0872 -0.9962
vn -0.9397 -0.3407 0.0298
vn 0.9397 0.3407 -0.0298
vn -0.3420 0.9361 -0.0819
vn -0.0560 -0.0668 -0.9962
vn -0.9389 0.3430 0.0298
vn 0.9445 0.0000 0.3285
vn -0.9445 0.0000 -0.3285
vn 0.0560 0.0668 0.9962
vn 0.9445 0.0000 -0.3285
vn -0.9445 -0.0000 0.3285
usemtl Default_OBJ
s 1
f 117/1/1 119/2/1 120/3/1
f 122/4/1 123/5/1 124/6/1
f 95/7/1 105/8/1 110/9/1
f 90/10/2 100/11/2 79/12/2
f 115/13/3 117/14/3 118/15/3
f 97/16/3 111/17/3 112/18/3
f 107/19/3 80/20/3 79/21/3
f 79/21/3 100/22/3 99/23/3
f 107/19/3 108/24/3 109/25/3
f 83/26/4 98/27/4 105/28/4
f 109/25/3 98/29/3 97/16/3
f 103/30/4 111/31/4 97/32/4
f 67/33/5 69/34/5 102/35/5
f 92/36/1 110/9/1 99/37/1
f 73/38/5 92/39/5 96/40/5
f 112/41/6 102/42/6 69/43/6
f 99/23/3 110/44/3 109/25/3
f 109/25/3 110/44/3 105/45/3
f 112/18/3 72/46/3 107/19/3
f 102/42/6 112/41/6 111/47/6
f 114/48/6 115/49/6 116/50/6
f 107/19/3 72/46/3 71/51/3
f 30/52/7 40/53/7 41/54/7
f 34/55/8 35/56/8 36/57/8
f 12/58/9 14/59/9 16/60/9
f 13/61/10 15/62/10 16/63/10
f 30/64/2 31/65/2 32/66/2
f 11/67/11 10/68/11 15/69/11
f 8/70/12 7/71/12 2/72/12
f 4/73/13 6/74/13 8/75/13
f 3/76/14 5/77/14 6/78/14
f 1/79/15 2/80/15 3/81/15
f 5/82/16 7/83/16 8/84/16
f 3/85/17 2/86/17 7/87/17
f 18/88/8 33/89/8 21/90/8
f 11/91/18 13/92/18 14/93/18
f 22/94/6 23/95/6 24/96/6
f 17/97/5 37/98/5 36/99/5
f 38/100/5 39/101/5 33/102/5
f 9/103/19 10/104/19 11/105/19
f 26/106/20 27/107/20 28/108/20
f 17/109/21 18/110/21 19/111/21
f 27/112/5 18/113/5 17/97/5
f 16/114/22 15/115/22 10/116/22
f 35/117/4 50/118/4 57/119/4
f 59/120/3 60/121/3 61/122/3
f 17/97/5 53/123/5 56/124/5
f 29/125/2 32/66/2 23/126/2
f 37/127/8 56/128/8 55/129/8
f 74/130/23 75/131/23 76/132/23
f 65/133/24 66/134/24 67/135/24
f 64/136/3 24/137/3 59/120/3
f 70/138/6 71/139/6 72/140/6
f 75/141/5 66/142/5 65/143/5
f 17/144/7 20/145/7 54/146/7
f 38/147/7 29/148/7 22/149/7
f 26/150/8 48/151/8 43/152/8
f 33/153/21 39/154/21 22/155/21
f 54/156/21 55/157/21 56/158/21
f 19/159/5 21/160/5 54/161/5
f 25/162/5 44/163/5 48/164/5
f 54/165/6 64/166/6 63/167/6
f 51/168/3 62/169/3 61/122/3
f 64/166/6 54/165/6 21/170/6
f 35/56/8 47/171/8 46/172/8
f 36/99/5 46/173/5 45/174/5
f 25/175/7 28/176/7 45/177/7
f 34/178/4 49/179/4 50/118/4
f 48/180/1 51/181/1 52/182/1
f 47/183/1 57/184/1 62/185/1
f 55/186/4 63/187/4 49/179/4
f 49/188/3 63/189/3 64/136/3
f 42/190/2 52/191/2 31/65/2
f 44/192/1 62/185/1 51/181/1
f 44/193/20 45/194/20 46/195/20
f 43/196/20 48/197/20 42/198/20
f 29/148/7 38/147/7 40/53/7
f 27/112/5 40/199/5 38/100/5
f 27/112/5 43/200/5 41/201/5
f 61/122/3 62/169/3 57/202/3
f 59/120/3 32/203/3 31/204/3
f 61/122/3 50/205/3 49/188/3
f 31/204/3 52/206/3 51/168/3
f 59/120/3 24/137/3 23/207/3
f 77/208/2 80/209/2 71/210/2
f 82/211/8 85/212/8 104/213/8
f 102/214/24 103/215/24 104/216/24
f 68/217/7 102/218/7 101/219/7
f 77/220/7 70/221/7 87/222/7
f 75/223/8 74/224/8 96/225/8
f 81/226/24 87/227/24 70/228/24
f 82/229/4 97/32/4 98/27/4
f 96/230/1 99/37/1 100/231/1
f 84/232/8 83/233/8 95/234/8
f 91/235/23 96/236/23 90/237/23
f 76/238/7 93/239/7 92/240/7
f 78/241/7 77/220/7 86/242/7
f 75/141/5 88/243/5 86/244/5
f 75/141/5 91/245/5 89/246/5
f 88/247/7 89/248/7 90/249/7
f 65/143/5 85/250/5 84/251/5
f 78/252/2 79/12/2 80/209/2
f 67/253/8 66/254/8 81/255/8
f 83/233/8 84/232/8 85/212/8
f 65/143/5 101/256/5 104/257/5
f 84/251/5 94/258/5 93/259/5
f 92/260/23 93/261/23 94/262/23
f 86/244/5 87/263/5 81/264/5
f 1/79/15 3/81/15 4/265/15
f 3/76/14 6/78/14 4/266/14
f 5/82/16 8/84/16 6/267/16
f 8/70/12 2/72/12 1/268/12
f 4/73/13 8/75/13 1/269/13
f 3/85/17 7/87/17 5/270/17
f 9/103/19 11/105/19 12/271/19
f 11/91/18 14/93/18 12/272/18
f 13/61/10 16/63/10 14/273/10
f 16/114/22 10/116/22 9/274/22
f 12/58/9 16/60/9 9/275/9
f 11/67/11 15/69/11 13/276/11
f 17/109/21 19/111/21 20/277/21
f 22/94/6 24/96/6 21/170/6
f 26/106/20 28/108/20 25/278/20
f 27/112/5 17/97/5 28/279/5
f 30/64/2 32/66/2 29/125/2
f 18/88/8 21/90/8 19/280/8
f 34/55/8 36/57/8 37/127/8
f 38/100/5 33/102/5 18/113/5
f 30/52/7 41/54/7 42/281/7
f 17/97/5 36/99/5 28/279/5
f 29/148/7 40/53/7 30/52/7
f 27/112/5 38/100/5 18/113/5
f 27/112/5 41/201/5 40/199/5
f 44/193/20 46/195/20 47/282/20
f 43/196/20 42/198/20 41/283/20
f 25/175/7 45/177/7 44/284/7
f 34/178/4 50/118/4 35/117/4
f 48/180/1 52/182/1 42/285/1
f 35/56/8 46/172/8 36/57/8
f 36/99/5 45/174/5 28/279/5
f 26/150/8 43/152/8 27/286/8
f 33/153/21 22/155/21 21/287/21
f 54/156/21 56/158/21 53/288/21
f 17/144/7 54/146/7 53/289/7
f 38/147/7 22/149/7 39/290/7
f 17/97/5 56/124/5 37/98/5
f 29/125/2 23/126/2 22/291/2
f 37/127/8 55/129/8 34/55/8
f 35/117/4 57/119/4 47/292/4
f 59/120/3 61/122/3 58/293/3
f 61/122/3 49/188/3 58/293/3
f 59/120/3 31/204/3 60/121/3
f 31/204/3 51/168/3 60/121/3
f 61/122/3 57/202/3 50/205/3
f 59/120/3 23/207/3 32/203/3
f 49/188/3 64/136/3 58/293/3
f 55/186/4 49/179/4 34/178/4
f 42/190/2 31/65/2 30/64/2
f 47/183/1 62/185/1 44/192/1
f 44/192/1 51/181/1 48/180/1
f 54/165/6 63/167/6 55/294/6
f 25/162/5 48/164/5 26/295/5
f 51/168/3 61/122/3 60/121/3
f 19/159/5 54/161/5 20/296/5
f 64/166/6 21/170/6 24/96/6
f 64/136/3 59/120/3 58/293/3
f 65/133/24 67/135/24 68/297/24
f 70/138/6 72/140/6 69/43/6
f 74/130/23 76/132/23 73/298/23
f 75/141/5 65/143/5 76/299/5
f 78/252/2 80/209/2 77/208/2
f 67/253/8 81/255/8 69/300/8
f 83/233/8 85/212/8 82/211/8
f 86/244/5 81/264/5 66/142/5
f 88/247/7 90/249/7 78/241/7
f 65/143/5 84/251/5 76/299/5
f 78/241/7 86/242/7 88/247/7
f 75/141/5 86/244/5 66/142/5
f 75/141/5 89/246/5 88/243/5
f 92/260/23 94/262/23 95/301/23
f 91/235/23 90/237/23 89/302/23
f 76/238/7 92/240/7 73/303/7
f 82/229/4 98/27/4 83/26/4
f 96/230/1 100/231/1 90/304/1
f 84/232/8 95/234/8 94/305/8
f 84/251/5 93/259/5 76/299/5
f 75/223/8 96/225/8 91/306/8
f 81/226/24 70/228/24 69/307/24
f 102/214/24 104/216/24 101/308/24
f 68/217/7 101/219/7 65/309/7
f 77/220/7 87/222/7 86/242/7
f 65/143/5 104/257/5 85/250/5
f 77/208/2 71/210/2 70/310/2
f 82/211/8 104/213/8 103/311/8
f 83/26/4 105/28/4 95/312/4
f 107/19/3 109/25/3 106/313/3
f 109/25/3 97/16/3 106/313/3
f 107/19/3 79/21/3 108/24/3
f 79/21/3 99/23/3 108/24/3
f 109/25/3 105/45/3 98/29/3
f 107/19/3 71/51/3 80/20/3
f 97/16/3 112/18/3 106/313/3
f 103/30/4 97/32/4 82/229/4
f 90/10/2 79/12/2 78/252/2
f 95/7/1 110/9/1 92/36/1
f 92/36/1 99/37/1 96/230/1
f 102/42/6 111/47/6 103/314/6
f 73/38/5 96/40/5 74/315/5
f 99/23/3 109/25/3 108/24/3
f 67/33/5 102/35/5 68/316/5
f 112/41/6 69/43/6 72/140/6
f 112/18/3 107/19/3 106/313/3
f 114/48/6 116/50/6 113/317/6
f 115/13/3 118/15/3 116/318/3
f 117/1/1 120/3/1 118/15/1
f 122/4/1 124/6/1 121/319/1
f 118/320/4 113/321/4 116/322/4
f 115/323/2 119/324/2 117/325/2
f 126/326/6 128/327/6 125/328/6
f 121/329/2 130/330/2 129/331/2
f 132/332/1 134/333/1 131/334/1
f 133/335/5 125/336/5 134/337/5
f 131/338/4 125/339/4 128/340/4
f 127/341/2 133/342/2 132/343/2
f 130/344/5 113/345/5 135/346/5
f 124/347/5 120/348/5 119/349/5
f 135/346/5 120/348/5 123/350/5
f 124/347/5 114/351/5 130/344/5
f 129/352/3 128/353/3 127/354/3
f 122/355/3 128/353/3 136/356/3
f 129/352/3 132/357/3 121/358/3
f 121/358/3 131/359/3 122/355/3
f 136/360/4 123/361/4 122/362/4
f 129/363/6 135/364/6 136/365/6
f 118/320/4 120/366/4 113/321/4
f 115/323/2 114/48/2 119/324/2
f 126/326/6 127/367/6 128/327/6
f 121/329/2 124/368/2 130/330/2
f 132/332/1 133/369/1 134/333/1
f 133/335/5 126/370/5 125/336/5
f 131/338/4 134/371/4 125/339/4
f 127/341/2 126/372/2 133/342/2
f 130/344/5 114/351/5 113/345/5
f 124/347/5 123/350/5 120/348/5
f 135/346/5 113/345/5 120/348/5
f 124/347/5 119/349/5 114/351/5
f 129/352/3 136/356/3 128/353/3
f 122/355/3 131/359/3 128/353/3
f 129/352/3 127/354/3 132/357/3
f 121/358/3 132/357/3 131/359/3
f 136/360/4 135/373/4 123/361/4
f 129/363/6 130/374/6 135/364/6
