# Blender 4.3.2
# www.blender.org
mtllib track_slope_1x3.mtl
o slope_1x3
v 0.300477 0.024479 0.508160
v 0.360477 0.024479 0.508160
v 0.360477 0.340708 -0.440523
v 0.300477 0.340708 -0.440523
v 0.352366 0.081400 0.527133
v 0.308588 0.081400 0.527133
v 0.360477 0.039170 0.513057
v 0.360477 0.355399 -0.435626
v 0.352366 0.397629 -0.421550
v 0.318222 0.039170 0.513057
v 0.342732 0.039170 0.513057
v 0.318222 0.067910 0.522637
v 0.318222 0.384139 -0.426046
v 0.352366 0.067910 0.522637
v 0.342732 0.067910 0.522637
v 0.342732 0.355399 -0.435626
v 0.352366 0.384139 -0.426046
v 0.342732 0.384139 -0.426046
v 0.318222 0.355399 -0.435626
v 0.308588 0.067910 0.522637
v 0.308588 0.384139 -0.426046
v 0.300477 0.355399 -0.435626
v 0.300477 0.039170 0.513057
v 0.308588 0.397629 -0.421550
v -0.300477 0.024479 0.508160
v -0.360477 0.024479 0.508160
v -0.360477 0.340708 -0.440523
v -0.300477 0.340708 -0.440523
v -0.352366 0.081400 0.527133
v -0.308588 0.081400 0.527133
v -0.360477 0.039170 0.513057
v -0.360477 0.355399 -0.435626
v -0.352366 0.397629 -0.421550
v -0.318222 0.039170 0.513057
v -0.342732 0.039170 0.513057
v -0.318222 0.067910 0.522637
v -0.318222 0.384139 -0.426046
v -0.352366 0.067910 0.522637
v -0.342732 0.067910 0.522637
v -0.342732 0.355399 -0.435626
v -0.352366 0.384139 -0.426046
v -0.342732 0.384139 -0.426046
v -0.318222 0.355399 -0.435626
v -0.308588 0.067910 0.522637
v -0.308588 0.384139 -0.426046
v -0.300477 0.355399 -0.435626
v -0.300477 0.039170 0.513057
v -0.308588 0.397629 -0.421550
v -0.317867 0.040803 0.307651
v -0.317867 0.116698 0.332949
v -0.287867 0.040803 0.307651
v -0.287867 0.116698 0.332949
v -0.287867 0.050290 0.279190
v -0.287867 0.126185 0.304489
v -0.317867 0.050290 0.279190
v -0.317867 0.126185 0.304489
v 0.317867 0.040803 0.307651
v 0.317867 0.116698 0.332949
v 0.287867 0.040803 0.307651
v 0.287867 0.116698 0.332949
v 0.287867 0.050290 0.279190
v 0.287867 0.126185 0.304489
v 0.317867 0.050290 0.279190
v 0.317867 0.126185 0.304489
v -0.317867 0.119861 0.070480
v -0.317867 0.195755 0.095778
v -0.287867 0.119861 0.070480
v -0.287867 0.195755 0.095778
v -0.287867 0.129347 0.042020
v -0.287867 0.205242 0.067318
v -0.317867 0.129347 0.042020
v -0.317867 0.205242 0.067318
v 0.317867 0.119861 0.070480
v 0.317867 0.195755 0.095778
v 0.287867 0.119861 0.070480
v 0.287867 0.195755 0.095778
v 0.287867 0.129347 0.042020
v 0.287867 0.205242 0.067318
v 0.317867 0.129347 0.042020
v 0.317867 0.205242 0.067318
v -0.317867 0.198918 -0.166691
v -0.317867 0.274812 -0.141392
v -0.287867 0.198918 -0.166691
v -0.287867 0.274812 -0.141392
v -0.287867 0.208405 -0.195151
v -0.287867 0.284299 -0.169853
v -0.317867 0.208405 -0.195151
v -0.317867 0.284299 -0.169853
v 0.317867 0.198918 -0.166691
v 0.317867 0.274812 -0.141392
v 0.287867 0.198918 -0.166691
v 0.287867 0.274812 -0.141392
v 0.287867 0.208405 -0.195151
v 0.287867 0.284299 -0.169853
v 0.317867 0.208405 -0.195151
v 0.317867 0.284299 -0.169853
v -0.317867 0.277975 -0.403861
v -0.317867 0.353870 -0.378563
v -0.287867 0.277975 -0.403861
v -0.287867 0.353870 -0.378563
v -0.287867 0.287462 -0.432322
v -0.287867 0.363356 -0.407024
v -0.317867 0.287462 -0.432322
v -0.317867 0.363356 -0.407024
v 0.317867 0.277975 -0.403861
v 0.317867 0.353870 -0.378563
v 0.287867 0.277975 -0.403861
v 0.287867 0.353870 -0.378563
v 0.287867 0.287462 -0.432322
v 0.287867 0.363356 -0.407024
v 0.317867 0.287462 -0.432322
v 0.317867 0.363356 -0.407024
v -0.470000 0.256104 -0.353177
v -0.470000 0.313025 -0.334203
v 0.470000 0.256104 -0.353177
v 0.470000 0.313025 -0.334203
v 0.470000 0.300376 -0.485992
v 0.470000 0.357297 -0.467019
v -0.470000 0.300376 -0.485992
v -0.470000 0.357297 -0.467019
v -0.470000 0.177046 -0.116006
v -0.470000 0.233967 -0.097032
v 0.470000 0.177046 -0.116006
v 0.470000 0.233967 -0.097032
v 0.470000 0.221318 -0.248822
v 0.470000 0.278239 -0.229848
v -0.470000 0.221318 -0.248822
v -0.470000 0.278239 -0.229848
v -0.470000 0.097989 0.121165
v -0.470000 0.154910 0.140139
v 0.470000 0.097989 0.121165
v 0.470000 0.154910 0.140139
v 0.470000 0.142261 -0.011651
v 0.470000 0.199182 0.007323
v -0.470000 0.142261 -0.011651
v -0.470000 0.199182 0.007323
v -0.470000 0.018932 0.358336
v -0.470000 0.075853 0.377309
v 0.470000 0.018932 0.358336
v 0.470000 0.075853 0.377309
v 0.470000 0.063204 0.225520
v 0.470000 0.120125 0.244494
v -0.470000 0.063204 0.225520
v -0.470000 0.120125 0.244494
v 0.360477 0.656936 -1.389206
v 0.300477 0.656936 -1.389206
v 0.360477 0.671627 -1.384309
v 0.352366 0.713857 -1.370233
v 0.318222 0.700368 -1.374729
v 0.342732 0.671627 -1.384309
v 0.352366 0.700368 -1.374729
v 0.342732 0.700368 -1.374729
v 0.318222 0.671627 -1.384309
v 0.308588 0.700368 -1.374729
v 0.300477 0.671627 -1.384309
v 0.308588 0.713857 -1.370233
v -0.360477 0.656936 -1.389206
v -0.300477 0.656936 -1.389206
v -0.360477 0.671627 -1.384309
v -0.352366 0.713857 -1.370233
v -0.318222 0.700368 -1.374729
v -0.342732 0.671627 -1.384309
v -0.352366 0.700368 -1.374729
v -0.342732 0.700368 -1.374729
v -0.318222 0.671627 -1.384309
v -0.308588 0.700368 -1.374729
v -0.300477 0.671627 -1.384309
v -0.308588 0.713857 -1.370233
v -0.317867 0.357032 -0.641032
v -0.317867 0.432927 -0.615734
v -0.287867 0.357032 -0.641032
v -0.287867 0.432927 -0.615734
v -0.287867 0.366519 -0.669493
v -0.287867 0.442413 -0.644194
v -0.317867 0.366519 -0.669493
v -0.317867 0.442413 -0.644194
v 0.317867 0.357032 -0.641032
v 0.317867 0.432927 -0.615734
v 0.287867 0.357032 -0.641032
v 0.287867 0.432927 -0.615734
v 0.287867 0.366519 -0.669493
v 0.287867 0.442413 -0.644194
v 0.317867 0.366519 -0.669493
v 0.317867 0.442413 -0.644194
v -0.317867 0.436089 -0.878203
v -0.317867 0.511984 -0.852905
v -0.287867 0.436089 -0.878203
v -0.287867 0.511984 -0.852905
v -0.287867 0.445576 -0.906663
v -0.287867 0.521471 -0.881365
v -0.317867 0.445576 -0.906663
v -0.317867 0.521471 -0.881365
v 0.317867 0.436089 -0.878203
v 0.317867 0.511984 -0.852905
v 0.287867 0.436089 -0.878203
v 0.287867 0.511984 -0.852905
v 0.287867 0.445576 -0.906663
v 0.287867 0.521471 -0.881365
v 0.317867 0.445576 -0.906663
v 0.317867 0.521471 -0.881365
v -0.317867 0.515146 -1.115374
v -0.317867 0.591041 -1.090075
v -0.287867 0.515146 -1.115374
v -0.287867 0.591041 -1.090075
v -0.287867 0.524633 -1.143834
v -0.287867 0.600528 -1.118536
v -0.317867 0.524633 -1.143834
v -0.317867 0.600528 -1.118536
v 0.317867 0.515146 -1.115374
v 0.317867 0.591041 -1.090075
v 0.287867 0.515146 -1.115374
v 0.287867 0.591041 -1.090075
v 0.287867 0.524633 -1.143834
v 0.287867 0.600528 -1.118536
v 0.317867 0.524633 -1.143834
v 0.317867 0.600528 -1.118536
v -0.317867 0.594203 -1.352544
v -0.317867 0.670098 -1.327246
v -0.287867 0.594203 -1.352544
v -0.287867 0.670098 -1.327246
v -0.287867 0.603690 -1.381005
v -0.287867 0.679585 -1.355707
v -0.317867 0.603690 -1.381005
v -0.317867 0.679585 -1.355707
v 0.317867 0.594203 -1.352544
v 0.317867 0.670098 -1.327246
v 0.287867 0.594203 -1.352544
v 0.287867 0.670098 -1.327246
v 0.287867 0.603690 -1.381005
v 0.287867 0.679585 -1.355707
v 0.317867 0.603690 -1.381005
v 0.317867 0.679585 -1.355707
v -0.470000 0.572332 -1.301860
v -0.470000 0.629253 -1.282886
v 0.470000 0.572332 -1.301860
v 0.470000 0.629253 -1.282886
v 0.470000 0.616604 -1.434675
v 0.470000 0.673525 -1.415702
v -0.470000 0.616604 -1.434675
v -0.470000 0.673525 -1.415702
v -0.470000 0.493275 -1.064689
v -0.470000 0.550196 -1.045715
v 0.470000 0.493275 -1.064689
v 0.470000 0.550196 -1.045715
v 0.470000 0.537547 -1.197505
v 0.470000 0.594468 -1.178531
v -0.470000 0.537547 -1.197505
v -0.470000 0.594468 -1.178531
v -0.470000 0.414218 -0.827518
v -0.470000 0.471139 -0.808545
v 0.470000 0.414218 -0.827518
v 0.470000 0.471139 -0.808545
v 0.470000 0.458490 -0.960334
v 0.470000 0.515411 -0.941360
v -0.470000 0.458490 -0.960334
v -0.470000 0.515411 -0.941360
v -0.470000 0.335161 -0.590348
v -0.470000 0.392082 -0.571374
v 0.470000 0.335161 -0.590348
v 0.470000 0.392082 -0.571374
v 0.470000 0.379433 -0.723163
v 0.470000 0.436354 -0.704189
v -0.470000 0.379433 -0.723163
v -0.470000 0.436354 -0.704189
v 0.360477 0.973165 -2.337889
v 0.300477 0.973165 -2.337889
v 0.360477 0.987856 -2.332992
v 0.352366 1.030086 -2.318916
v 0.318222 1.016596 -2.323412
v 0.342732 0.987856 -2.332992
v 0.352366 1.016596 -2.323412
v 0.342732 1.016596 -2.323412
v 0.318222 0.987856 -2.332992
v 0.308588 1.016596 -2.323412
v 0.300477 0.987856 -2.332992
v 0.308588 1.030086 -2.318916
v -0.360477 0.973165 -2.337889
v -0.300477 0.973165 -2.337889
v -0.360477 0.987856 -2.332992
v -0.352366 1.030086 -2.318916
v -0.318222 1.016596 -2.323412
v -0.342732 0.987856 -2.332992
v -0.352366 1.016596 -2.323412
v -0.342732 1.016596 -2.323412
v -0.318222 0.987856 -2.332992
v -0.308588 1.016596 -2.323412
v -0.300477 0.987856 -2.332992
v -0.308588 1.030086 -2.318916
v -0.317867 0.673261 -1.589715
v -0.317867 0.749155 -1.564417
v -0.287867 0.673261 -1.589715
v -0.287867 0.749155 -1.564417
v -0.287867 0.682747 -1.618176
v -0.287867 0.758642 -1.592877
v -0.317867 0.682747 -1.618176
v -0.317867 0.758642 -1.592877
v 0.317867 0.673261 -1.589715
v 0.317867 0.749155 -1.564417
v 0.287867 0.673261 -1.589715
v 0.287867 0.749155 -1.564417
v 0.287867 0.682747 -1.618176
v 0.287867 0.758642 -1.592877
v 0.317867 0.682747 -1.618176
v 0.317867 0.758642 -1.592877
v -0.317867 0.752318 -1.826886
v -0.317867 0.828212 -1.801588
v -0.287867 0.752318 -1.826886
v -0.287867 0.828212 -1.801588
v -0.287867 0.761805 -1.855346
v -0.287867 0.837699 -1.830048
v -0.317867 0.761805 -1.855346
v -0.317867 0.837699 -1.830048
v 0.317867 0.752318 -1.826886
v 0.317867 0.828212 -1.801588
v 0.287867 0.752318 -1.826886
v 0.287867 0.828212 -1.801588
v 0.287867 0.761805 -1.855346
v 0.287867 0.837699 -1.830048
v 0.317867 0.761805 -1.855346
v 0.317867 0.837699 -1.830048
v -0.317867 0.831375 -2.064057
v -0.317867 0.907270 -2.038758
v -0.287867 0.831375 -2.064057
v -0.287867 0.907270 -2.038758
v -0.287867 0.840862 -2.092517
v -0.287867 0.916756 -2.067219
v -0.317867 0.840862 -2.092517
v -0.317867 0.916756 -2.067219
v 0.317867 0.831375 -2.064057
v 0.317867 0.907270 -2.038758
v 0.287867 0.831375 -2.064057
v 0.287867 0.907270 -2.038758
v 0.287867 0.840862 -2.092517
v 0.287867 0.916756 -2.067219
v 0.317867 0.840862 -2.092517
v 0.317867 0.916756 -2.067219
v -0.317867 0.910432 -2.301227
v -0.317867 0.986327 -2.275929
v -0.287867 0.910432 -2.301227
v -0.287867 0.986327 -2.275929
v -0.287867 0.919919 -2.329688
v -0.287867 0.995814 -2.304389
v -0.317867 0.919919 -2.329688
v -0.317867 0.995814 -2.304389
v 0.317867 0.910432 -2.301227
v 0.317867 0.986327 -2.275929
v 0.287867 0.910432 -2.301227
v 0.287867 0.986327 -2.275929
v 0.287867 0.919919 -2.329688
v 0.287867 0.995814 -2.304389
v 0.317867 0.919919 -2.329688
v 0.317867 0.995814 -2.304389
v -0.470000 0.888561 -2.250543
v -0.470000 0.945482 -2.231569
v 0.470000 0.888561 -2.250543
v 0.470000 0.945482 -2.231569
v 0.470000 0.932833 -2.383358
v 0.470000 0.989754 -2.364384
v -0.470000 0.932833 -2.383358
v -0.470000 0.989754 -2.364384
v -0.470000 0.809504 -2.013372
v -0.470000 0.866425 -1.994398
v 0.470000 0.809504 -2.013372
v 0.470000 0.866425 -1.994398
v 0.470000 0.853776 -2.146188
v 0.470000 0.910697 -2.127214
v -0.470000 0.853776 -2.146188
v -0.470000 0.910697 -2.127214
v -0.470000 0.730446 -1.776201
v -0.470000 0.787367 -1.757227
v 0.470000 0.730446 -1.776201
v 0.470000 0.787367 -1.757227
v 0.470000 0.774718 -1.909017
v 0.470000 0.831639 -1.890043
v -0.470000 0.774718 -1.909017
v -0.470000 0.831639 -1.890043
v -0.470000 0.651389 -1.539031
v -0.470000 0.708310 -1.520057
v 0.470000 0.651389 -1.539031
v 0.470000 0.708310 -1.520057
v 0.470000 0.695661 -1.671846
v 0.470000 0.752582 -1.652872
v -0.470000 0.695661 -1.671846
v -0.470000 0.752582 -1.652872
v 0.360477 1.033700 -2.519494
v 0.300477 1.033700 -2.519494
v 0.352366 1.090621 -2.500520
v 0.352366 1.077132 -2.505017
v 0.318222 1.077132 -2.505017
v 0.308588 1.077132 -2.505017
v 0.318222 1.048392 -2.514597
v 0.300477 1.048392 -2.514597
v 0.308588 1.090621 -2.500520
v -0.360477 1.033700 -2.519494
v -0.300477 1.033700 -2.519494
v -0.360477 1.048392 -2.514597
v -0.352366 1.090621 -2.500520
v -0.352366 1.077132 -2.505017
v -0.342732 1.077132 -2.505017
v -0.318222 1.077132 -2.505017
v -0.308588 1.077132 -2.505017
v -0.318222 1.048392 -2.514597
v -0.300477 1.048392 -2.514597
v -0.308588 1.090621 -2.500520
v 0.360477 1.048392 -2.514597
v 0.342732 1.077132 -2.505017
v 0.342732 1.048392 -2.514597
v -0.342732 1.048392 -2.514597
vn -0.0000 -0.3162 0.9487
vn 1.0000 -0.0000 -0.0000
vn -0.0000 0.3162 -0.9487
vn -1.0000 -0.0000 -0.0000
vn -0.0000 0.9487 0.3162
vn -0.0000 -0.9487 -0.3162
vn -0.0000 0.3163 -0.9487
vt 0.980127 0.103062
vt 0.949641 0.115757
vt 0.949641 0.103062
vt 0.958243 0.103062
vt 0.988729 0.103062
vt 0.988729 0.115757
vt 0.942399 0.062186
vt 0.995971 0.062186
vt 0.995971 0.076013
vt 0.980127 0.076013
vt 0.958243 0.076013
vt 0.942399 0.076013
vt 0.000000 0.062150
vt 0.000000 0.048121
vt 0.905875 0.048121
vt 0.905875 0.062150
vt 0.980908 0.014240
vt 0.959024 0.014240
vt 0.943180 0.014240
vt 0.943180 0.000413
vt 0.996752 0.000413
vt 0.996752 0.014240
vt 0.959024 0.041289
vt 0.980908 0.041289
vt 0.989510 0.041289
vt 0.989510 0.053985
vt 0.950422 0.053985
vt 0.950422 0.041289
vt 0.000000 0.034093
vt 0.905875 0.034093
vt 0.000200 0.259595
vt 0.000200 0.219937
vt 0.906075 0.219937
vt 0.906075 0.259595
vt 0.905753 0.210448
vt -0.000122 0.210448
vt -0.000122 0.156096
vt 0.905753 0.156096
vt 0.905875 0.121202
vt 0.000000 0.121202
vt 0.000000 0.093759
vt 0.905875 0.093759
vt 0.905875 0.025761
vt 0.000000 0.025761
vt 0.000000 0.012881
vt 0.905875 0.012881
vt 0.906387 0.330358
vt 0.000512 0.330358
vt 0.000512 0.321630
vt 0.906387 0.321630
vt 0.000200 0.296828
vt 0.906075 0.296828
vt 0.906075 0.312903
vt 0.000200 0.312903
vt 0.905875 0.089593
vt 0.000000 0.089593
vt 0.000000 0.000000
vt 0.905875 0.000000
vt 0.000512 0.312903
vt 0.906387 0.312903
vt 0.000200 0.281378
vt 0.906075 0.281378
vt 0.906075 0.297453
vt 0.000200 0.297453
vt 0.999050 0.183297
vt 0.999050 0.342604
vt 0.939310 0.342604
vt 0.939310 0.183297
vt 0.985655 0.132863
vt 0.985655 0.179437
vt 0.939081 0.179437
vt 0.939081 0.132863
vt 0.979692 0.781451
vt 0.979692 0.844034
vt -0.000781 0.844034
vt -0.000781 0.781451
vt 0.146184 0.656284
vt 0.146184 0.718868
vt 0.000156 0.718868
vt 0.000156 0.656284
vt 0.980629 0.718868
vt 0.980629 0.781451
vt 0.000156 0.781451
vt 0.302823 0.656284
vt 0.302823 0.718868
vt 0.156795 0.718868
vt 0.156795 0.656284
vt 0.999534 0.505675
vt 0.999534 0.654611
vt -0.000466 0.654611
vt -0.000466 0.505675
vt 0.145247 0.656284
vt 0.145247 0.718868
vt -0.000781 0.718868
vt -0.000781 0.656284
vt 0.979692 0.718868
vt 1.000000 0.851064
vt 1.000000 1.000000
vt 0.000000 1.000000
vt 0.000000 0.851064
vt 0.999897 0.349106
vt 0.999897 0.498042
vt -0.000103 0.498042
vt -0.000103 0.349106
vt 0.998987 0.850355
vt 0.998987 0.998895
vt 0.001647 0.998895
vt 0.001647 0.850355
vt 0.998987 0.849509
vt 0.998987 0.998049
vt 0.001647 0.998049
vt 0.001647 0.849509
vt 0.997339 0.352016
vt 0.997339 0.500556
vt 0.000000 0.500556
vt 0.000000 0.352016
vt 0.998987 0.504118
vt 0.998987 0.652658
vt 0.001647 0.652658
vt 0.001647 0.504118
vt 0.429725 0.077420
vt 0.429725 0.072918
vt 0.603888 0.072918
vt 0.603888 0.077420
vt 0.673032 0.068396
vt 0.705927 0.068396
vt 0.718857 0.068396
vt 0.718857 0.087480
vt 0.660102 0.087480
vt 0.429725 0.014324
vt 0.429725 0.009164
vt 0.603888 0.009164
vt 0.603888 0.014324
vt 0.255486 0.013667
vt 0.255486 0.009164
vt 0.429648 0.009164
vt 0.429648 0.013667
vt 0.429725 0.076567
vt 0.429725 0.067758
vt 0.603888 0.067758
vt 0.603888 0.076567
vt 0.429725 0.202391
vt 0.429725 0.184945
vt 0.603888 0.184945
vt 0.603888 0.202391
vt 0.255486 0.013299
vt 0.429648 0.013299
vt 0.255486 0.018826
vt 0.255486 0.014692
vt 0.429648 0.014692
vt 0.429648 0.018826
vt 0.429726 0.013299
vt 0.429726 0.009164
vt 0.603888 0.013299
vt 0.429725 0.013667
vt 0.603888 0.013667
vt 0.255486 0.016100
vt 0.429648 0.016100
vt 0.255486 0.011891
vt 0.429648 0.011891
vt 0.429725 0.018826
vt 0.603888 0.018826
vt 0.255486 0.202391
vt 0.255486 0.184945
vt 0.429648 0.184945
vt 0.429648 0.202391
vt 0.429725 0.014692
vt 0.429725 0.011891
vt 0.603888 0.011891
vt 0.603888 0.014692
vt 0.255486 0.014324
vt 0.429648 0.014324
vt 0.255486 0.194608
vt 0.255486 0.190105
vt 0.429648 0.190105
vt 0.429648 0.194608
vt 0.429725 0.196481
vt 0.429725 0.187672
vt 0.603888 0.187672
vt 0.603888 0.196481
vt 0.255486 0.196481
vt 0.255485 0.187672
vt 0.429648 0.187672
vt 0.429648 0.196481
vt 0.255485 0.193754
vt 0.429648 0.193754
vt 0.429726 0.016100
vt 0.603888 0.016100
vt 0.673032 0.027736
vt 0.705927 0.027736
vt 0.660102 0.068396
vt 0.649216 0.006952
vt 0.729743 0.006952
vt 0.729743 0.027736
vt 0.649216 0.027736
s 1
f 15/1/1 6/2/1 20/3/1 12/4/1
f 6/2/1 15/1/1 14/5/1 5/6/1
f 1/7/1 2/8/1 7/9/1 11/10/1
f 11/10/1 10/11/1 23/12/1 1/7/1
f 12/4/1 10/11/1 11/10/1 15/1/1
f 7/13/2 2/14/2 3/15/2 8/16/2
f 19/17/3 16/18/3 8/19/3 3/20/3
f 3/20/3 4/21/3 22/22/3 19/17/3
f 18/23/3 13/24/3 21/25/3 24/26/3
f 24/26/3 9/27/3 17/28/3 18/23/3
f 16/18/3 19/17/3 13/24/3 18/23/3
f 22/14/4 4/29/4 1/30/4 23/15/4
f 9/31/5 24/32/5 6/33/5 5/34/5
f 3/35/6 2/36/6 1/37/6 4/38/6
f 12/39/4 13/40/4 19/41/4 10/42/4
f 6/43/4 24/44/4 21/45/4 20/46/4
f 13/47/6 12/48/6 20/49/6 21/50/6
f 22/51/5 23/52/5 10/53/5 19/54/5
f 18/55/2 15/56/2 11/13/2 16/16/2
f 9/46/2 5/45/2 14/57/2 17/58/2
f 17/50/6 14/49/6 15/59/6 18/60/6
f 16/61/5 11/62/5 7/63/5 8/64/5
f 44/3/1 30/2/1 39/1/1 36/4/1
f 29/6/1 38/5/1 39/1/1 30/2/1
f 31/9/1 26/8/1 34/11/1 35/10/1
f 25/7/1 47/12/1 34/11/1 26/8/1
f 34/11/1 36/4/1 39/1/1 35/10/1
f 27/15/4 26/14/4 31/13/4 32/16/4
f 28/21/3 27/20/3 43/17/3 46/22/3
f 32/19/3 40/18/3 43/17/3 27/20/3
f 41/28/3 33/27/3 37/24/3 42/23/3
f 48/26/3 45/25/3 37/24/3 33/27/3
f 42/23/3 37/24/3 43/17/3 40/18/3
f 25/30/2 28/29/2 46/14/2 47/15/2
f 30/33/5 48/32/5 33/31/5 29/34/5
f 25/37/6 26/36/6 27/35/6 28/38/6
f 43/41/2 37/40/2 36/39/2 34/42/2
f 45/45/2 48/44/2 30/43/2 44/46/2
f 44/49/6 36/48/6 37/47/6 45/50/6
f 34/53/5 47/52/5 46/51/5 43/54/5
f 35/13/4 39/56/4 42/55/4 40/16/4
f 38/57/4 29/45/4 33/46/4 41/58/4
f 39/59/6 38/49/6 41/50/6 42/60/6
f 31/63/5 35/62/5 40/61/5 32/64/5
f 51/65/1 52/66/1 50/67/1 49/68/1
f 53/65/2 54/66/2 52/67/2 51/68/2
f 55/65/3 56/66/3 54/67/3 53/68/3
f 49/65/4 50/66/4 56/67/4 55/68/4
f 52/69/5 54/70/5 56/71/5 50/72/5
f 58/67/1 60/66/1 59/65/1 57/68/1
f 60/67/4 62/66/4 61/65/4 59/68/4
f 62/67/3 64/66/3 63/65/3 61/68/3
f 64/67/2 58/66/2 57/65/2 63/68/2
f 64/71/5 62/70/5 60/69/5 58/72/5
f 67/65/1 68/66/1 66/67/1 65/68/1
f 69/65/2 70/66/2 68/67/2 67/68/2
f 71/65/3 72/66/3 70/67/3 69/68/3
f 65/65/4 66/66/4 72/67/4 71/68/4
f 68/69/5 70/70/5 72/71/5 66/72/5
f 74/67/1 76/66/1 75/65/1 73/68/1
f 76/67/4 78/66/4 77/65/4 75/68/4
f 78/67/3 80/66/3 79/65/3 77/68/3
f 80/67/2 74/66/2 73/65/2 79/68/2
f 80/71/5 78/70/5 76/69/5 74/72/5
f 83/65/1 84/66/1 82/67/1 81/68/1
f 85/65/2 86/66/2 84/67/2 83/68/2
f 87/65/3 88/66/3 86/67/3 85/68/3
f 81/65/4 82/66/4 88/67/4 87/68/4
f 84/69/5 86/70/5 88/71/5 82/72/5
f 90/67/1 92/66/1 91/65/1 89/68/1
f 92/67/4 94/66/4 93/65/4 91/68/4
f 94/67/3 96/66/3 95/65/3 93/68/3
f 96/67/2 90/66/2 89/65/2 95/68/2
f 96/71/5 94/70/5 92/69/5 90/72/5
f 99/65/1 100/66/1 98/67/1 97/68/1
f 101/65/2 102/66/2 100/67/2 99/68/2
f 103/65/3 104/66/3 102/67/3 101/68/3
f 97/65/4 98/66/4 104/67/4 103/68/4
f 100/69/5 102/70/5 104/71/5 98/72/5
f 106/67/1 108/66/1 107/65/1 105/68/1
f 108/67/4 110/66/4 109/65/4 107/68/4
f 110/67/3 112/66/3 111/65/3 109/68/3
f 112/67/2 106/66/2 105/65/2 111/68/2
f 112/71/5 110/70/5 108/69/5 106/72/5
f 115/73/1 116/74/1 114/75/1 113/76/1
f 117/77/2 118/78/2 116/79/2 115/80/2
f 119/81/3 120/82/3 118/83/3 117/79/3
f 113/84/4 114/85/4 120/86/4 119/87/4
f 116/88/5 118/89/5 120/90/5 114/91/5
f 123/73/1 124/74/1 122/75/1 121/76/1
f 125/92/2 126/93/2 124/94/2 123/95/2
f 127/96/3 128/73/3 126/76/3 125/94/3
f 121/84/4 122/85/4 128/86/4 127/87/4
f 124/97/5 126/98/5 128/99/5 122/100/5
f 131/73/1 132/74/1 130/75/1 129/76/1
f 133/92/2 134/93/2 132/94/2 131/95/2
f 135/96/3 136/73/3 134/76/3 133/94/3
f 129/84/4 130/85/4 136/86/4 135/87/4
f 132/101/5 134/102/5 136/103/5 130/104/5
f 139/73/1 140/74/1 138/75/1 137/76/1
f 141/92/2 142/93/2 140/94/2 139/95/2
f 143/96/3 144/73/3 142/76/3 141/94/3
f 137/84/4 138/85/4 144/86/4 143/87/4
f 140/97/5 142/98/5 144/99/5 138/100/5
f 117/105/6 115/106/6 113/107/6 119/108/6
f 125/109/6 123/110/6 121/111/6 127/112/6
f 133/113/6 131/114/6 129/115/6 135/116/6
f 141/117/6 139/118/6 137/119/6 143/120/6
f 4/7/1 3/8/1 8/9/1 16/10/1
f 16/10/1 19/11/1 22/12/1 4/7/1
f 8/13/2 3/14/2 145/15/2 147/16/2
f 153/17/3 150/18/3 147/19/3 145/20/3
f 145/20/3 146/21/3 155/22/3 153/17/3
f 152/23/3 149/24/3 154/25/3 156/26/3
f 156/26/3 148/27/3 151/28/3 152/23/3
f 150/18/3 153/17/3 149/24/3 152/23/3
f 155/14/4 146/29/4 4/30/4 22/15/4
f 148/31/5 156/32/5 24/33/5 9/34/5
f 145/35/6 3/36/6 4/37/6 146/38/6
f 13/39/4 149/40/4 153/41/4 19/42/4
f 24/43/4 156/44/4 154/45/4 21/46/4
f 149/47/6 13/48/6 21/49/6 154/50/6
f 155/51/5 22/52/5 19/53/5 153/54/5
f 152/55/2 18/56/2 16/13/2 150/16/2
f 148/46/2 9/45/2 17/57/2 151/58/2
f 151/50/6 17/49/6 18/59/6 152/60/6
f 150/61/5 16/62/5 8/63/5 147/64/5
f 45/3/1 48/2/1 42/1/1 37/4/1
f 33/6/1 41/5/1 42/1/1 48/2/1
f 157/15/4 27/14/4 32/13/4 159/16/4
f 158/21/3 157/20/3 165/17/3 167/22/3
f 159/19/3 162/18/3 165/17/3 157/20/3
f 163/28/3 160/27/3 161/24/3 164/23/3
f 168/26/3 166/25/3 161/24/3 160/27/3
f 164/23/3 161/24/3 165/17/3 162/18/3
f 28/30/2 158/29/2 167/14/2 46/15/2
f 48/33/5 168/32/5 160/31/5 33/34/5
f 28/37/6 27/36/6 157/35/6 158/38/6
f 165/41/2 161/40/2 37/39/2 43/42/2
f 166/45/2 168/44/2 48/43/2 45/46/2
f 45/49/6 37/48/6 161/47/6 166/50/6
f 43/53/5 46/52/5 167/51/5 165/54/5
f 40/13/4 42/56/4 164/55/4 162/16/4
f 41/57/4 33/45/4 160/46/4 163/58/4
f 42/59/6 41/49/6 163/50/6 164/60/6
f 32/63/5 40/62/5 162/61/5 159/64/5
f 171/65/1 172/66/1 170/67/1 169/68/1
f 173/65/2 174/66/2 172/67/2 171/68/2
f 175/65/3 176/66/3 174/67/3 173/68/3
f 169/65/4 170/66/4 176/67/4 175/68/4
f 172/69/5 174/70/5 176/71/5 170/72/5
f 178/67/1 180/66/1 179/65/1 177/68/1
f 180/67/4 182/66/4 181/65/4 179/68/4
f 182/67/3 184/66/3 183/65/3 181/68/3
f 184/67/2 178/66/2 177/65/2 183/68/2
f 184/71/5 182/70/5 180/69/5 178/72/5
f 187/65/1 188/66/1 186/67/1 185/68/1
f 189/65/2 190/66/2 188/67/2 187/68/2
f 191/65/3 192/66/3 190/67/3 189/68/3
f 185/65/4 186/66/4 192/67/4 191/68/4
f 188/69/5 190/70/5 192/71/5 186/72/5
f 194/67/1 196/66/1 195/65/1 193/68/1
f 196/67/4 198/66/4 197/65/4 195/68/4
f 198/67/3 200/66/3 199/65/3 197/68/3
f 200/67/2 194/66/2 193/65/2 199/68/2
f 200/71/5 198/70/5 196/69/5 194/72/5
f 203/65/1 204/66/1 202/67/1 201/68/1
f 205/65/2 206/66/2 204/67/2 203/68/2
f 207/65/3 208/66/3 206/67/3 205/68/3
f 201/65/4 202/66/4 208/67/4 207/68/4
f 204/69/5 206/70/5 208/71/5 202/72/5
f 210/67/1 212/66/1 211/65/1 209/68/1
f 212/67/4 214/66/4 213/65/4 211/68/4
f 214/67/3 216/66/3 215/65/3 213/68/3
f 216/67/2 210/66/2 209/65/2 215/68/2
f 216/71/5 214/70/5 212/69/5 210/72/5
f 219/65/1 220/66/1 218/67/1 217/68/1
f 221/65/2 222/66/2 220/67/2 219/68/2
f 223/65/3 224/66/3 222/67/3 221/68/3
f 217/65/4 218/66/4 224/67/4 223/68/4
f 220/69/5 222/70/5 224/71/5 218/72/5
f 226/67/1 228/66/1 227/65/1 225/68/1
f 228/67/4 230/66/4 229/65/4 227/68/4
f 230/67/3 232/66/3 231/65/3 229/68/3
f 232/67/2 226/66/2 225/65/2 231/68/2
f 232/71/5 230/70/5 228/69/5 226/72/5
f 235/73/1 236/74/1 234/75/1 233/76/1
f 237/77/2 238/78/2 236/79/2 235/80/2
f 239/81/3 240/82/3 238/83/3 237/79/3
f 233/84/4 234/85/4 240/86/4 239/87/4
f 236/88/5 238/89/5 240/90/5 234/91/5
f 243/73/1 244/74/1 242/75/1 241/76/1
f 245/92/2 246/93/2 244/94/2 243/95/2
f 247/96/3 248/73/3 246/76/3 245/94/3
f 241/84/4 242/85/4 248/86/4 247/87/4
f 244/97/5 246/98/5 248/99/5 242/100/5
f 251/73/1 252/74/1 250/75/1 249/76/1
f 253/92/2 254/93/2 252/94/2 251/95/2
f 255/96/3 256/73/3 254/76/3 253/94/3
f 249/84/4 250/85/4 256/86/4 255/87/4
f 252/101/5 254/102/5 256/103/5 250/104/5
f 259/73/1 260/74/1 258/75/1 257/76/1
f 261/92/2 262/93/2 260/94/2 259/95/2
f 263/96/3 264/73/3 262/76/3 261/94/3
f 257/84/4 258/85/4 264/86/4 263/87/4
f 260/97/5 262/98/5 264/99/5 258/100/5
f 237/105/6 235/106/6 233/107/6 239/108/6
f 245/109/6 243/110/6 241/111/6 247/112/6
f 253/113/6 251/114/6 249/115/6 255/116/6
f 261/117/6 259/118/6 257/119/6 263/120/6
f 146/7/1 145/8/1 147/9/1 150/10/1
f 150/10/1 153/11/1 155/12/1 146/7/1
f 147/13/2 145/14/2 265/15/2 267/16/2
f 275/14/4 266/29/4 146/30/4 155/15/4
f 268/31/5 276/32/5 156/33/5 148/34/5
f 265/35/6 145/36/6 146/37/6 266/38/6
f 149/39/4 269/40/4 273/41/4 153/42/4
f 156/43/4 276/44/4 274/45/4 154/46/4
f 269/47/6 149/48/6 154/49/6 274/50/6
f 275/51/5 155/52/5 153/53/5 273/54/5
f 272/55/2 152/56/2 150/13/2 270/16/2
f 268/46/2 148/45/2 151/57/2 271/58/2
f 271/50/6 151/49/6 152/59/6 272/60/6
f 270/61/5 150/62/5 147/63/5 267/64/5
f 166/3/1 168/2/1 164/1/1 161/4/1
f 160/6/1 163/5/1 164/1/1 168/2/1
f 277/15/4 157/14/4 159/13/4 279/16/4
f 158/30/2 278/29/2 287/14/2 167/15/2
f 168/33/5 288/32/5 280/31/5 160/34/5
f 158/37/6 157/36/6 277/35/6 278/38/6
f 285/41/2 281/40/2 161/39/2 165/42/2
f 286/45/2 288/44/2 168/43/2 166/46/2
f 166/49/6 161/48/6 281/47/6 286/50/6
f 165/53/5 167/52/5 287/51/5 285/54/5
f 162/13/4 164/56/4 284/55/4 282/16/4
f 163/57/4 160/45/4 280/46/4 283/58/4
f 164/59/6 163/49/6 283/50/6 284/60/6
f 159/63/5 162/62/5 282/61/5 279/64/5
f 291/65/1 292/66/1 290/67/1 289/68/1
f 293/65/2 294/66/2 292/67/2 291/68/2
f 295/65/3 296/66/3 294/67/3 293/68/3
f 289/65/4 290/66/4 296/67/4 295/68/4
f 292/69/5 294/70/5 296/71/5 290/72/5
f 298/67/1 300/66/1 299/65/1 297/68/1
f 300/67/4 302/66/4 301/65/4 299/68/4
f 302/67/3 304/66/3 303/65/3 301/68/3
f 304/67/2 298/66/2 297/65/2 303/68/2
f 304/71/5 302/70/5 300/69/5 298/72/5
f 307/65/1 308/66/1 306/67/1 305/68/1
f 309/65/2 310/66/2 308/67/2 307/68/2
f 311/65/3 312/66/3 310/67/3 309/68/3
f 305/65/4 306/66/4 312/67/4 311/68/4
f 308/69/5 310/70/5 312/71/5 306/72/5
f 314/67/1 316/66/1 315/65/1 313/68/1
f 316/67/4 318/66/4 317/65/4 315/68/4
f 318/67/3 320/66/3 319/65/3 317/68/3
f 320/67/2 314/66/2 313/65/2 319/68/2
f 320/71/5 318/70/5 316/69/5 314/72/5
f 323/65/1 324/66/1 322/67/1 321/68/1
f 325/65/2 326/66/2 324/67/2 323/68/2
f 327/65/3 328/66/3 326/67/3 325/68/3
f 321/65/4 322/66/4 328/67/4 327/68/4
f 324/69/5 326/70/5 328/71/5 322/72/5
f 330/67/1 332/66/1 331/65/1 329/68/1
f 332/67/4 334/66/4 333/65/4 331/68/4
f 334/67/3 336/66/3 335/65/3 333/68/3
f 336/67/2 330/66/2 329/65/2 335/68/2
f 336/71/5 334/70/5 332/69/5 330/72/5
f 339/65/1 340/66/1 338/67/1 337/68/1
f 341/65/2 342/66/2 340/67/2 339/68/2
f 343/65/3 344/66/3 342/67/3 341/68/3
f 337/65/4 338/66/4 344/67/4 343/68/4
f 340/69/5 342/70/5 344/71/5 338/72/5
f 346/67/1 348/66/1 347/65/1 345/68/1
f 348/67/4 350/66/4 349/65/4 347/68/4
f 350/67/3 352/66/3 351/65/3 349/68/3
f 352/67/2 346/66/2 345/65/2 351/68/2
f 352/71/5 350/70/5 348/69/5 346/72/5
f 355/73/1 356/74/1 354/75/1 353/76/1
f 357/77/2 358/78/2 356/79/2 355/80/2
f 359/81/3 360/82/3 358/83/3 357/79/3
f 353/84/4 354/85/4 360/86/4 359/87/4
f 356/88/5 358/89/5 360/90/5 354/91/5
f 363/73/1 364/74/1 362/75/1 361/76/1
f 365/92/2 366/93/2 364/94/2 363/95/2
f 367/96/3 368/73/3 366/76/3 365/94/3
f 361/84/4 362/85/4 368/86/4 367/87/4
f 364/97/5 366/98/5 368/99/5 362/100/5
f 371/73/1 372/74/1 370/75/1 369/76/1
f 373/92/2 374/93/2 372/94/2 371/95/2
f 375/96/3 376/73/3 374/76/3 373/94/3
f 369/84/4 370/85/4 376/86/4 375/87/4
f 372/101/5 374/102/5 376/103/5 370/104/5
f 379/73/1 380/74/1 378/75/1 377/76/1
f 381/92/2 382/93/2 380/94/2 379/95/2
f 383/96/3 384/73/3 382/76/3 381/94/3
f 377/84/4 378/85/4 384/86/4 383/87/4
f 380/97/5 382/98/5 384/99/5 378/100/5
f 357/105/6 355/106/6 353/107/6 359/108/6
f 365/109/6 363/110/6 361/111/6 367/112/6
f 373/113/6 371/114/6 369/115/6 375/116/6
f 381/117/6 379/118/6 377/119/6 383/120/6
f 266/121/4 275/122/4 392/123/4 386/124/4
f 276/32/5 268/31/5 387/31/5 393/32/5
f 406/125/7 389/126/7 390/127/7 393/128/7
f 399/126/7 398/127/7 397/128/7 404/129/7
f 275/130/5 273/131/5 391/132/5 392/133/5
f 287/134/2 278/135/2 395/136/2 403/137/2
f 273/138/4 269/139/4 389/140/4 391/141/4
f 265/142/6 266/143/6 386/144/6 385/145/6
f 283/146/4 280/135/4 397/136/4 398/147/4
f 288/148/2 286/149/2 401/150/2 404/151/2
f 274/152/4 276/153/4 393/132/4 390/154/4
f 267/155/2 265/131/2 385/132/2 405/156/2
f 284/157/6 283/146/6 398/147/6 399/158/6
f 286/149/6 281/159/6 400/160/6 401/150/6
f 270/161/5 267/155/5 405/156/5 407/162/5
f 278/163/6 277/164/6 394/165/6 395/166/6
f 271/167/6 272/168/6 406/169/6 388/170/6
f 279/171/5 282/135/5 408/136/5 396/172/5
f 285/148/5 287/134/5 403/137/5 402/151/5
f 277/173/4 279/174/4 396/175/4 394/176/4
f 280/31/5 288/32/5 404/32/5 397/31/5
f 272/177/2 270/178/2 407/179/2 406/180/2
f 281/181/2 285/182/2 402/183/2 400/184/2
f 268/161/2 271/167/2 388/170/2 387/162/2
f 282/185/4 284/164/4 399/165/4 408/186/4
f 269/187/6 274/152/6 390/154/6 389/188/6
f 402/189/3 408/190/3 399/126/7 400/125/7
f 400/125/7 399/126/7 404/129/7 401/191/7
f 395/192/3 394/193/3 396/194/3 408/190/3
f 403/195/3 395/192/3 408/190/3 402/189/3
f 386/193/3 392/194/3 391/190/3 407/189/3
f 407/189/3 391/190/3 389/126/7 406/125/7
f 388/191/7 406/125/7 393/128/7 387/129/7
f 385/192/3 386/193/3 407/189/3 405/195/3
