# Blender 4.3.0
# www.blender.org
o curve_5x
v 0.139523 0.025803 0.000000
v 0.199523 0.025803 0.000000
v 0.139523 0.041289 0.000000
v 0.147634 0.085803 0.000000
v 0.181778 0.071584 0.000000
v 0.157268 0.041289 0.000000
v 0.147634 0.071584 0.000000
v 0.157268 0.071584 0.000000
v 0.181778 0.041289 0.000000
v 0.191412 0.071584 0.000000
v 0.199523 0.041289 0.000000
v 0.191412 0.085803 0.000000
v 0.860477 0.025803 0.000000
v 0.800477 0.025803 0.000000
v 0.860477 0.041289 0.000000
v 0.852366 0.085803 0.000000
v 0.818222 0.071584 0.000000
v 0.842732 0.041289 0.000000
v 0.852366 0.071584 0.000000
v 0.842732 0.071584 0.000000
v 0.818222 0.041289 0.000000
v 0.808588 0.071584 0.000000
v 0.800477 0.041289 0.000000
v 0.808588 0.085803 0.000000
v 0.818774 -0.025279 -0.104201
v 0.818774 0.054721 -0.104201
v 0.788813 -0.025279 -0.102681
v 0.788813 0.054721 -0.102681
v 0.787293 -0.025279 -0.132643
v 0.787293 0.054721 -0.132643
v 0.817255 -0.025279 -0.134162
v 0.817255 0.054721 -0.134162
v 0.183856 -0.025279 -0.072001
v 0.183856 0.054721 -0.072001
v 0.213818 -0.025279 -0.073521
v 0.213818 0.054721 -0.073521
v 0.212298 -0.025279 -0.103482
v 0.212298 0.054721 -0.103482
v 0.182337 -0.025279 -0.101963
v 0.182337 0.054721 -0.101963
v 0.973498 -0.030000 -0.056977
v 0.973498 0.030000 -0.056977
v 0.034704 -0.030000 -0.009366
v 0.034704 0.030000 -0.009366
v 0.027613 -0.030000 -0.149187
v 0.027613 0.030000 -0.149187
v 0.966407 -0.030000 -0.196797
v 0.966407 0.030000 -0.196797
v 0.807312 -0.025279 -0.348134
v 0.807312 0.054721 -0.348134
v 0.777466 -0.025279 -0.345099
v 0.777466 0.054721 -0.345099
v 0.774431 -0.025279 -0.374945
v 0.774431 0.054721 -0.374945
v 0.804277 -0.025279 -0.377980
v 0.804277 0.054721 -0.377980
v 0.174840 -0.025279 -0.283818
v 0.174840 0.054721 -0.283818
v 0.204686 -0.025279 -0.286853
v 0.204686 0.054721 -0.286853
v 0.201651 -0.025279 -0.316699
v 0.201651 0.054721 -0.316699
v 0.171805 -0.025279 -0.313664
v 0.171805 0.054721 -0.313664
v 0.964229 -0.030000 -0.308807
v 0.964229 0.030000 -0.308807
v 0.029052 -0.030000 -0.213709
v 0.029052 0.030000 -0.213709
v 0.014888 -0.030000 -0.352991
v 0.014888 0.030000 -0.352991
v 0.950065 -0.030000 -0.448089
v 0.950065 0.030000 -0.448089
v 0.783509 -0.025279 -0.591173
v 0.783509 0.054721 -0.591173
v 0.753855 -0.025279 -0.586631
v 0.753855 0.054721 -0.586631
v 0.749313 -0.025279 -0.616285
v 0.749313 0.054721 -0.616285
v 0.778967 -0.025279 -0.620827
v 0.778967 0.054721 -0.620827
v 0.155106 -0.025279 -0.494906
v 0.155106 0.054721 -0.494906
v 0.184760 -0.025279 -0.499448
v 0.184760 0.054721 -0.499448
v 0.180218 -0.025279 -0.529102
v 0.180218 0.054721 -0.529102
v 0.150564 -0.025279 -0.524560
v 0.150564 0.054721 -0.524560
v 0.942217 -0.030000 -0.559845
v 0.942217 0.030000 -0.559845
v 0.013056 -0.030000 -0.417503
v 0.013056 0.030000 -0.417503
v -0.008144 -0.030000 -0.555888
v -0.008144 0.030000 -0.555888
v 0.921017 -0.030000 -0.698230
v 0.921017 0.030000 -0.698230
v 0.747428 -0.025279 -0.832695
v 0.747428 0.054721 -0.832695
v 0.718042 -0.025279 -0.826656
v 0.718042 0.054721 -0.826656
v 0.712003 -0.025279 -0.856042
v 0.712003 0.054721 -0.856042
v 0.741389 -0.025279 -0.862081
v 0.741389 0.054721 -0.862081
v 0.124707 -0.025279 -0.704723
v 0.124707 0.054721 -0.704723
v 0.154093 -0.025279 -0.710762
v 0.154093 0.054721 -0.710762
v 0.148054 -0.025279 -0.740148
v 0.148054 0.054721 -0.740148
v 0.118668 -0.025279 -0.734109
v 0.118668 0.054721 -0.734109
v 0.907518 -0.030000 -0.809446
v 0.907518 0.030000 -0.809446
v -0.013240 -0.030000 -0.620225
v -0.013240 0.030000 -0.620225
v -0.041422 -0.030000 -0.757359
v -0.041422 0.030000 -0.757359
v 0.879336 -0.030000 -0.946580
v 0.879336 0.030000 -0.946580
v 0.699159 -0.025279 -1.072080
v 0.699159 0.054721 -1.072080
v 0.670117 -0.025279 -1.064560
v 0.670117 0.054721 -1.064560
v 0.662597 -0.025279 -1.093603
v 0.662597 0.054721 -1.093603
v 0.691639 -0.025279 -1.101122
v 0.691639 0.054721 -1.101122
v 0.083719 -0.025279 -0.912732
v 0.083719 0.054721 -0.912732
v 0.112762 -0.025279 -0.920251
v 0.112762 0.054721 -0.920251
v 0.105242 -0.025279 -0.949293
v 0.105242 0.054721 -0.949293
v 0.076200 -0.025279 -0.941774
v 0.076200 0.054721 -0.941774
v 0.860221 -0.030000 -1.056968
v 0.860221 0.030000 -1.056968
v -0.049771 -0.030000 -0.821355
v -0.049771 0.030000 -0.821355
v -0.084863 -0.030000 -0.956886
v -0.084863 0.030000 -0.956886
v 0.825130 -0.030000 -1.192499
v 0.825130 0.030000 -1.192499
v 0.638828 -0.025279 -1.308712
v 0.638828 0.054721 -1.308712
v 0.610204 -0.025279 -1.299732
v 0.610204 0.054721 -1.299732
v 0.601223 -0.025279 -1.328356
v 0.601223 0.054721 -1.328356
v 0.629847 -0.025279 -1.337337
v 0.629847 0.054721 -1.337337
v 0.032249 -0.025279 -1.118397
v 0.032249 0.054721 -1.118397
v 0.060873 -0.025279 -1.127378
v 0.060873 0.054721 -1.127378
v 0.051892 -0.025279 -1.156002
v 0.051892 0.054721 -1.156002
v 0.023268 -0.025279 -1.147021
v 0.023268 0.054721 -1.147021
v 0.800449 -0.030000 -1.301778
v 0.800449 0.030000 -1.301778
v -0.096442 -0.030000 -1.020377
v -0.096442 0.030000 -1.020377
v -0.138353 -0.030000 -1.153956
v -0.138353 0.030000 -1.153956
v 0.758538 -0.030000 -1.435357
v 0.758538 0.030000 -1.435357
v 0.566589 -0.025279 -1.541986
v 0.566589 0.054721 -1.541986
v 0.538456 -0.025279 -1.531566
v 0.538456 0.054721 -1.531566
v 0.528037 -0.025279 -1.559699
v 0.528037 0.054721 -1.559699
v 0.556170 -0.025279 -1.570118
v 0.556170 0.054721 -1.570118
v -0.029572 -0.025279 -1.321192
v -0.029572 0.054721 -1.321192
v -0.001439 -0.025279 -1.331611
v -0.001439 0.054721 -1.331611
v -0.011858 -0.025279 -1.359744
v -0.011858 0.054721 -1.359744
v -0.039991 -0.025279 -1.349324
v -0.039991 0.054721 -1.349324
v 0.728354 -0.030000 -1.543246
v 0.728354 0.030000 -1.543246
v -0.153133 -0.030000 -1.216779
v -0.153133 0.030000 -1.216779
v -0.201756 -0.030000 -1.348064
v -0.201756 0.030000 -1.348064
v 0.679731 -0.030000 -1.674531
v 0.679731 0.030000 -1.674531
v 0.482628 -0.025279 -1.771300
v 0.482628 0.054721 -1.771300
v 0.455059 -0.025279 -1.759470
v 0.455059 0.054721 -1.759470
v 0.443228 -0.025279 -1.787039
v 0.443228 0.054721 -1.787039
v 0.470797 -0.025279 -1.798869
v 0.470797 0.054721 -1.798869
v -0.101585 -0.025279 -1.520595
v -0.101585 0.054721 -1.520595
v -0.074016 -0.025279 -1.532426
v -0.074016 0.054721 -1.532426
v -0.085847 -0.025279 -1.559994
v -0.085847 0.054721 -1.559994
v -0.113416 -0.025279 -1.548164
v -0.113416 0.054721 -1.548164
v 0.644121 -0.030000 -1.780752
v 0.644121 0.030000 -1.780752
v -0.219700 -0.030000 -1.410058
v -0.219700 0.030000 -1.410058
v -0.274909 -0.030000 -1.538712
v -0.274909 0.030000 -1.538712
v 0.588911 -0.030000 -1.909406
v 0.588911 0.030000 -1.909406
v 0.387160 -0.025279 -1.996068
v 0.387160 0.054721 -1.996068
v 0.360225 -0.025279 -1.982857
v 0.360225 0.054721 -1.982857
v 0.347014 -0.025279 -2.009791
v 0.347014 0.054721 -2.009791
v 0.373948 -0.025279 -2.023002
v 0.373948 0.054721 -2.023002
v -0.183606 -0.025279 -1.716095
v -0.183606 0.054721 -1.716095
v -0.156671 -0.025279 -1.729307
v -0.156671 0.054721 -1.729307
v -0.169883 -0.025279 -1.756241
v -0.169883 0.054721 -1.756241
v -0.196817 -0.025279 -1.743029
v -0.196817 0.054721 -1.743029
v 0.547967 -0.030000 -2.013688
v 0.547967 0.030000 -2.013688
v -0.295970 -0.030000 -1.599717
v -0.295970 0.030000 -1.599717
v -0.357625 -0.030000 -1.725410
v -0.357625 0.030000 -1.725410
v 0.486312 -0.030000 -2.139380
v 0.486312 0.030000 -2.139380
v 0.280430 -0.025279 -2.215713
v 0.280430 0.054721 -2.215713
v 0.254199 -0.025279 -2.201154
v 0.254199 0.054721 -2.201154
v 0.239640 -0.025279 -2.227384
v 0.239640 0.054721 -2.227384
v 0.265871 -0.025279 -2.241943
v 0.265871 0.054721 -2.241943
v -0.275423 -0.025279 -1.907189
v -0.275423 0.054721 -1.907189
v -0.249192 -0.025279 -1.921748
v -0.249192 0.054721 -1.921748
v -0.263751 -0.025279 -1.947979
v -0.263751 0.054721 -1.947979
v -0.289981 -0.025279 -1.933420
v -0.289981 0.054721 -1.933420
v 0.440138 -0.030000 -2.241454
v 0.440138 0.030000 -2.241454
v -0.381748 -0.030000 -1.785270
v -0.381748 0.030000 -1.785270
v -0.449690 -0.030000 -1.907678
v -0.449690 0.030000 -1.907678
v 0.372196 -0.030000 -2.363862
v 0.372196 0.030000 -2.363862
v 0.162712 -0.025279 -2.429669
v 0.162712 0.054721 -2.429669
v 0.137253 -0.025279 -2.413800
v 0.137253 0.054721 -2.413800
v 0.121384 -0.025279 -2.439260
v 0.121384 0.054721 -2.439260
v 0.146843 -0.025279 -2.455128
v 0.146843 0.054721 -2.455128
v -0.376800 -0.025279 -2.093388
v -0.376800 0.054721 -2.093388
v -0.351341 -0.025279 -2.109257
v -0.351341 0.054721 -2.109257
v -0.367210 -0.025279 -2.134717
v -0.367210 0.054721 -2.134717
v -0.392669 -0.025279 -2.118848
v -0.392669 0.054721 -2.118848
v 0.320912 -0.030000 -2.463467
v 0.320912 0.030000 -2.463467
v -0.476814 -0.030000 -1.966240
v -0.476814 0.030000 -1.966240
v -0.550869 -0.030000 -2.085050
v -0.550869 0.030000 -2.085050
v 0.246857 -0.030000 -2.582277
v 0.246857 0.030000 -2.582277
v 0.034309 -0.025279 -2.637388
v 0.034309 0.054721 -2.637388
v 0.009686 -0.025279 -2.620251
v 0.009686 0.054721 -2.620251
v -0.007452 -0.025279 -2.644874
v -0.007452 0.054721 -2.644874
v 0.017170 -0.025279 -2.662011
v 0.017170 0.054721 -2.662011
v -0.487479 -0.025279 -2.274214
v -0.487479 0.054721 -2.274214
v -0.462856 -0.025279 -2.291352
v -0.462856 0.054721 -2.291352
v -0.479994 -0.025279 -2.315975
v -0.479994 0.054721 -2.315975
v -0.504617 -0.025279 -2.298837
v -0.504617 0.054721 -2.298837
v 0.190594 -0.030000 -2.679156
v 0.190594 0.030000 -2.679156
v -0.580925 -0.030000 -2.142163
v -0.580925 0.030000 -2.142163
v -0.660902 -0.030000 -2.257070
v -0.660902 0.030000 -2.257070
v 0.110616 -0.030000 -2.794062
v 0.110616 0.030000 -2.794062
v -0.104451 -0.025279 -2.838337
v -0.104451 0.054721 -2.838337
v -0.128174 -0.025279 -2.819975
v -0.128174 0.054721 -2.819975
v -0.146537 -0.025279 -2.843698
v -0.146537 0.054721 -2.843698
v -0.122814 -0.025279 -2.862061
v -0.122814 0.054721 -2.862061
v -0.607174 -0.025279 -2.449201
v -0.607174 0.054721 -2.449201
v -0.583451 -0.025279 -2.467564
v -0.583451 0.054721 -2.467564
v -0.601814 -0.025279 -2.491288
v -0.601814 0.054721 -2.491288
v -0.625537 -0.025279 -2.472924
v -0.625537 0.054721 -2.472924
v 0.049518 -0.030000 -2.887967
v 0.049518 0.030000 -2.887967
v -0.693812 -0.030000 -2.312587
v -0.693812 0.030000 -2.312587
v -0.779507 -0.030000 -2.423295
v -0.779507 0.030000 -2.423295
v -0.036177 -0.030000 -2.998675
v -0.036177 0.030000 -2.998675
v -0.253210 -0.025279 -3.032001
v -0.253210 0.054721 -3.032001
v -0.275973 -0.025279 -3.012460
v -0.275973 0.054721 -3.012460
v -0.295514 -0.025279 -3.035223
v -0.295514 0.054721 -3.035223
v -0.272751 -0.025279 -3.054764
v -0.272751 0.054721 -3.054764
v -0.735579 -0.025279 -2.617901
v -0.735579 0.054721 -2.617901
v -0.712816 -0.025279 -2.637442
v -0.712816 0.054721 -2.637442
v -0.732357 -0.025279 -2.660206
v -0.732357 0.054721 -2.660206
v -0.755120 -0.025279 -2.640664
v -0.755120 0.054721 -2.640664
v -0.101952 -0.030000 -3.089365
v -0.101952 0.030000 -3.089365
v -0.815186 -0.030000 -2.477075
v -0.815186 0.030000 -2.477075
v -0.906378 -0.030000 -2.583301
v -0.906378 0.030000 -2.583301
v -0.193144 -0.030000 -3.195591
v -0.193144 0.030000 -3.195591
v -0.411587 -0.025279 -3.217881
v -0.411587 0.054721 -3.217881
v -0.433331 -0.025279 -3.197213
v -0.433331 0.054721 -3.197213
v -0.454000 -0.025279 -3.218957
v -0.454000 0.054721 -3.218957
v -0.432256 -0.025279 -3.239625
v -0.432256 0.054721 -3.239625
v -0.872363 -0.025279 -2.779881
v -0.872363 0.054721 -2.779881
v -0.850619 -0.025279 -2.800550
v -0.850619 0.054721 -2.800550
v -0.871288 -0.025279 -2.822295
v -0.871288 0.054721 -2.822295
v -0.893032 -0.025279 -2.801626
v -0.893032 0.054721 -2.801626
v -0.263429 -0.030000 -3.282833
v -0.263429 0.030000 -3.282833
v -0.944735 -0.030000 -2.635204
v -0.944735 0.030000 -2.635204
v -1.041190 -0.030000 -2.736674
v -1.041190 0.030000 -2.736674
v -0.359884 -0.030000 -3.384304
v -0.359884 0.030000 -3.384304
v -0.579176 -0.025279 -3.395501
v -0.579176 0.054721 -3.395501
v -0.599845 -0.025279 -3.373758
v -0.599845 0.054721 -3.373758
v -0.621589 -0.025279 -3.394428
v -0.621589 0.054721 -3.394428
v -0.600920 -0.025279 -3.416170
v -0.600920 0.054721 -3.416170
v -1.017176 -0.025279 -2.934726
v -1.017176 0.054721 -2.934726
v -0.996507 -0.025279 -2.956470
v -0.996507 0.054721 -2.956470
v -1.018250 -0.025279 -2.977139
v -1.018250 0.054721 -2.977139
v -1.038920 -0.025279 -2.955395
v -1.038920 0.054721 -2.955395
v -0.434497 -0.030000 -3.467874
v -0.434497 0.030000 -3.467874
v -1.082127 -0.030000 -2.786568
v -1.082127 0.030000 -2.786568
v -1.183598 -0.030000 -2.883023
v -1.183598 0.030000 -2.883023
v -0.535969 -0.030000 -3.564329
v -0.535969 0.030000 -3.564329
v -0.755545 -0.025279 -3.564405
v -0.755545 0.054721 -3.564405
v -0.775087 -0.025279 -3.541643
v -0.775087 0.054721 -3.541643
v -0.797850 -0.025279 -3.561185
v -0.797850 0.054721 -3.561185
v -0.778308 -0.025279 -3.583946
v -0.778308 0.054721 -3.583946
v -1.169645 -0.025279 -3.082036
v -1.169645 0.054721 -3.082036
v -1.150104 -0.025279 -3.104800
v -1.150104 0.054721 -3.104800
v -1.172867 -0.025279 -3.124341
v -1.172867 0.054721 -3.124341
v -1.192408 -0.025279 -3.101578
v -1.192408 0.054721 -3.101578
v -0.614718 -0.030000 -3.644012
v -0.614718 0.030000 -3.644012
v -1.227009 -0.030000 -2.930779
v -1.227009 0.030000 -2.930779
v -1.333236 -0.030000 -3.021971
v -1.333236 0.030000 -3.021971
v -0.720945 -0.030000 -3.735204
v -0.720945 0.030000 -3.735204
v -0.940244 -0.025279 -3.724159
v -0.940244 0.054721 -3.724159
v -0.958607 -0.025279 -3.700437
v -0.958607 0.054721 -3.700437
v -0.982330 -0.025279 -3.718800
v -0.982330 0.054721 -3.718800
v -0.963967 -0.025279 -3.742523
v -0.963967 0.054721 -3.742523
v -1.329381 -0.025279 -3.221436
v -1.329381 0.054721 -3.221436
v -1.311017 -0.025279 -3.245159
v -1.311017 0.054721 -3.245159
v -1.334741 -0.025279 -3.263523
v -1.334741 0.054721 -3.263523
v -1.353104 -0.025279 -3.239799
v -1.353104 0.054721 -3.239799
v -0.803629 -0.030000 -3.810797
v -0.803629 0.030000 -3.810797
v -1.379010 -0.030000 -3.067467
v -1.379010 0.030000 -3.067467
v -1.489719 -0.030000 -3.153162
v -1.489719 0.030000 -3.153162
v -0.914338 -0.030000 -3.896492
v -0.914338 0.030000 -3.896492
v -1.132796 -0.025279 -3.874353
v -1.132796 0.054721 -3.874353
v -1.149935 -0.025279 -3.849731
v -1.149935 0.054721 -3.849731
v -1.174558 -0.025279 -3.866870
v -1.174558 0.054721 -3.866870
v -1.157419 -0.025279 -3.891492
v -1.157419 0.054721 -3.891492
v -1.495971 -0.025279 -3.352566
v -1.495971 0.054721 -3.352566
v -1.478833 -0.025279 -3.377189
v -1.478833 0.054721 -3.377189
v -1.503456 -0.025279 -3.394327
v -1.503456 0.054721 -3.394327
v -1.520595 -0.025279 -3.369704
v -1.520595 0.054721 -3.369704
v -1.000745 -0.030000 -3.967800
v -1.000745 0.030000 -3.967800
v -1.537738 -0.030000 -3.196281
v -1.537738 0.030000 -3.196281
v -1.652646 -0.030000 -3.276259
v -1.652646 0.030000 -3.276259
v -1.115653 -0.030000 -4.047777
v -1.115653 0.030000 -4.047777
v -1.332709 -0.025279 -4.014602
v -1.332709 0.054721 -4.014602
v -1.348578 -0.025279 -3.989144
v -1.348578 0.054721 -3.989144
v -1.374038 -0.025279 -4.005013
v -1.374038 0.054721 -4.005013
v -1.358169 -0.025279 -4.030472
v -1.358169 0.054721 -4.030472
v -1.668990 -0.025279 -3.475090
v -1.668990 0.054721 -3.475090
v -1.653121 -0.025279 -3.500550
v -1.653121 0.054721 -3.500550
v -1.678580 -0.025279 -3.516419
v -1.678580 0.054721 -3.516419
v -1.694449 -0.025279 -3.490959
v -1.694449 0.054721 -3.490959
v -1.205560 -0.030000 -4.114617
v -1.205560 0.030000 -4.114617
v -1.702788 -0.030000 -3.316891
v -1.702788 0.030000 -3.316891
v -1.821598 -0.030000 -3.390945
v -1.821598 0.030000 -3.390945
v -1.324371 -0.030000 -4.188672
v -1.324371 0.030000 -4.188672
v -1.539469 -0.025279 -4.144546
v -1.539469 0.054721 -4.144546
v -1.554028 -0.025279 -4.118316
v -1.554028 0.054721 -4.118316
v -1.580259 -0.025279 -4.132875
v -1.580259 0.054721 -4.132875
v -1.565699 -0.025279 -4.159105
v -1.565699 0.054721 -4.159105
v -1.847992 -0.025279 -3.588694
v -1.847992 0.054721 -3.588694
v -1.833433 -0.025279 -3.614924
v -1.833433 0.054721 -3.614924
v -1.859663 -0.025279 -3.629483
v -1.859663 0.054721 -3.629483
v -1.874223 -0.025279 -3.603253
v -1.874223 0.054721 -3.603253
v -1.417549 -0.030000 -4.250872
v -1.417549 0.030000 -4.250872
v -1.873734 -0.030000 -3.428985
v -1.873734 0.030000 -3.428985
v -1.996143 -0.030000 -3.496927
v -1.996143 0.030000 -3.496927
v -1.539958 -0.030000 -4.318814
v -1.539958 0.030000 -4.318814
v -1.752544 -0.025279 -4.263850
v -1.752544 0.054721 -4.263850
v -1.765757 -0.025279 -4.236917
v -1.765757 0.054721 -4.236917
v -1.792691 -0.025279 -4.250129
v -1.792691 0.054721 -4.250129
v -1.779479 -0.025279 -4.277062
v -1.779479 0.054721 -4.277062
v -2.032518 -0.025279 -3.693085
v -2.032518 0.054721 -3.693085
v -2.019306 -0.025279 -3.720019
v -2.019306 0.054721 -3.720019
v -2.046241 -0.025279 -3.733232
v -2.046241 0.054721 -3.733232
v -2.059453 -0.025279 -3.706297
v -2.059453 0.054721 -3.706297
v -1.636167 -0.030000 -4.376215
v -1.636167 0.030000 -4.376215
v -2.050138 -0.030000 -3.532278
v -2.050138 0.030000 -3.532278
v -2.175831 -0.030000 -3.593933
v -2.175831 0.030000 -3.593933
v -1.761859 -0.030000 -4.437870
v -1.761859 0.030000 -4.437870
v -1.971389 -0.025279 -4.372209
v -1.971389 0.054721 -4.372209
v -1.983220 -0.025279 -4.344642
v -1.983220 0.054721 -4.344642
v -2.010789 -0.025279 -4.356472
v -2.010789 0.054721 -4.356472
v -1.998958 -0.025279 -4.384041
v -1.998958 0.054721 -4.384041
v -2.222095 -0.025279 -3.787996
v -2.222095 0.054721 -3.787996
v -2.210264 -0.025279 -3.815565
v -2.210264 0.054721 -3.815565
v -2.237833 -0.025279 -3.827396
v -2.237833 0.054721 -3.827396
v -2.249664 -0.025279 -3.799827
v -2.249664 0.054721 -3.799827
v -1.860852 -0.030000 -4.490324
v -1.860852 0.030000 -4.490324
v -2.231547 -0.030000 -3.626503
v -2.231547 0.030000 -3.626503
v -2.360202 -0.030000 -3.681713
v -2.360202 0.030000 -3.681713
v -1.989506 -0.030000 -4.545534
v -1.989506 0.030000 -4.545534
v -2.195441 -0.025279 -4.469345
v -2.195441 0.054721 -4.469345
v -2.205861 -0.025279 -4.441214
v -2.205861 0.054721 -4.441214
v -2.233994 -0.025279 -4.451633
v -2.233994 0.054721 -4.451633
v -2.223574 -0.025279 -4.479765
v -2.223574 0.054721 -4.479765
v -2.416236 -0.025279 -3.873184
v -2.416236 0.054721 -3.873184
v -2.405816 -0.025279 -3.901317
v -2.405816 0.054721 -3.901317
v -2.433949 -0.025279 -3.911736
v -2.433949 0.054721 -3.911736
v -2.444368 -0.025279 -3.883604
v -2.444368 0.054721 -3.883604
v -2.091029 -0.030000 -4.592907
v -2.091029 0.030000 -4.592907
v -2.417496 -0.030000 -3.711420
v -2.417496 0.030000 -3.711420
v -2.548782 -0.030000 -3.760042
v -2.548782 0.030000 -3.760042
v -2.222314 -0.030000 -4.641530
v -2.222314 0.030000 -4.641530
v -2.424126 -0.025279 -4.555008
v -2.424126 0.054721 -4.555008
v -2.433108 -0.025279 -4.526385
v -2.433108 0.054721 -4.526385
v -2.461732 -0.025279 -4.535366
v -2.461732 0.054721 -4.535366
v -2.452751 -0.025279 -4.563990
v -2.452751 0.054721 -4.563990
v -2.614442 -0.025279 -3.948429
v -2.614442 0.054721 -3.948429
v -2.605461 -0.025279 -3.977054
v -2.605461 0.054721 -3.977054
v -2.634085 -0.025279 -3.986035
v -2.634085 0.054721 -3.986035
v -2.643066 -0.025279 -3.957411
v -2.643066 0.054721 -3.957411
v -2.326106 -0.030000 -4.683701
v -2.326106 0.030000 -4.683701
v -2.607508 -0.030000 -3.786809
v -2.607508 0.030000 -3.786809
v -2.741088 -0.030000 -3.828719
v -2.741088 0.030000 -3.828719
v -2.459685 -0.030000 -4.725611
v -2.459685 0.030000 -4.725611
v -2.656856 -0.025279 -4.628979
v -2.656856 0.054721 -4.628979
v -2.664376 -0.025279 -4.599938
v -2.664376 0.054721 -4.599938
v -2.693419 -0.025279 -4.607457
v -2.693419 0.054721 -4.607457
v -2.685899 -0.025279 -4.636499
v -2.685899 0.054721 -4.636499
v -2.816205 -0.025279 -4.013539
v -2.816205 0.054721 -4.013539
v -2.808685 -0.025279 -4.042582
v -2.808685 0.054721 -4.042582
v -2.837728 -0.025279 -4.050101
v -2.837728 0.054721 -4.050101
v -2.845247 -0.025279 -4.021059
v -2.845247 0.054721 -4.021059
v -2.565480 -0.030000 -4.762470
v -2.565480 0.030000 -4.762470
v -2.801094 -0.030000 -3.852477
v -2.801094 0.030000 -3.852477
v -2.936625 -0.030000 -3.887568
v -2.936625 0.030000 -3.887568
v -2.701010 -0.030000 -4.797562
v -2.701010 0.030000 -4.797562
v -2.893034 -0.025279 -4.691067
v -2.893034 0.054721 -4.691067
v -2.899074 -0.025279 -4.661683
v -2.899074 0.054721 -4.661683
v -2.928460 -0.025279 -4.667720
v -2.928460 0.054721 -4.667720
v -2.922420 -0.025279 -4.697106
v -2.922420 0.054721 -4.697106
v -3.021007 -0.025279 -4.068346
v -3.021007 0.054721 -4.068346
v -3.014967 -0.025279 -4.097732
v -3.014967 0.054721 -4.097732
v -3.044353 -0.025279 -4.103772
v -3.044353 0.054721 -4.103772
v -3.050392 -0.025279 -4.074386
v -3.050392 0.054721 -4.074386
v -2.808536 -0.030000 -4.829015
v -2.808536 0.030000 -4.829015
v -2.997757 -0.030000 -3.908256
v -2.997757 0.030000 -3.908256
v -3.134892 -0.030000 -3.936437
v -3.134892 0.030000 -3.936437
v -2.945670 -0.030000 -4.857197
v -2.945670 0.030000 -4.857197
v -3.132053 -0.025279 -4.741113
v -3.132053 0.054721 -4.741113
v -3.136597 -0.025279 -4.711460
v -3.136597 0.054721 -4.711460
v -3.166251 -0.025279 -4.716002
v -3.166251 0.054721 -4.716002
v -3.161708 -0.025279 -4.745656
v -3.161708 0.054721 -4.745656
v -3.228322 -0.025279 -4.112710
v -3.228322 0.054721 -4.112710
v -3.223778 -0.025279 -4.142364
v -3.223778 0.054721 -4.142364
v -3.253433 -0.025279 -4.146907
v -3.253433 0.054721 -4.146907
v -3.257975 -0.025279 -4.117253
v -3.257975 0.054721 -4.117253
v -3.054651 -0.030000 -4.883163
v -3.054651 0.030000 -4.883163
v -3.196994 -0.030000 -3.954003
v -3.196994 0.030000 -3.954003
v -3.335379 -0.030000 -3.975202
v -3.335379 0.030000 -3.975202
v -3.193036 -0.030000 -4.904364
v -3.193036 0.030000 -4.904364
v -3.373300 -0.025279 -4.778988
v -3.373300 0.054721 -4.778988
v -3.376337 -0.025279 -4.749144
v -3.376337 0.054721 -4.749144
v -3.406183 -0.025279 -4.752178
v -3.406183 0.054721 -4.752178
v -3.403147 -0.025279 -4.782023
v -3.403147 0.054721 -4.782023
v -3.437617 -0.025279 -4.146516
v -3.437617 0.054721 -4.146516
v -3.434582 -0.025279 -4.176362
v -3.434582 0.054721 -4.176362
v -3.464428 -0.025279 -4.179398
v -3.464428 0.054721 -4.179398
v -3.467463 -0.025279 -4.149552
v -3.467463 0.054721 -4.149552
v -3.303192 -0.030000 -4.924777
v -3.303192 0.030000 -4.924777
v -3.398291 -0.030000 -3.989599
v -3.398291 0.030000 -3.989599
v -3.537572 -0.030000 -4.003762
v -3.537572 0.030000 -4.003762
v -3.442474 -0.030000 -4.938941
v -3.442474 0.030000 -4.938941
v -3.616156 -0.025279 -4.804596
v -3.616156 0.054721 -4.804596
v -3.617678 -0.025279 -4.774637
v -3.617678 0.054721 -4.774637
v -3.647639 -0.025279 -4.776155
v -3.647639 0.054721 -4.776155
v -3.646119 -0.025279 -4.806116
v -3.646119 0.054721 -4.806116
v -3.648357 -0.025279 -4.169679
v -3.648357 0.054721 -4.169679
v -3.646837 -0.025279 -4.199640
v -3.646837 0.054721 -4.199640
v -3.676798 -0.025279 -4.201160
v -3.676798 0.054721 -4.201160
v -3.678318 -0.025279 -4.171199
v -3.678318 0.054721 -4.171199
v -3.553522 -0.030000 -4.953749
v -3.553522 0.030000 -4.953749
v -3.601133 -0.030000 -4.014955
v -3.601133 0.030000 -4.014955
v -3.740953 -0.030000 -4.022045
v -3.740953 0.030000 -4.022045
v -3.693343 -0.030000 -4.960840
v -3.693343 0.030000 -4.960840
v -3.859997 -0.025279 -4.817871
v -3.859997 0.054721 -4.817871
v -3.860000 -0.025279 -4.787873
v -3.860000 0.054721 -4.787873
v -3.889999 -0.025279 -4.787871
v -3.889999 0.054721 -4.787871
v -3.889998 -0.025279 -4.817872
v -3.889998 0.054721 -4.817872
v -3.859999 -0.025279 -4.182137
v -3.859999 0.054721 -4.182137
v -3.859998 -0.025279 -4.212137
v -3.859998 0.054721 -4.212137
v -3.889998 -0.025279 -4.212138
v -3.889998 0.054721 -4.212138
v -3.889998 -0.025279 -4.182138
v -3.889998 0.054721 -4.182138
v -3.804998 -0.030000 -4.970004
v -3.804998 0.030000 -4.970004
v -3.804999 -0.030000 -4.030004
v -3.804999 0.030000 -4.030004
v -3.944999 -0.030000 -4.030004
v -3.944999 0.030000 -4.030004
v -3.944999 -0.030000 -4.970005
v -3.944999 0.030000 -4.970005
v 0.116846 0.025803 -0.432698
v 0.176518 0.025803 -0.438970
v 0.116846 0.041289 -0.432698
v 0.124913 0.085803 -0.433546
v 0.158870 0.071584 -0.437115
v 0.134494 0.041289 -0.434553
v 0.124913 0.071584 -0.433546
v 0.134494 0.071584 -0.434553
v 0.158870 0.041289 -0.437115
v 0.168451 0.071584 -0.438122
v 0.176518 0.041289 -0.438970
v 0.168451 0.085803 -0.438122
v 0.833851 0.025803 -0.508058
v 0.774180 0.025803 -0.501786
v 0.833851 0.041289 -0.508058
v 0.825784 0.085803 -0.507210
v 0.791827 0.071584 -0.503641
v 0.816203 0.041289 -0.506203
v 0.825784 0.071584 -0.507210
v 0.816203 0.071584 -0.506203
v 0.791827 0.041289 -0.503641
v 0.782246 0.071584 -0.502634
v 0.774180 0.041289 -0.501786
v 0.782246 0.085803 -0.502634
v 0.049065 0.025803 -0.860655
v 0.107753 0.025803 -0.873130
v 0.049065 0.041289 -0.860655
v 0.056998 0.085803 -0.862342
v 0.090396 0.071584 -0.869441
v 0.066422 0.041289 -0.864345
v 0.056998 0.071584 -0.862342
v 0.066422 0.071584 -0.864345
v 0.090396 0.041289 -0.869441
v 0.099820 0.071584 -0.871444
v 0.107753 0.041289 -0.873130
v 0.099820 0.085803 -0.871444
v 0.754264 0.025803 -1.010550
v 0.695575 0.025803 -0.998075
v 0.754264 0.041289 -1.010550
v 0.746330 0.085803 -1.008864
v 0.712932 0.071584 -1.001765
v 0.736907 0.041289 -1.006861
v 0.746330 0.071584 -1.008864
v 0.736907 0.071584 -1.006861
v 0.712932 0.041289 -1.001765
v 0.703509 0.071584 -0.999762
v 0.695575 0.041289 -0.998075
v 0.703509 0.085803 -0.999762
v -0.063080 0.025803 -1.279183
v -0.006016 0.025803 -1.297724
v -0.063080 0.041289 -1.279183
v -0.055366 0.085803 -1.281689
v -0.022893 0.071584 -1.292241
v -0.046203 0.041289 -1.284667
v -0.055366 0.071584 -1.281689
v -0.046203 0.071584 -1.284667
v -0.022893 0.041289 -1.292241
v -0.013730 0.071584 -1.295218
v -0.006016 0.041289 -1.297724
v -0.013730 0.085803 -1.295218
v 0.622588 0.025803 -1.501970
v 0.565525 0.025803 -1.483429
v 0.622588 0.041289 -1.501970
v 0.614874 0.085803 -1.499464
v 0.582402 0.071584 -1.488913
v 0.605712 0.041289 -1.496486
v 0.614874 0.071584 -1.499464
v 0.605712 0.071584 -1.496486
v 0.582402 0.041289 -1.488913
v 0.573239 0.071584 -1.485935
v 0.565525 0.041289 -1.483429
v 0.573239 0.085803 -1.485935
v -0.218358 0.025803 -1.683696
v -0.163545 0.025803 -1.708100
v -0.218358 0.041289 -1.683696
v -0.210948 0.085803 -1.686995
v -0.179756 0.071584 -1.700882
v -0.202147 0.041289 -1.690913
v -0.210948 0.071584 -1.686995
v -0.202147 0.071584 -1.690913
v -0.179756 0.041289 -1.700882
v -0.170955 0.071584 -1.704801
v -0.163545 0.041289 -1.708100
v -0.170955 0.085803 -1.704801
v 0.440267 0.025803 -1.976934
v 0.385454 0.025803 -1.952530
v 0.440267 0.041289 -1.976934
v 0.432857 0.085803 -1.973635
v 0.401665 0.071584 -1.959748
v 0.424056 0.041289 -1.969717
v 0.432857 0.071584 -1.973635
v 0.424056 0.071584 -1.969717
v 0.401665 0.041289 -1.959748
v 0.392864 0.071584 -1.955829
v 0.385454 0.041289 -1.952530
v 0.392864 0.085803 -1.955829
v -0.415068 0.025803 -2.069762
v -0.363106 0.025803 -2.099761
v -0.415068 0.041289 -2.069762
v -0.408043 0.085803 -2.073817
v -0.378474 0.071584 -2.090889
v -0.399700 0.041289 -2.078634
v -0.408043 0.071584 -2.073817
v -0.399700 0.071584 -2.078634
v -0.378474 0.041289 -2.090889
v -0.370131 0.071584 -2.095706
v -0.363106 0.041289 -2.099761
v -0.370131 0.085803 -2.095706
v 0.209297 0.025803 -2.430239
v 0.157335 0.025803 -2.400239
v 0.209297 0.041289 -2.430239
v 0.202272 0.085803 -2.426183
v 0.172703 0.071584 -2.409111
v 0.193929 0.041289 -2.421366
v 0.202272 0.071584 -2.426183
v 0.193929 0.071584 -2.421366
v 0.172703 0.041289 -2.409111
v 0.164360 0.071584 -2.404294
v 0.157335 0.041289 -2.400239
v 0.164360 0.085803 -2.404294
v -0.651056 0.025803 -2.433151
v -0.602514 0.025803 -2.468418
v -0.651056 0.041289 -2.433151
v -0.644493 0.085803 -2.437918
v -0.616870 0.071584 -2.457988
v -0.636700 0.041289 -2.443581
v -0.644493 0.071584 -2.437918
v -0.636700 0.071584 -2.443581
v -0.616870 0.041289 -2.457988
v -0.609076 0.071584 -2.463650
v -0.602514 0.041289 -2.468418
v -0.609076 0.085803 -2.463650
v -0.067791 0.025803 -2.856917
v -0.116332 0.025803 -2.821650
v -0.067791 0.041289 -2.856917
v -0.074353 0.085803 -2.852149
v -0.101977 0.071584 -2.832080
v -0.082147 0.041289 -2.846487
v -0.074353 0.071584 -2.852149
v -0.082147 0.071584 -2.846487
v -0.101977 0.041289 -2.832080
v -0.109770 0.071584 -2.826417
v -0.116332 0.041289 -2.821650
v -0.109770 0.085803 -2.826417
v -0.923735 0.025803 -2.769882
v -0.879146 0.025803 -2.810030
v -0.923735 0.041289 -2.769882
v -0.917707 0.085803 -2.775309
v -0.892333 0.071584 -2.798156
v -0.910548 0.041289 -2.781755
v -0.917707 0.071584 -2.775309
v -0.910548 0.071584 -2.781755
v -0.892333 0.041289 -2.798156
v -0.885174 0.071584 -2.804602
v -0.879146 0.041289 -2.810030
v -0.885174 0.085803 -2.804602
v -0.387962 0.025803 -3.252294
v -0.432550 0.025803 -3.212146
v -0.387962 0.041289 -3.252294
v -0.393989 0.085803 -3.246867
v -0.419363 0.071584 -3.224020
v -0.401149 0.041289 -3.240421
v -0.393989 0.071584 -3.246867
v -0.401149 0.071584 -3.240421
v -0.419363 0.041289 -3.224020
v -0.426522 0.071584 -3.217574
v -0.432550 0.041289 -3.212146
v -0.426522 0.085803 -3.217574
v -1.230119 0.025803 -3.076265
v -1.189970 0.025803 -3.120854
v -1.230119 0.041289 -3.076265
v -1.224691 0.085803 -3.082293
v -1.201844 0.071584 -3.107667
v -1.218245 0.041289 -3.089453
v -1.224691 0.071584 -3.082293
v -1.218245 0.071584 -3.089453
v -1.201844 0.041289 -3.107667
v -1.195398 0.071584 -3.114826
v -1.189970 0.041289 -3.120854
v -1.195398 0.085803 -3.114826
v -0.747706 0.025803 -3.612039
v -0.787854 0.025803 -3.567450
v -0.747706 0.041289 -3.612039
v -0.753133 0.085803 -3.606011
v -0.775980 0.071584 -3.580637
v -0.759580 0.041289 -3.598852
v -0.753133 0.071584 -3.606011
v -0.759580 0.071584 -3.598852
v -0.775980 0.041289 -3.580637
v -0.782426 0.071584 -3.573478
v -0.787854 0.041289 -3.567450
v -0.782426 0.085803 -3.573478
v -1.566849 0.025803 -3.348945
v -1.531582 0.025803 -3.397486
v -1.566849 0.041289 -3.348945
v -1.562082 0.085803 -3.355507
v -1.542012 0.071584 -3.383130
v -1.556419 0.041289 -3.363301
v -1.562082 0.071584 -3.355507
v -1.556419 0.071584 -3.363301
v -1.542012 0.041289 -3.383130
v -1.536350 0.071584 -3.390924
v -1.531582 0.041289 -3.397486
v -1.536350 0.085803 -3.390924
v -1.143083 0.025803 -3.932209
v -1.178350 0.025803 -3.883668
v -1.143083 0.041289 -3.932209
v -1.147851 0.085803 -3.925647
v -1.167920 0.071584 -3.898024
v -1.153513 0.041289 -3.917853
v -1.147851 0.071584 -3.925647
v -1.153513 0.071584 -3.917853
v -1.167920 0.041289 -3.898024
v -1.173583 0.071584 -3.890230
v -1.178350 0.041289 -3.883668
v -1.173583 0.085803 -3.890230
v -1.930238 0.025803 -3.584932
v -1.900239 0.025803 -3.636894
v -1.930238 0.041289 -3.584932
v -1.926183 0.085803 -3.591957
v -1.909111 0.071584 -3.621526
v -1.921366 0.041289 -3.600300
v -1.926183 0.071584 -3.591957
v -1.921366 0.071584 -3.600300
v -1.909111 0.041289 -3.621526
v -1.904294 0.071584 -3.629869
v -1.900239 0.041289 -3.636894
v -1.904294 0.085803 -3.629869
v -1.569762 0.025803 -4.209297
v -1.599761 0.025803 -4.157336
v -1.569762 0.041289 -4.209297
v -1.573817 0.085803 -4.202273
v -1.590889 0.071584 -4.172703
v -1.578634 0.041289 -4.193930
v -1.573817 0.071584 -4.202273
v -1.578634 0.071584 -4.193930
v -1.590889 0.041289 -4.172703
v -1.595706 0.071584 -4.164360
v -1.599761 0.041289 -4.157336
v -1.595706 0.085803 -4.164360
v -2.316304 0.025803 -3.781643
v -2.291900 0.025803 -3.836456
v -2.316304 0.041289 -3.781643
v -2.313006 0.085803 -3.789053
v -2.299118 0.071584 -3.820245
v -2.309087 0.041289 -3.797854
v -2.313006 0.071584 -3.789053
v -2.309087 0.071584 -3.797854
v -2.299118 0.041289 -3.820245
v -2.295199 0.071584 -3.829046
v -2.291900 0.041289 -3.836456
v -2.295199 0.085803 -3.829046
v -2.023066 0.025803 -4.440267
v -2.047470 0.025803 -4.385455
v -2.023066 0.041289 -4.440267
v -2.026365 0.085803 -4.432858
v -2.040253 0.071584 -4.401665
v -2.030283 0.041289 -4.424057
v -2.026365 0.071584 -4.432858
v -2.030283 0.071584 -4.424057
v -2.040253 0.041289 -4.401665
v -2.044171 0.071584 -4.392864
v -2.047470 0.041289 -4.385455
v -2.044171 0.085803 -4.392864
v -2.720817 0.025803 -3.936921
v -2.702276 0.025803 -3.993984
v -2.720817 0.041289 -3.936921
v -2.718311 0.085803 -3.944635
v -2.707760 0.071584 -3.977108
v -2.715334 0.041289 -3.953797
v -2.718311 0.071584 -3.944635
v -2.715334 0.071584 -3.953797
v -2.707760 0.041289 -3.977108
v -2.704783 0.071584 -3.986270
v -2.702276 0.041289 -3.993984
v -2.704783 0.085803 -3.986270
v -2.498030 0.025803 -4.622589
v -2.516571 0.025803 -4.565526
v -2.498030 0.041289 -4.622589
v -2.500536 0.085803 -4.614875
v -2.511088 0.071584 -4.582402
v -2.503513 0.041289 -4.605713
v -2.500536 0.071584 -4.614875
v -2.503513 0.071584 -4.605713
v -2.511088 0.041289 -4.582402
v -2.514065 0.071584 -4.573239
v -2.516571 0.041289 -4.565526
v -2.514065 0.085803 -4.573239
v -3.139345 0.025803 -4.049065
v -3.126871 0.025803 -4.107754
v -3.139345 0.041289 -4.049065
v -3.137659 0.085803 -4.056999
v -3.130560 0.071584 -4.090396
v -3.135656 0.041289 -4.066422
v -3.137659 0.071584 -4.056999
v -3.135656 0.071584 -4.066422
v -3.130560 0.041289 -4.090396
v -3.128557 0.071584 -4.099820
v -3.126871 0.041289 -4.107754
v -3.128557 0.085803 -4.099820
v -2.989450 0.025803 -4.754264
v -3.001925 0.025803 -4.695576
v -2.989450 0.041289 -4.754264
v -2.991137 0.085803 -4.746331
v -2.998236 0.071584 -4.712933
v -2.993140 0.041289 -4.736908
v -2.991137 0.071584 -4.746331
v -2.993140 0.071584 -4.736908
v -2.998236 0.041289 -4.712933
v -3.000238 0.071584 -4.703509
v -3.001925 0.041289 -4.695576
v -3.000238 0.085803 -4.703509
v -3.567303 0.025803 -4.116847
v -3.561031 0.025803 -4.176518
v -3.567303 0.041289 -4.116847
v -3.566455 0.085803 -4.124914
v -3.562886 0.071584 -4.158870
v -3.565448 0.041289 -4.134494
v -3.566455 0.071584 -4.124914
v -3.565448 0.071584 -4.134494
v -3.562886 0.041289 -4.158870
v -3.561879 0.071584 -4.168451
v -3.561031 0.041289 -4.176518
v -3.561879 0.085803 -4.168451
v -3.491942 0.025803 -4.833850
v -3.498214 0.025803 -4.774180
v -3.491942 0.041289 -4.833850
v -3.492790 0.085803 -4.825785
v -3.496359 0.071584 -4.791827
v -3.493797 0.041289 -4.816205
v -3.492790 0.071584 -4.825785
v -3.493797 0.071584 -4.816205
v -3.496359 0.041289 -4.791827
v -3.497366 0.071584 -4.782246
v -3.498214 0.041289 -4.774180
v -3.497366 0.085803 -4.782246
v -4.000001 0.025803 -4.139524
v -4.000000 0.025803 -4.199524
v -4.000001 0.041289 -4.139524
v -4.000001 0.085803 -4.147635
v -4.000001 0.071584 -4.181778
v -4.000000 0.041289 -4.157268
v -4.000001 0.071584 -4.147635
v -4.000000 0.071584 -4.157268
v -4.000001 0.041289 -4.181778
v -4.000000 0.071584 -4.191412
v -4.000000 0.041289 -4.199524
v -4.000000 0.085803 -4.191412
v -4.000000 0.025803 -4.860476
v -4.000000 0.025803 -4.800477
v -4.000000 0.041289 -4.860476
v -4.000000 0.085803 -4.852366
v -4.000000 0.071584 -4.818222
v -4.000000 0.041289 -4.842733
v -4.000000 0.071584 -4.852366
v -4.000000 0.071584 -4.842733
v -4.000000 0.041289 -4.818222
v -4.000000 0.071584 -4.808588
v -4.000000 0.041289 -4.800477
v -4.000000 0.085803 -4.808588
vn -0.0000 1.0000 -0.0000
vn 0.9986 -0.0000 -0.0523
vn -0.9986 -0.0000 0.0523
vn -0.0000 -1.0000 -0.0000
vn -0.0000 -0.0000 1.0000
vn 0.0506 -0.0000 0.9987
vn -0.9987 -0.0000 0.0506
vn -0.0506 -0.0000 -0.9987
vn 0.9987 -0.0000 -0.0506
vn 0.1012 -0.0000 0.9949
vn -0.9949 -0.0000 0.1012
vn -0.1012 -0.0000 -0.9949
vn 0.9949 -0.0000 -0.1012
vn 0.1514 -0.0000 0.9885
vn -0.9885 -0.0000 0.1514
vn -0.1514 -0.0000 -0.9885
vn 0.9885 -0.0000 -0.1514
vn 0.2013 -0.0000 0.9795
vn -0.9795 -0.0000 0.2013
vn -0.2013 -0.0000 -0.9795
vn 0.9795 -0.0000 -0.2013
vn 0.2507 -0.0000 0.9681
vn -0.9681 -0.0000 0.2507
vn -0.2507 -0.0000 -0.9681
vn 0.9681 -0.0000 -0.2507
vn 0.2994 -0.0000 0.9541
vn -0.9541 -0.0000 0.2994
vn -0.2994 -0.0000 -0.9541
vn 0.9541 -0.0000 -0.2994
vn 0.3473 -0.0000 0.9378
vn -0.9378 -0.0000 0.3473
vn -0.3473 -0.0000 -0.9378
vn 0.9378 -0.0000 -0.3473
vn 0.3944 -0.0000 0.9190
vn -0.9190 -0.0000 0.3944
vn -0.3944 -0.0000 -0.9190
vn 0.9190 -0.0000 -0.3944
vn 0.4404 -0.0000 0.8978
vn -0.8978 -0.0000 0.4404
vn -0.4404 -0.0000 -0.8978
vn 0.8978 -0.0000 -0.4404
vn 0.4853 -0.0000 0.8743
vn -0.8743 -0.0000 0.4853
vn -0.4853 -0.0000 -0.8743
vn 0.8743 -0.0000 -0.4853
vn 0.8744 -0.0000 -0.4853
vn 0.5290 -0.0000 0.8487
vn -0.8486 -0.0000 0.5290
vn -0.5290 -0.0000 -0.8486
vn 0.8486 -0.0000 -0.5290
vn 0.5290 -0.0000 0.8486
vn 0.8487 -0.0000 -0.5290
vn -0.8487 -0.0000 0.5290
vn 0.5713 -0.0000 0.8208
vn -0.8208 -0.0000 0.5713
vn -0.5713 -0.0000 -0.8208
vn 0.8208 -0.0000 -0.5713
vn 0.6121 -0.0000 0.7908
vn -0.7908 -0.0000 0.6121
vn -0.6121 -0.0000 -0.7908
vn 0.7908 -0.0000 -0.6121
vn 0.6514 -0.0000 0.7588
vn -0.7588 -0.0000 0.6514
vn -0.6514 -0.0000 -0.7588
vn 0.7588 -0.0000 -0.6514
vn 0.6890 -0.0000 0.7248
vn -0.7248 -0.0000 0.6890
vn -0.6890 -0.0000 -0.7248
vn 0.7248 -0.0000 -0.6890
vn 0.7248 -0.0000 0.6890
vn -0.6890 -0.0000 0.7248
vn -0.7248 -0.0000 -0.6890
vn 0.6890 -0.0000 -0.7248
vn 0.7587 -0.0000 0.6514
vn -0.6514 -0.0000 0.7588
vn -0.7587 -0.0000 -0.6514
vn 0.6514 -0.0000 -0.7588
vn 0.7588 -0.0000 0.6514
vn -0.7588 -0.0000 -0.6514
vn -0.6514 -0.0000 0.7587
vn 0.7908 -0.0000 0.6121
vn -0.6121 -0.0000 0.7908
vn -0.7908 -0.0000 -0.6121
vn 0.6121 -0.0000 -0.7908
vn 0.8208 -0.0000 0.5713
vn -0.5713 -0.0000 0.8208
vn -0.8208 -0.0000 -0.5713
vn 0.5713 -0.0000 -0.8208
vn 0.8486 -0.0000 0.5290
vn -0.5290 -0.0000 0.8486
vn -0.8486 -0.0000 -0.5290
vn 0.5290 -0.0000 -0.8486
vn 0.8743 -0.0000 0.4853
vn -0.4853 -0.0000 0.8743
vn -0.8743 -0.0000 -0.4853
vn 0.4853 -0.0000 -0.8743
vn 0.8978 -0.0000 0.4404
vn -0.4404 -0.0000 0.8978
vn -0.8978 -0.0000 -0.4404
vn 0.4404 -0.0000 -0.8978
vn 0.9189 -0.0000 0.3944
vn -0.3943 -0.0000 0.9190
vn -0.9189 -0.0000 -0.3944
vn 0.3944 -0.0000 -0.9189
vn 0.9190 -0.0000 0.3944
vn 0.3944 -0.0000 -0.9190
vn -0.9190 -0.0000 -0.3944
vn -0.3944 -0.0000 0.9189
vn -0.3944 -0.0000 0.9190
vn 0.9377 -0.0000 0.3473
vn -0.3473 -0.0000 0.9378
vn -0.9377 -0.0000 -0.3473
vn 0.3473 -0.0000 -0.9377
vn 0.9378 -0.0000 0.3473
vn 0.3473 -0.0000 -0.9378
vn -0.3473 -0.0000 0.9377
vn -0.9378 -0.0000 -0.3473
vn 0.9541 -0.0000 0.2994
vn -0.2993 -0.0000 0.9541
vn -0.9541 -0.0000 -0.2994
vn 0.2994 -0.0000 -0.9541
vn -0.2994 -0.0000 0.9541
vn 0.9681 -0.0000 0.2507
vn -0.2506 -0.0000 0.9681
vn -0.9681 -0.0000 -0.2507
vn 0.2507 -0.0000 -0.9681
vn -0.9681 -0.0000 -0.2506
vn -0.2507 -0.0000 0.9681
vn 0.9795 -0.0000 0.2014
vn -0.2012 -0.0000 0.9795
vn -0.9795 -0.0000 -0.2013
vn 0.2013 -0.0000 -0.9795
vn 0.9795 -0.0000 0.2013
vn -0.2013 -0.0000 0.9795
vn 0.9885 -0.0000 0.1515
vn -0.1514 -0.0000 0.9885
vn -0.9885 -0.0000 -0.1514
vn 0.1514 -0.0000 -0.9885
vn 0.9885 -0.0000 0.1514
vn 0.1515 -0.0000 -0.9885
vn 0.9949 -0.0000 0.1012
vn -0.1011 -0.0000 0.9949
vn -0.9949 -0.0000 -0.1012
vn 0.1012 -0.0000 -0.9949
vn -0.1012 -0.0000 0.9949
vn 0.9987 -0.0000 0.0507
vn -0.0506 -0.0000 0.9987
vn -0.9987 -0.0000 -0.0507
vn 0.0507 -0.0000 -0.9987
vn -0.0507 -0.0000 0.9987
vn 0.9987 -0.0000 0.0506
vn -0.9987 -0.0000 -0.0506
vn 1.0000 -0.0000 0.0001
vn -1.0000 -0.0000 -0.0000
vn -0.0000 -0.0000 -1.0000
vn 1.0000 -0.0000 -0.0000
vn 0.9877 -0.0000 -0.1564
vn 0.9659 -0.0000 -0.2588
vn -0.9659 -0.0000 0.2588
vn -0.9877 -0.0000 0.1564
vn -0.9336 -0.0000 0.3584
vn 0.9336 -0.0000 -0.3584
vn -0.8910 -0.0000 0.4540
vn 0.8910 -0.0000 -0.4540
vn 0.8387 -0.0000 -0.5446
vn -0.7771 -0.0000 0.6293
vn 0.7771 -0.0000 -0.6293
vn -0.8387 -0.0000 0.5446
vn 0.7071 -0.0000 -0.7071
vn -0.6293 -0.0000 0.7771
vn 0.6293 -0.0000 -0.7771
vn -0.7071 -0.0000 0.7071
vn 0.5446 -0.0000 -0.8387
vn 0.4540 -0.0000 -0.8910
vn -0.4540 -0.0000 0.8910
vn -0.5446 -0.0000 0.8387
vn 0.3584 -0.0000 -0.9336
vn -0.2588 -0.0000 0.9659
vn 0.2588 -0.0000 -0.9659
vn -0.3584 -0.0000 0.9336
vn 0.1564 -0.0000 -0.9877
vn 0.0523 -0.0000 -0.9986
vn -0.0523 -0.0000 0.9986
vn -0.1564 -0.0000 0.9877
vn -1.0000 0.0001 -0.0000
vn -1.0000 -0.0001 -0.0000
vt 0.470903 0.312903
vt 0.041216 0.312903
vt 0.041216 0.296828
vt 0.470903 0.296828
vt 0.470703 0.034093
vt 0.041016 0.034093
vt 0.041016 0.048121
vt 0.470703 0.048121
vt 0.905875 0.012881
vt 0.476188 0.012881
vt 0.476188 0.000000
vt 0.905875 0.000000
vt 0.906387 0.321630
vt 0.476700 0.321630
vt 0.476700 0.330358
vt 0.906387 0.330358
vt 0.470703 0.093759
vt 0.041016 0.093759
vt 0.041016 0.121202
vt 0.470703 0.121202
vt 0.905753 0.210448
vt 0.476066 0.210448
vt 0.476066 0.156096
vt 0.905753 0.156096
vt 0.905875 0.062150
vt 0.476188 0.062150
vt 0.476188 0.048121
vt 0.905875 0.048121
vt 0.470703 0.025761
vt 0.041016 0.025761
vt 0.041016 0.012881
vt 0.470703 0.012881
vt 0.470903 0.219937
vt 0.041216 0.219937
vt 0.041216 0.259595
vt 0.470903 0.259595
vt 0.933003 0.053977
vt 0.933003 0.040625
vt 0.917703 0.040625
vt 0.881270 0.053977
vt 0.925611 0.040661
vt 0.917304 0.040661
vt 0.896172 0.040661
vt 0.925611 0.052921
vt 0.887865 0.052921
vt 0.887865 0.040661
vt 0.896172 0.014541
vt 0.917304 0.014541
vt 0.880872 0.001189
vt 0.880872 0.014541
vt 0.932604 0.001189
vt 0.932604 0.014541
vt 0.999050 0.183297
vt 0.939310 0.183297
vt 0.939310 0.342604
vt 0.999050 0.342604
vt 0.985655 0.132863
vt 0.939081 0.132863
vt 0.939081 0.179437
vt 0.985655 0.179437
vt 0.979692 0.781451
vt -0.000781 0.781451
vt -0.000781 0.844034
vt 0.979692 0.844034
vt 0.146184 0.656284
vt 0.000156 0.656284
vt 0.000156 0.718868
vt 0.146184 0.718868
vt 0.980629 0.718868
vt 0.000156 0.781451
vt 0.980629 0.781451
vt 0.302823 0.656284
vt 0.156795 0.656284
vt 0.156795 0.718868
vt 0.302823 0.718868
vt -0.000466 0.654611
vt 0.999534 0.654611
vt 0.999534 0.505675
vt -0.000466 0.505675
vt 0.998987 0.850355
vt 0.001647 0.850355
vt 0.001647 0.998895
vt 0.998987 0.998895
vt 0.999534 0.349415
vt -0.000466 0.349415
vt -0.000466 0.498351
vt 0.999534 0.498351
vt -0.000466 0.498351
vt 0.999534 0.498351
vt 0.999534 0.349415
vt -0.000466 0.349415
vt 0.999534 0.505675
vt -0.000466 0.505675
vt -0.000466 0.654611
vt 0.999534 0.654611
vt 0.041216 0.281378
vt 0.470903 0.281378
vt 0.470903 0.297453
vt 0.041216 0.297453
vt 0.906387 0.312903
vt 0.476700 0.312903
vt 0.905875 0.089593
vt 0.476188 0.089593
vt 0.919394 0.014240
vt 0.881666 0.000413
vt 0.881666 0.014240
vt 0.897510 0.014240
vt 0.935238 0.014240
vt 0.935238 0.000413
vt 0.897510 0.041289
vt 0.927996 0.053985
vt 0.927996 0.041289
vt 0.919394 0.041289
vt 0.888908 0.041289
vt 0.888908 0.053985
vt 0.896570 0.040625
vt 0.881270 0.040625
vt 0.917703 0.014504
vt 0.896570 0.014504
vt 0.926009 0.014504
vt 0.926009 0.002245
vt 0.888264 0.002245
vt 0.888264 0.014504
s 0
f 21/1/1 789/2/1 791/3/1 23/4/1
f 2/5/2 770/6/2 779/7/2 11/8/2
f 4/9/3 772/10/3 775/11/3 7/12/3
f 22/13/4 790/14/4 785/15/4 17/16/4
f 9/17/2 777/18/2 773/19/2 5/20/2
f 1/21/4 769/22/4 770/23/4 2/24/4
f 3/25/3 771/26/3 769/27/3 1/28/3
f 24/29/3 792/30/3 790/31/3 22/32/3
f 10/32/2 778/31/2 780/30/2 12/29/2
f 12/33/1 780/34/1 772/35/1 4/36/1
f 2/37/5 11/38/5 9/39/5 1/40/5
f 22/41/5 17/42/5 20/43/5 24/44/5
f 16/45/5 24/44/5 20/43/5 19/46/5
f 18/47/5 20/43/5 17/42/5 21/48/5
f 13/49/5 15/50/5 18/47/5 21/48/5
f 14/51/5 13/49/5 21/48/5 23/52/5
f 27/53/6 25/54/6 26/55/6 28/56/6
f 29/53/7 27/54/7 28/55/7 30/56/7
f 31/53/8 29/54/8 30/55/8 32/56/8
f 25/53/9 31/54/9 32/55/9 26/56/9
f 28/57/1 26/58/1 32/59/1 30/60/1
f 34/55/6 33/54/6 35/53/6 36/56/6
f 36/55/9 35/54/9 37/53/9 38/56/9
f 38/55/8 37/54/8 39/53/8 40/56/8
f 40/55/7 39/54/7 33/53/7 34/56/7
f 40/59/1 34/58/1 36/57/1 38/60/1
f 43/61/6 41/62/6 42/63/6 44/64/6
f 45/65/7 43/66/7 44/67/7 46/68/7
f 47/69/8 45/67/8 46/70/8 48/71/8
f 41/72/9 47/73/9 48/74/9 42/75/9
f 44/76/1 42/77/1 48/78/1 46/79/1
f 45/80/4 47/81/4 41/82/4 43/83/4
f 51/53/10 49/54/10 50/55/10 52/56/10
f 53/53/11 51/54/11 52/55/11 54/56/11
f 55/53/12 53/54/12 54/55/12 56/56/12
f 49/53/13 55/54/13 56/55/13 50/56/13
f 52/57/1 50/58/1 56/59/1 54/60/1
f 58/55/10 57/54/10 59/53/10 60/56/10
f 60/55/13 59/54/13 61/53/13 62/56/13
f 62/55/12 61/54/12 63/53/12 64/56/12
f 64/55/11 63/54/11 57/53/11 58/56/11
f 64/59/1 58/58/1 60/57/1 62/60/1
f 67/61/10 65/62/10 66/63/10 68/64/10
f 69/65/11 67/66/11 68/67/11 70/68/11
f 71/69/12 69/67/12 70/70/12 72/71/12
f 65/72/13 71/73/13 72/74/13 66/75/13
f 68/84/1 66/85/1 72/86/1 70/87/1
f 69/80/4 71/81/4 65/82/4 67/83/4
f 75/53/14 73/54/14 74/55/14 76/56/14
f 77/53/15 75/54/15 76/55/15 78/56/15
f 79/53/16 77/54/16 78/55/16 80/56/16
f 73/53/17 79/54/17 80/55/17 74/56/17
f 76/57/1 74/58/1 80/59/1 78/60/1
f 82/55/14 81/54/14 83/53/14 84/56/14
f 84/55/17 83/54/17 85/53/17 86/56/17
f 86/55/16 85/54/16 87/53/16 88/56/16
f 88/55/15 87/54/15 81/53/15 82/56/15
f 88/59/1 82/58/1 84/57/1 86/60/1
f 91/61/14 89/62/14 90/63/14 92/64/14
f 93/65/15 91/66/15 92/67/15 94/68/15
f 95/69/16 93/67/16 94/70/16 96/71/16
f 89/72/17 95/73/17 96/74/17 90/75/17
f 92/76/1 90/77/1 96/78/1 94/79/1
f 93/80/4 95/81/4 89/82/4 91/83/4
f 99/53/18 97/54/18 98/55/18 100/56/18
f 101/53/19 99/54/19 100/55/19 102/56/19
f 103/53/20 101/54/20 102/55/20 104/56/20
f 97/53/21 103/54/21 104/55/21 98/56/21
f 100/57/1 98/58/1 104/59/1 102/60/1
f 106/55/18 105/54/18 107/53/18 108/56/18
f 108/55/21 107/54/21 109/53/21 110/56/21
f 110/55/20 109/54/20 111/53/20 112/56/20
f 112/55/19 111/54/19 105/53/19 106/56/19
f 112/59/1 106/58/1 108/57/1 110/60/1
f 115/61/18 113/62/18 114/63/18 116/64/18
f 117/65/19 115/66/19 116/67/19 118/68/19
f 119/69/20 117/67/20 118/70/20 120/71/20
f 113/72/21 119/73/21 120/74/21 114/75/21
f 116/88/1 114/89/1 120/90/1 118/91/1
f 117/80/4 119/81/4 113/82/4 115/83/4
f 123/53/22 121/54/22 122/55/22 124/56/22
f 125/53/23 123/54/23 124/55/23 126/56/23
f 127/53/24 125/54/24 126/55/24 128/56/24
f 121/53/25 127/54/25 128/55/25 122/56/25
f 124/57/1 122/58/1 128/59/1 126/60/1
f 130/55/22 129/54/22 131/53/22 132/56/22
f 132/55/25 131/54/25 133/53/25 134/56/25
f 134/55/24 133/54/24 135/53/24 136/56/24
f 136/55/23 135/54/23 129/53/23 130/56/23
f 136/59/1 130/58/1 132/57/1 134/60/1
f 139/61/22 137/62/22 138/63/22 140/64/22
f 141/65/23 139/66/23 140/67/23 142/68/23
f 143/69/24 141/67/24 142/70/24 144/71/24
f 137/72/25 143/73/25 144/74/25 138/75/25
f 140/92/1 138/93/1 144/94/1 142/95/1
f 141/80/4 143/81/4 137/82/4 139/83/4
f 147/53/26 145/54/26 146/55/26 148/56/26
f 149/53/27 147/54/27 148/55/27 150/56/27
f 151/53/28 149/54/28 150/55/28 152/56/28
f 145/53/29 151/54/29 152/55/29 146/56/29
f 148/57/1 146/58/1 152/59/1 150/60/1
f 154/55/26 153/54/26 155/53/26 156/56/26
f 156/55/29 155/54/29 157/53/29 158/56/29
f 158/55/28 157/54/28 159/53/28 160/56/28
f 160/55/27 159/54/27 153/53/27 154/56/27
f 160/59/1 154/58/1 156/57/1 158/60/1
f 163/61/26 161/62/26 162/63/26 164/64/26
f 165/65/27 163/66/27 164/67/27 166/68/27
f 167/69/28 165/67/28 166/70/28 168/71/28
f 161/72/29 167/73/29 168/74/29 162/75/29
f 164/84/1 162/85/1 168/86/1 166/87/1
f 165/80/4 167/81/4 161/82/4 163/83/4
f 171/53/30 169/54/30 170/55/30 172/56/30
f 173/53/31 171/54/31 172/55/31 174/56/31
f 175/53/32 173/54/32 174/55/32 176/56/32
f 169/53/33 175/54/33 176/55/33 170/56/33
f 172/57/1 170/58/1 176/59/1 174/60/1
f 178/55/30 177/54/30 179/53/30 180/56/30
f 180/55/33 179/54/33 181/53/33 182/56/33
f 182/55/32 181/54/32 183/53/32 184/56/32
f 184/55/31 183/54/31 177/53/31 178/56/31
f 184/59/1 178/58/1 180/57/1 182/60/1
f 187/61/30 185/62/30 186/63/30 188/64/30
f 189/65/31 187/66/31 188/67/31 190/68/31
f 191/69/32 189/67/32 190/70/32 192/71/32
f 185/72/33 191/73/33 192/74/33 186/75/33
f 188/76/1 186/77/1 192/78/1 190/79/1
f 189/80/4 191/81/4 185/82/4 187/83/4
f 195/53/34 193/54/34 194/55/34 196/56/34
f 197/53/35 195/54/35 196/55/35 198/56/35
f 199/53/36 197/54/36 198/55/36 200/56/36
f 193/53/37 199/54/37 200/55/37 194/56/37
f 196/57/1 194/58/1 200/59/1 198/60/1
f 202/55/34 201/54/34 203/53/34 204/56/34
f 204/55/37 203/54/37 205/53/37 206/56/37
f 206/55/36 205/54/36 207/53/36 208/56/36
f 208/55/35 207/54/35 201/53/35 202/56/35
f 208/59/1 202/58/1 204/57/1 206/60/1
f 211/61/34 209/62/34 210/63/34 212/64/34
f 213/65/35 211/66/35 212/67/35 214/68/35
f 215/69/36 213/67/36 214/70/36 216/71/36
f 209/72/37 215/73/37 216/74/37 210/75/37
f 212/92/1 210/93/1 216/94/1 214/95/1
f 213/80/4 215/81/4 209/82/4 211/83/4
f 219/53/38 217/54/38 218/55/38 220/56/38
f 221/53/39 219/54/39 220/55/39 222/56/39
f 223/53/40 221/54/40 222/55/40 224/56/40
f 217/53/41 223/54/41 224/55/41 218/56/41
f 220/57/1 218/58/1 224/59/1 222/60/1
f 226/55/38 225/54/38 227/53/38 228/56/38
f 228/55/41 227/54/41 229/53/41 230/56/41
f 230/55/40 229/54/40 231/53/40 232/56/40
f 232/55/39 231/54/39 225/53/39 226/56/39
f 232/59/1 226/58/1 228/57/1 230/60/1
f 235/61/38 233/62/38 234/63/38 236/64/38
f 237/65/39 235/66/39 236/67/39 238/68/39
f 239/69/40 237/67/40 238/70/40 240/71/40
f 233/72/41 239/73/41 240/74/41 234/75/41
f 236/76/1 234/77/1 240/78/1 238/79/1
f 237/80/4 239/81/4 233/82/4 235/83/4
f 243/53/42 241/54/42 242/55/42 244/56/42
f 245/53/43 243/54/43 244/55/43 246/56/43
f 247/53/44 245/54/44 246/55/44 248/56/44
f 241/53/45 247/54/45 248/55/45 242/56/45
f 244/57/1 242/58/1 248/59/1 246/60/1
f 250/55/42 249/54/42 251/53/42 252/56/42
f 252/55/46 251/54/46 253/53/46 254/56/46
f 254/55/44 253/54/44 255/53/44 256/56/44
f 256/55/43 255/54/43 249/53/43 250/56/43
f 256/59/1 250/58/1 252/57/1 254/60/1
f 259/61/42 257/62/42 258/63/42 260/64/42
f 261/65/43 259/66/43 260/67/43 262/68/43
f 263/69/44 261/67/44 262/70/44 264/71/44
f 257/72/45 263/73/45 264/74/45 258/75/45
f 260/88/1 258/89/1 264/90/1 262/91/1
f 261/80/4 263/81/4 257/82/4 259/83/4
f 267/53/47 265/54/47 266/55/47 268/56/47
f 269/53/48 267/54/48 268/55/48 270/56/48
f 271/53/49 269/54/49 270/55/49 272/56/49
f 265/53/50 271/54/50 272/55/50 266/56/50
f 268/57/1 266/58/1 272/59/1 270/60/1
f 274/55/51 273/54/51 275/53/51 276/56/51
f 276/55/52 275/54/52 277/53/52 278/56/52
f 278/55/49 277/54/49 279/53/49 280/56/49
f 280/55/53 279/54/53 273/53/53 274/56/53
f 280/59/1 274/58/1 276/57/1 278/60/1
f 283/61/51 281/62/51 282/63/51 284/64/51
f 285/65/48 283/66/48 284/67/48 286/68/48
f 287/69/49 285/67/49 286/70/49 288/71/49
f 281/72/50 287/73/50 288/74/50 282/75/50
f 284/84/1 282/85/1 288/86/1 286/87/1
f 285/80/4 287/81/4 281/82/4 283/83/4
f 291/53/54 289/54/54 290/55/54 292/56/54
f 293/53/55 291/54/55 292/55/55 294/56/55
f 295/53/56 293/54/56 294/55/56 296/56/56
f 289/53/57 295/54/57 296/55/57 290/56/57
f 292/57/1 290/58/1 296/59/1 294/60/1
f 298/55/54 297/54/54 299/53/54 300/56/54
f 300/55/57 299/54/57 301/53/57 302/56/57
f 302/55/56 301/54/56 303/53/56 304/56/56
f 304/55/55 303/54/55 297/53/55 298/56/55
f 304/59/1 298/58/1 300/57/1 302/60/1
f 307/61/54 305/62/54 306/63/54 308/64/54
f 309/65/55 307/66/55 308/67/55 310/68/55
f 311/69/56 309/67/56 310/70/56 312/71/56
f 305/72/57 311/73/57 312/74/57 306/75/57
f 308/88/1 306/89/1 312/90/1 310/91/1
f 309/80/4 311/81/4 305/82/4 307/83/4
f 315/53/58 313/54/58 314/55/58 316/56/58
f 317/53/59 315/54/59 316/55/59 318/56/59
f 319/53/60 317/54/60 318/55/60 320/56/60
f 313/53/61 319/54/61 320/55/61 314/56/61
f 316/57/1 314/58/1 320/59/1 318/60/1
f 322/55/58 321/54/58 323/53/58 324/56/58
f 324/55/61 323/54/61 325/53/61 326/56/61
f 326/55/60 325/54/60 327/53/60 328/56/60
f 328/55/59 327/54/59 321/53/59 322/56/59
f 328/59/1 322/58/1 324/57/1 326/60/1
f 331/61/58 329/62/58 330/63/58 332/64/58
f 333/65/59 331/66/59 332/67/59 334/68/59
f 335/69/60 333/67/60 334/70/60 336/71/60
f 329/72/61 335/73/61 336/74/61 330/75/61
f 332/92/1 330/93/1 336/94/1 334/95/1
f 333/80/4 335/81/4 329/82/4 331/83/4
f 339/53/62 337/54/62 338/55/62 340/56/62
f 341/53/63 339/54/63 340/55/63 342/56/63
f 343/53/64 341/54/64 342/55/64 344/56/64
f 337/53/65 343/54/65 344/55/65 338/56/65
f 340/57/1 338/58/1 344/59/1 342/60/1
f 346/55/62 345/54/62 347/53/62 348/56/62
f 348/55/65 347/54/65 349/53/65 350/56/65
f 350/55/64 349/54/64 351/53/64 352/56/64
f 352/55/63 351/54/63 345/53/63 346/56/63
f 352/59/1 346/58/1 348/57/1 350/60/1
f 355/61/62 353/62/62 354/63/62 356/64/62
f 357/65/63 355/66/63 356/67/63 358/68/63
f 359/69/64 357/67/64 358/70/64 360/71/64
f 353/72/65 359/73/65 360/74/65 354/75/65
f 356/88/1 354/89/1 360/90/1 358/91/1
f 357/80/4 359/81/4 353/82/4 355/83/4
f 363/53/66 361/54/66 362/55/66 364/56/66
f 365/53/67 363/54/67 364/55/67 366/56/67
f 367/53/68 365/54/68 366/55/68 368/56/68
f 361/53/69 367/54/69 368/55/69 362/56/69
f 364/57/1 362/58/1 368/59/1 366/60/1
f 370/55/66 369/54/66 371/53/66 372/56/66
f 372/55/69 371/54/69 373/53/69 374/56/69
f 374/55/68 373/54/68 375/53/68 376/56/68
f 376/55/67 375/54/67 369/53/67 370/56/67
f 376/59/1 370/58/1 372/57/1 374/60/1
f 379/61/66 377/62/66 378/63/66 380/64/66
f 381/65/67 379/66/67 380/67/67 382/68/67
f 383/69/68 381/67/68 382/70/68 384/71/68
f 377/72/69 383/73/69 384/74/69 378/75/69
f 380/88/1 378/89/1 384/90/1 382/91/1
f 381/80/4 383/81/4 377/82/4 379/83/4
f 387/53/70 385/54/70 386/55/70 388/56/70
f 389/53/71 387/54/71 388/55/71 390/56/71
f 391/53/72 389/54/72 390/55/72 392/56/72
f 385/53/73 391/54/73 392/55/73 386/56/73
f 388/57/1 386/58/1 392/59/1 390/60/1
f 394/55/70 393/54/70 395/53/70 396/56/70
f 396/55/73 395/54/73 397/53/73 398/56/73
f 398/55/72 397/54/72 399/53/72 400/56/72
f 400/55/71 399/54/71 393/53/71 394/56/71
f 400/59/1 394/58/1 396/57/1 398/60/1
f 403/61/70 401/62/70 402/63/70 404/64/70
f 405/65/71 403/66/71 404/67/71 406/68/71
f 407/69/72 405/67/72 406/70/72 408/71/72
f 401/72/73 407/73/73 408/74/73 402/75/73
f 404/92/1 402/93/1 408/94/1 406/95/1
f 405/80/4 407/81/4 401/82/4 403/83/4
f 411/53/74 409/54/74 410/55/74 412/56/74
f 413/53/75 411/54/75 412/55/75 414/56/75
f 415/53/76 413/54/76 414/55/76 416/56/76
f 409/53/77 415/54/77 416/55/77 410/56/77
f 412/57/1 410/58/1 416/59/1 414/60/1
f 418/55/78 417/54/78 419/53/78 420/56/78
f 420/55/77 419/54/77 421/53/77 422/56/77
f 422/55/79 421/54/79 423/53/79 424/56/79
f 424/55/80 423/54/80 417/53/80 418/56/80
f 424/59/1 418/58/1 420/57/1 422/60/1
f 427/61/78 425/62/78 426/63/78 428/64/78
f 429/65/75 427/66/75 428/67/75 430/68/75
f 431/69/79 429/67/79 430/70/79 432/71/79
f 425/72/77 431/73/77 432/74/77 426/75/77
f 428/76/1 426/77/1 432/78/1 430/79/1
f 429/80/4 431/81/4 425/82/4 427/83/4
f 435/53/81 433/54/81 434/55/81 436/56/81
f 437/53/82 435/54/82 436/55/82 438/56/82
f 439/53/83 437/54/83 438/55/83 440/56/83
f 433/53/84 439/54/84 440/55/84 434/56/84
f 436/57/1 434/58/1 440/59/1 438/60/1
f 442/55/81 441/54/81 443/53/81 444/56/81
f 444/55/84 443/54/84 445/53/84 446/56/84
f 446/55/83 445/54/83 447/53/83 448/56/83
f 448/55/82 447/54/82 441/53/82 442/56/82
f 448/59/1 442/58/1 444/57/1 446/60/1
f 451/61/81 449/62/81 450/63/81 452/64/81
f 453/65/82 451/66/82 452/67/82 454/68/82
f 455/69/83 453/67/83 454/70/83 456/71/83
f 449/72/84 455/73/84 456/74/84 450/75/84
f 452/84/1 450/85/1 456/86/1 454/87/1
f 453/80/4 455/81/4 449/82/4 451/83/4
f 459/53/85 457/54/85 458/55/85 460/56/85
f 461/53/86 459/54/86 460/55/86 462/56/86
f 463/53/87 461/54/87 462/55/87 464/56/87
f 457/53/88 463/54/88 464/55/88 458/56/88
f 460/57/1 458/58/1 464/59/1 462/60/1
f 466/55/85 465/54/85 467/53/85 468/56/85
f 468/55/88 467/54/88 469/53/88 470/56/88
f 470/55/87 469/54/87 471/53/87 472/56/87
f 472/55/86 471/54/86 465/53/86 466/56/86
f 472/59/1 466/58/1 468/57/1 470/60/1
f 475/61/85 473/62/85 474/63/85 476/64/85
f 477/65/86 475/66/86 476/67/86 478/68/86
f 479/69/87 477/67/87 478/70/87 480/71/87
f 473/72/88 479/73/88 480/74/88 474/75/88
f 476/76/1 474/77/1 480/78/1 478/79/1
f 477/80/4 479/81/4 473/82/4 475/83/4
f 483/53/89 481/54/89 482/55/89 484/56/89
f 485/53/90 483/54/90 484/55/90 486/56/90
f 487/53/91 485/54/91 486/55/91 488/56/91
f 481/53/92 487/54/92 488/55/92 482/56/92
f 484/57/1 482/58/1 488/59/1 486/60/1
f 490/55/89 489/54/89 491/53/89 492/56/89
f 492/55/92 491/54/92 493/53/92 494/56/92
f 494/55/91 493/54/91 495/53/91 496/56/91
f 496/55/90 495/54/90 489/53/90 490/56/90
f 496/59/1 490/58/1 492/57/1 494/60/1
f 499/61/89 497/62/89 498/63/89 500/64/89
f 501/65/90 499/66/90 500/67/90 502/68/90
f 503/69/91 501/67/91 502/70/91 504/71/91
f 497/72/92 503/73/92 504/74/92 498/75/92
f 500/88/1 498/89/1 504/90/1 502/91/1
f 501/80/4 503/81/4 497/82/4 499/83/4
f 507/53/93 505/54/93 506/55/93 508/56/93
f 509/53/94 507/54/94 508/55/94 510/56/94
f 511/53/95 509/54/95 510/55/95 512/56/95
f 505/53/96 511/54/96 512/55/96 506/56/96
f 508/57/1 506/58/1 512/59/1 510/60/1
f 514/55/93 513/54/93 515/53/93 516/56/93
f 516/55/96 515/54/96 517/53/96 518/56/96
f 518/55/95 517/54/95 519/53/95 520/56/95
f 520/55/94 519/54/94 513/53/94 514/56/94
f 520/59/1 514/58/1 516/57/1 518/60/1
f 523/61/93 521/62/93 522/63/93 524/64/93
f 525/65/94 523/66/94 524/67/94 526/68/94
f 527/69/95 525/67/95 526/70/95 528/71/95
f 521/72/96 527/73/96 528/74/96 522/75/96
f 524/92/1 522/93/1 528/94/1 526/95/1
f 525/80/4 527/81/4 521/82/4 523/83/4
f 531/53/97 529/54/97 530/55/97 532/56/97
f 533/53/98 531/54/98 532/55/98 534/56/98
f 535/53/99 533/54/99 534/55/99 536/56/99
f 529/53/100 535/54/100 536/55/100 530/56/100
f 532/57/1 530/58/1 536/59/1 534/60/1
f 538/55/97 537/54/97 539/53/97 540/56/97
f 540/55/100 539/54/100 541/53/100 542/56/100
f 542/55/99 541/54/99 543/53/99 544/56/99
f 544/55/98 543/54/98 537/53/98 538/56/98
f 544/59/1 538/58/1 540/57/1 542/60/1
f 547/61/97 545/62/97 546/63/97 548/64/97
f 549/65/98 547/66/98 548/67/98 550/68/98
f 551/69/99 549/67/99 550/70/99 552/71/99
f 545/72/100 551/73/100 552/74/100 546/75/100
f 548/92/1 546/93/1 552/94/1 550/95/1
f 549/80/4 551/81/4 545/82/4 547/83/4
f 555/53/101 553/54/101 554/55/101 556/56/101
f 557/53/102 555/54/102 556/55/102 558/56/102
f 559/53/103 557/54/103 558/55/103 560/56/103
f 553/53/104 559/54/104 560/55/104 554/56/104
f 556/57/1 554/58/1 560/59/1 558/60/1
f 562/55/105 561/54/105 563/53/105 564/56/105
f 564/55/106 563/54/106 565/53/106 566/56/106
f 566/55/107 565/54/107 567/53/107 568/56/107
f 568/55/108 567/54/108 561/53/108 562/56/108
f 568/59/1 562/58/1 564/57/1 566/60/1
f 571/61/105 569/62/105 570/63/105 572/64/105
f 573/65/109 571/66/109 572/67/109 574/68/109
f 575/69/107 573/67/107 574/70/107 576/71/107
f 569/72/106 575/73/106 576/74/106 570/75/106
f 572/88/1 570/89/1 576/90/1 574/91/1
f 573/80/4 575/81/4 569/82/4 571/83/4
f 579/53/110 577/54/110 578/55/110 580/56/110
f 581/53/111 579/54/111 580/55/111 582/56/111
f 583/53/112 581/54/112 582/55/112 584/56/112
f 577/53/113 583/54/113 584/55/113 578/56/113
f 580/57/1 578/58/1 584/59/1 582/60/1
f 586/55/114 585/54/114 587/53/114 588/56/114
f 588/55/115 587/54/115 589/53/115 590/56/115
f 590/55/112 589/54/112 591/53/112 592/56/112
f 592/55/116 591/54/116 585/53/116 586/56/116
f 592/59/1 586/58/1 588/57/1 590/60/1
f 595/61/114 593/62/114 594/63/114 596/64/114
f 597/65/111 595/66/111 596/67/111 598/68/111
f 599/69/117 597/67/117 598/70/117 600/71/117
f 593/72/115 599/73/115 600/74/115 594/75/115
f 596/84/1 594/85/1 600/86/1 598/87/1
f 597/80/4 599/81/4 593/82/4 595/83/4
f 603/53/118 601/54/118 602/55/118 604/56/118
f 605/53/119 603/54/119 604/55/119 606/56/119
f 607/53/120 605/54/120 606/55/120 608/56/120
f 601/53/121 607/54/121 608/55/121 602/56/121
f 604/57/1 602/58/1 608/59/1 606/60/1
f 610/55/118 609/54/118 611/53/118 612/56/118
f 612/55/121 611/54/121 613/53/121 614/56/121
f 614/55/120 613/54/120 615/53/120 616/56/120
f 616/55/122 615/54/122 609/53/122 610/56/122
f 616/59/1 610/58/1 612/57/1 614/60/1
f 619/61/118 617/62/118 618/63/118 620/64/118
f 621/65/122 619/66/122 620/67/122 622/68/122
f 623/69/120 621/67/120 622/70/120 624/71/120
f 617/72/121 623/73/121 624/74/121 618/75/121
f 620/92/1 618/93/1 624/94/1 622/95/1
f 621/80/4 623/81/4 617/82/4 619/83/4
f 627/53/123 625/54/123 626/55/123 628/56/123
f 629/53/124 627/54/124 628/55/124 630/56/124
f 631/53/125 629/54/125 630/55/125 632/56/125
f 625/53/126 631/54/126 632/55/126 626/56/126
f 628/57/1 626/58/1 632/59/1 630/60/1
f 634/55/123 633/54/123 635/53/123 636/56/123
f 636/55/126 635/54/126 637/53/126 638/56/126
f 638/55/127 637/54/127 639/53/127 640/56/127
f 640/55/128 639/54/128 633/53/128 634/56/128
f 640/59/1 634/58/1 636/57/1 638/60/1
f 643/61/123 641/62/123 642/63/123 644/64/123
f 645/65/124 643/66/124 644/67/124 646/68/124
f 647/69/125 645/67/125 646/70/125 648/71/125
f 641/72/126 647/73/126 648/74/126 642/75/126
f 644/88/1 642/89/1 648/90/1 646/91/1
f 645/80/4 647/81/4 641/82/4 643/83/4
f 651/53/129 649/54/129 650/55/129 652/56/129
f 653/53/130 651/54/130 652/55/130 654/56/130
f 655/53/131 653/54/131 654/55/131 656/56/131
f 649/53/132 655/54/132 656/55/132 650/56/132
f 652/57/1 650/58/1 656/59/1 654/60/1
f 658/55/133 657/54/133 659/53/133 660/56/133
f 660/55/132 659/54/132 661/53/132 662/56/132
f 662/55/131 661/54/131 663/53/131 664/56/131
f 664/55/134 663/54/134 657/53/134 658/56/134
f 664/59/1 658/58/1 660/57/1 662/60/1
f 667/61/133 665/62/133 666/63/133 668/64/133
f 669/65/134 667/66/134 668/67/134 670/68/134
f 671/69/131 669/67/131 670/70/131 672/71/131
f 665/72/132 671/73/132 672/74/132 666/75/132
f 668/92/1 666/93/1 672/94/1 670/95/1
f 669/80/4 671/81/4 665/82/4 667/83/4
f 675/53/135 673/54/135 674/55/135 676/56/135
f 677/53/136 675/54/136 676/55/136 678/56/136
f 679/53/137 677/54/137 678/55/137 680/56/137
f 673/53/138 679/54/138 680/55/138 674/56/138
f 676/57/1 674/58/1 680/59/1 678/60/1
f 682/55/139 681/54/139 683/53/139 684/56/139
f 684/55/140 683/54/140 685/53/140 686/56/140
f 686/55/137 685/54/137 687/53/137 688/56/137
f 688/55/136 687/54/136 681/53/136 682/56/136
f 688/59/1 682/58/1 684/57/1 686/60/1
f 691/61/139 689/62/139 690/63/139 692/64/139
f 693/65/136 691/66/136 692/67/136 694/68/136
f 695/69/137 693/67/137 694/70/137 696/71/137
f 689/72/138 695/73/138 696/74/138 690/75/138
f 692/92/1 690/93/1 696/94/1 694/95/1
f 693/80/4 695/81/4 689/82/4 691/83/4
f 699/53/141 697/54/141 698/55/141 700/56/141
f 701/53/142 699/54/142 700/55/142 702/56/142
f 703/53/143 701/54/143 702/55/143 704/56/143
f 697/53/144 703/54/144 704/55/144 698/56/144
f 700/57/1 698/58/1 704/59/1 702/60/1
f 706/55/141 705/54/141 707/53/141 708/56/141
f 708/55/144 707/54/144 709/53/144 710/56/144
f 710/55/143 709/54/143 711/53/143 712/56/143
f 712/55/145 711/54/145 705/53/145 706/56/145
f 712/59/1 706/58/1 708/57/1 710/60/1
f 715/61/141 713/62/141 714/63/141 716/64/141
f 717/65/145 715/66/145 716/67/145 718/68/145
f 719/69/143 717/67/143 718/70/143 720/71/143
f 713/72/144 719/73/144 720/74/144 714/75/144
f 716/88/1 714/89/1 720/90/1 718/91/1
f 717/80/4 719/81/4 713/82/4 715/83/4
f 723/53/146 721/54/146 722/55/146 724/56/146
f 725/53/147 723/54/147 724/55/147 726/56/147
f 727/53/148 725/54/148 726/55/148 728/56/148
f 721/53/149 727/54/149 728/55/149 722/56/149
f 724/57/1 722/58/1 728/59/1 726/60/1
f 730/55/146 729/54/146 731/53/146 732/56/146
f 732/55/149 731/54/149 733/53/149 734/56/149
f 734/55/148 733/54/148 735/53/148 736/56/148
f 736/55/150 735/54/150 729/53/150 730/56/150
f 736/59/1 730/58/1 732/57/1 734/60/1
f 739/61/151 737/62/151 738/63/151 740/64/151
f 741/65/147 739/66/147 740/67/147 742/68/147
f 743/69/152 741/67/152 742/70/152 744/71/152
f 737/72/149 743/73/149 744/74/149 738/75/149
f 740/76/1 738/77/1 744/78/1 742/79/1
f 741/80/4 743/81/4 737/82/4 739/83/4
f 747/53/153 745/54/153 746/55/153 748/56/153
f 749/53/5 747/54/5 748/55/5 750/56/5
f 751/53/154 749/54/154 750/55/154 752/56/154
f 745/53/155 751/54/155 752/55/155 746/56/155
f 748/57/1 746/58/1 752/59/1 750/60/1
f 754/55/156 753/54/156 755/53/156 756/56/156
f 756/55/155 755/54/155 757/53/155 758/56/155
f 758/55/154 757/54/154 759/53/154 760/56/154
f 760/55/5 759/54/5 753/53/5 754/56/5
f 760/59/1 754/58/1 756/57/1 758/60/1
f 763/61/156 761/62/156 762/63/156 764/64/156
f 765/65/5 763/66/5 764/67/5 766/68/5
f 767/69/154 765/67/154 766/70/154 768/71/154
f 761/72/155 767/73/155 768/74/155 762/75/155
f 764/84/1 762/85/1 768/86/1 766/87/1
f 765/80/4 767/81/4 761/82/4 763/83/4
f 789/2/1 813/1/1 815/4/1 791/3/1
f 774/96/1 798/97/1 795/98/1 771/99/1
f 778/31/157 802/32/157 804/29/157 780/30/157
f 790/14/4 814/13/4 809/16/4 785/15/4
f 775/14/4 799/13/4 800/100/4 776/101/4
f 779/3/1 803/4/1 801/1/1 777/2/1
f 786/26/157 810/25/157 812/102/157 788/103/157
f 777/18/157 801/17/157 797/20/157 773/19/157
f 773/15/4 797/16/4 802/13/4 778/14/4
f 783/99/1 807/98/1 810/97/1 786/96/1
f 23/8/3 791/7/3 782/6/3 14/5/3
f 14/24/4 782/23/4 781/22/4 13/21/4
f 6/97/1 774/96/1 771/99/1 3/98/1
f 16/36/1 784/35/1 792/34/1 24/33/1
f 15/98/1 783/99/1 786/96/1 18/97/1
f 5/16/4 773/15/4 778/14/4 10/13/4
f 7/13/4 775/14/4 776/101/4 8/100/4
f 13/28/2 781/27/2 783/26/2 15/25/2
f 8/102/3 776/103/3 774/26/3 6/25/3
f 11/4/1 779/3/1 777/2/1 9/1/1
f 19/12/2 787/11/2 784/10/2 16/9/2
f 17/20/3 785/19/3 789/18/3 21/17/3
f 18/25/2 786/26/2 788/103/2 20/102/2
f 20/100/4 788/101/4 787/14/4 19/13/4
f 812/100/4 836/101/4 835/14/4 811/13/4
f 804/33/1 828/34/1 820/35/1 796/36/1
f 811/12/158 835/11/158 832/10/158 808/9/158
f 816/29/159 840/30/159 838/31/159 814/32/159
f 794/5/158 818/6/158 827/7/158 803/8/158
f 809/20/159 833/19/159 837/18/159 813/17/159
f 795/25/159 819/26/159 817/27/159 793/28/159
f 796/9/159 820/10/159 823/11/159 799/12/159
f 805/28/158 829/27/158 831/26/158 807/25/158
f 808/36/1 832/35/1 840/34/1 816/33/1
f 791/7/160 815/8/160 806/5/160 782/6/160
f 782/23/4 806/24/4 805/21/4 781/22/4
f 776/103/160 800/102/160 798/25/160 774/26/160
f 769/22/4 793/21/4 794/24/4 770/23/4
f 784/35/1 808/36/1 816/33/1 792/34/1
f 781/27/157 805/28/157 807/25/157 783/26/157
f 772/10/160 796/9/160 799/12/160 775/11/160
f 771/26/160 795/25/160 793/28/160 769/27/160
f 785/19/160 809/20/160 813/17/160 789/18/160
f 770/6/157 794/5/157 803/8/157 779/7/157
f 792/30/160 816/29/160 814/32/160 790/31/160
f 787/11/157 811/12/157 808/9/157 784/10/157
f 780/34/1 804/33/1 796/36/1 772/35/1
f 788/101/4 812/100/4 811/13/4 787/14/4
f 839/7/161 863/8/161 854/5/161 830/6/161
f 837/2/1 861/1/1 863/4/1 839/3/1
f 822/96/1 846/97/1 843/98/1 819/99/1
f 826/31/162 850/32/162 852/29/162 828/30/162
f 838/14/4 862/13/4 857/16/4 833/15/4
f 823/14/4 847/13/4 848/100/4 824/101/4
f 827/3/1 851/4/1 849/1/1 825/2/1
f 834/26/162 858/25/162 860/102/162 836/103/162
f 825/18/162 849/17/162 845/20/162 821/19/162
f 821/15/4 845/16/4 850/13/4 826/14/4
f 807/98/1 831/99/1 834/96/1 810/97/1
f 797/16/4 821/15/4 826/14/4 802/13/4
f 801/17/158 825/18/158 821/19/158 797/20/158
f 810/25/158 834/26/158 836/103/158 812/102/158
f 803/4/1 827/3/1 825/2/1 801/1/1
f 799/13/4 823/14/4 824/101/4 800/100/4
f 814/13/4 838/14/4 833/15/4 809/16/4
f 802/32/158 826/31/158 828/30/158 804/29/158
f 798/97/1 822/96/1 819/99/1 795/98/1
f 813/1/1 837/2/1 839/3/1 815/4/1
f 815/8/159 839/7/159 830/6/159 806/5/159
f 806/24/4 830/23/4 829/22/4 805/21/4
f 800/102/159 824/103/159 822/26/159 798/25/159
f 793/21/4 817/22/4 818/23/4 794/24/4
f 857/20/163 881/19/163 885/18/163 861/17/163
f 843/25/163 867/26/163 865/27/163 841/28/163
f 853/28/164 877/27/164 879/26/164 855/25/164
f 856/36/1 880/35/1 888/34/1 864/33/1
f 848/102/163 872/103/163 870/26/163 846/25/163
f 854/24/4 878/23/4 877/22/4 853/21/4
f 844/9/163 868/10/163 871/11/163 847/12/163
f 863/8/163 887/7/163 878/6/163 854/5/163
f 861/1/1 885/2/1 887/3/1 863/4/1
f 846/97/1 870/96/1 867/99/1 843/98/1
f 830/23/4 854/24/4 853/21/4 829/22/4
f 824/103/161 848/102/161 846/25/161 822/26/161
f 817/22/4 841/21/4 842/24/4 818/23/4
f 832/35/1 856/36/1 864/33/1 840/34/1
f 829/27/162 853/28/162 855/25/162 831/26/162
f 820/10/161 844/9/161 847/12/161 823/11/161
f 819/26/161 843/25/161 841/28/161 817/27/161
f 833/19/161 857/20/161 861/17/161 837/18/161
f 818/6/162 842/5/162 851/8/162 827/7/162
f 840/30/161 864/29/161 862/32/161 838/31/161
f 835/11/162 859/12/162 856/9/162 832/10/162
f 828/34/1 852/33/1 844/36/1 820/35/1
f 836/101/4 860/100/4 859/13/4 835/14/4
f 831/99/1 855/98/1 858/97/1 834/96/1
f 886/14/4 910/13/4 905/16/4 881/15/4
f 871/14/4 895/13/4 896/100/4 872/101/4
f 875/3/1 899/4/1 897/1/1 873/2/1
f 882/26/165 906/25/165 908/102/165 884/103/165
f 873/18/165 897/17/165 893/20/165 869/19/165
f 869/15/4 893/16/4 898/13/4 874/14/4
f 879/99/1 903/98/1 906/97/1 882/96/1
f 884/101/4 908/100/4 907/13/4 883/14/4
f 876/34/1 900/33/1 892/36/1 868/35/1
f 883/11/165 907/12/165 904/9/165 880/10/165
f 842/5/164 866/6/164 875/7/164 851/8/164
f 864/29/163 888/30/163 886/31/163 862/32/163
f 859/12/164 883/11/164 880/10/164 856/9/164
f 852/33/1 876/34/1 868/35/1 844/36/1
f 860/100/4 884/101/4 883/14/4 859/13/4
f 855/98/1 879/99/1 882/96/1 858/97/1
f 845/16/4 869/15/4 874/14/4 850/13/4
f 849/17/164 873/18/164 869/19/164 845/20/164
f 858/25/164 882/26/164 884/103/164 860/102/164
f 851/4/1 875/3/1 873/2/1 849/1/1
f 847/13/4 871/14/4 872/101/4 848/100/4
f 862/13/4 886/14/4 881/15/4 857/16/4
f 841/21/4 865/22/4 866/23/4 842/24/4
f 850/32/164 874/31/164 876/30/164 852/29/164
f 905/20/166 929/19/166 933/18/166 909/17/166
f 891/25/166 915/26/166 913/27/166 889/28/166
f 892/9/166 916/10/166 919/11/166 895/12/166
f 901/28/167 925/27/167 927/26/167 903/25/167
f 904/36/1 928/35/1 936/34/1 912/33/1
f 889/21/4 913/22/4 914/23/4 890/24/4
f 896/102/166 920/103/166 918/26/166 894/25/166
f 902/24/4 926/23/4 925/22/4 901/21/4
f 911/8/166 935/7/166 926/6/166 902/5/166
f 909/1/1 933/2/1 935/3/1 911/4/1
f 874/31/165 898/32/165 900/29/165 876/30/165
f 870/96/1 894/97/1 891/98/1 867/99/1
f 885/2/1 909/1/1 911/4/1 887/3/1
f 887/7/168 911/8/168 902/5/168 878/6/168
f 878/23/4 902/24/4 901/21/4 877/22/4
f 872/103/168 896/102/168 894/25/168 870/26/168
f 865/22/4 889/21/4 890/24/4 866/23/4
f 880/35/1 904/36/1 912/33/1 888/34/1
f 877/27/165 901/28/165 903/25/165 879/26/165
f 868/10/168 892/9/168 895/12/168 871/11/168
f 867/26/168 891/25/168 889/28/168 865/27/168
f 881/19/168 905/20/168 909/17/168 885/18/168
f 866/6/165 890/5/165 899/8/165 875/7/165
f 888/30/168 912/29/168 910/32/168 886/31/168
f 922/31/169 946/32/169 948/29/169 924/30/169
f 934/14/4 958/13/4 953/16/4 929/15/4
f 919/14/4 943/13/4 944/100/4 920/101/4
f 923/3/1 947/4/1 945/1/1 921/2/1
f 930/26/169 954/25/169 956/102/169 932/103/169
f 921/18/169 945/17/169 941/20/169 917/19/169
f 917/15/4 941/16/4 946/13/4 922/14/4
f 927/99/1 951/98/1 954/97/1 930/96/1
f 932/101/4 956/100/4 955/13/4 931/14/4
f 924/34/1 948/33/1 940/36/1 916/35/1
f 890/5/167 914/6/167 923/7/167 899/8/167
f 912/29/166 936/30/166 934/31/166 910/32/166
f 907/12/167 931/11/167 928/10/167 904/9/167
f 900/33/1 924/34/1 916/35/1 892/36/1
f 908/100/4 932/101/4 931/14/4 907/13/4
f 903/98/1 927/99/1 930/96/1 906/97/1
f 893/16/4 917/15/4 922/14/4 898/13/4
f 897/17/167 921/18/167 917/19/167 893/20/167
f 906/25/167 930/26/167 932/103/167 908/102/167
f 899/4/1 923/3/1 921/2/1 897/1/1
f 895/13/4 919/14/4 920/101/4 896/100/4
f 910/13/4 934/14/4 929/15/4 905/16/4
f 898/32/167 922/31/167 924/30/167 900/29/167
f 894/97/1 918/96/1 915/99/1 891/98/1
f 953/20/170 977/19/170 981/18/170 957/17/170
f 939/25/170 963/26/170 961/27/170 937/28/170
f 940/9/170 964/10/170 967/11/170 943/12/170
f 949/28/171 973/27/171 975/26/171 951/25/171
f 952/36/1 976/35/1 984/34/1 960/33/1
f 937/21/4 961/22/4 962/23/4 938/24/4
f 944/102/170 968/103/170 966/26/170 942/25/170
f 950/24/4 974/23/4 973/22/4 949/21/4
f 959/8/170 983/7/170 974/6/170 950/5/170
f 957/1/1 981/2/1 983/3/1 959/4/1
f 918/96/1 942/97/1 939/98/1 915/99/1
f 933/2/1 957/1/1 959/4/1 935/3/1
f 935/7/172 959/8/172 950/5/172 926/6/172
f 926/23/4 950/24/4 949/21/4 925/22/4
f 920/103/172 944/102/172 942/25/172 918/26/172
f 913/22/4 937/21/4 938/24/4 914/23/4
f 928/35/1 952/36/1 960/33/1 936/34/1
f 925/27/169 949/28/169 951/25/169 927/26/169
f 916/10/172 940/9/172 943/12/172 919/11/172
f 915/26/172 939/25/172 937/28/172 913/27/172
f 929/19/172 953/20/172 957/17/172 933/18/172
f 914/6/169 938/5/169 947/8/169 923/7/169
f 936/30/172 960/29/172 958/32/172 934/31/172
f 931/11/169 955/12/169 952/9/169 928/10/169
f 970/31/173 994/32/173 996/29/173 972/30/173
f 982/14/4 1006/13/4 1001/16/4 977/15/4
f 967/14/4 991/13/4 992/100/4 968/101/4
f 971/3/1 995/4/1 993/1/1 969/2/1
f 978/26/173 1002/25/173 1004/102/173 980/103/173
f 969/18/173 993/17/173 989/20/173 965/19/173
f 965/15/4 989/16/4 994/13/4 970/14/4
f 975/99/1 999/98/1 1002/97/1 978/96/1
f 980/101/4 1004/100/4 1003/13/4 979/14/4
f 972/34/1 996/33/1 988/36/1 964/35/1
f 938/5/171 962/6/171 971/7/171 947/8/171
f 960/29/170 984/30/170 982/31/170 958/32/170
f 955/12/171 979/11/171 976/10/171 952/9/171
f 948/33/1 972/34/1 964/35/1 940/36/1
f 956/100/4 980/101/4 979/14/4 955/13/4
f 951/98/1 975/99/1 978/96/1 954/97/1
f 941/16/4 965/15/4 970/14/4 946/13/4
f 945/17/171 969/18/171 965/19/171 941/20/171
f 954/25/171 978/26/171 980/103/171 956/102/171
f 947/4/1 971/3/1 969/2/1 945/1/1
f 943/13/4 967/14/4 968/101/4 944/100/4
f 958/13/4 982/14/4 977/15/4 953/16/4
f 946/32/171 970/31/171 972/30/171 948/29/171
f 942/97/1 966/96/1 963/99/1 939/98/1
f 986/5/174 1010/6/174 1019/7/174 995/8/174
f 1001/20/175 1025/19/175 1029/18/175 1005/17/175
f 987/25/175 1011/26/175 1009/27/175 985/28/175
f 988/9/175 1012/10/175 1015/11/175 991/12/175
f 997/28/174 1021/27/174 1023/26/174 999/25/174
f 1000/36/1 1024/35/1 1032/34/1 1008/33/1
f 985/21/4 1009/22/4 1010/23/4 986/24/4
f 992/102/175 1016/103/175 1014/26/175 990/25/175
f 998/24/4 1022/23/4 1021/22/4 997/21/4
f 1007/8/175 1031/7/175 1022/6/175 998/5/175
f 966/96/1 990/97/1 987/98/1 963/99/1
f 981/2/1 1005/1/1 1007/4/1 983/3/1
f 983/7/176 1007/8/176 998/5/176 974/6/176
f 974/23/4 998/24/4 997/21/4 973/22/4
f 968/103/176 992/102/176 990/25/176 966/26/176
f 961/22/4 985/21/4 986/24/4 962/23/4
f 976/35/1 1000/36/1 1008/33/1 984/34/1
f 973/27/173 997/28/173 999/25/173 975/26/173
f 964/10/176 988/9/176 991/12/176 967/11/176
f 963/26/176 987/25/176 985/28/176 961/27/176
f 977/19/176 1001/20/176 1005/17/176 981/18/176
f 962/6/173 986/5/173 995/8/173 971/7/173
f 984/30/176 1008/29/176 1006/32/176 982/31/176
f 979/11/173 1003/12/173 1000/9/173 976/10/173
f 1018/31/177 1042/32/177 1044/29/177 1020/30/177
f 1030/14/4 1054/13/4 1049/16/4 1025/15/4
f 1015/14/4 1039/13/4 1040/100/4 1016/101/4
f 1019/3/1 1043/4/1 1041/1/1 1017/2/1
f 1026/26/177 1050/25/177 1052/102/177 1028/103/177
f 1017/18/177 1041/17/177 1037/20/177 1013/19/177
f 1013/15/4 1037/16/4 1042/13/4 1018/14/4
f 1023/99/1 1047/98/1 1050/97/1 1026/96/1
f 1028/101/4 1052/100/4 1051/13/4 1027/14/4
f 1020/34/1 1044/33/1 1036/36/1 1012/35/1
f 1008/29/175 1032/30/175 1030/31/175 1006/32/175
f 1003/12/174 1027/11/174 1024/10/174 1000/9/174
f 996/33/1 1020/34/1 1012/35/1 988/36/1
f 1004/100/4 1028/101/4 1027/14/4 1003/13/4
f 999/98/1 1023/99/1 1026/96/1 1002/97/1
f 989/16/4 1013/15/4 1018/14/4 994/13/4
f 993/17/174 1017/18/174 1013/19/174 989/20/174
f 1002/25/174 1026/26/174 1028/103/174 1004/102/174
f 995/4/1 1019/3/1 1017/2/1 993/1/1
f 991/13/4 1015/14/4 1016/101/4 992/100/4
f 1006/13/4 1030/14/4 1025/15/4 1001/16/4
f 994/32/174 1018/31/174 1020/30/174 996/29/174
f 990/97/1 1014/96/1 1011/99/1 987/98/1
f 1005/1/1 1029/2/1 1031/3/1 1007/4/1
f 1056/29/178 1080/30/178 1078/31/178 1054/32/178
f 1034/5/179 1058/6/179 1067/7/179 1043/8/179
f 1049/20/178 1073/19/178 1077/18/178 1053/17/178
f 1035/25/178 1059/26/178 1057/27/178 1033/28/178
f 1036/9/178 1060/10/178 1063/11/178 1039/12/178
f 1045/28/179 1069/27/179 1071/26/179 1047/25/179
f 1048/36/1 1072/35/1 1080/34/1 1056/33/1
f 1033/21/4 1057/22/4 1058/23/4 1034/24/4
f 1040/102/178 1064/103/178 1062/26/178 1038/25/178
f 1046/24/4 1070/23/4 1069/22/4 1045/21/4
f 1014/96/1 1038/97/1 1035/98/1 1011/99/1
f 1029/2/1 1053/1/1 1055/4/1 1031/3/1
f 1031/7/180 1055/8/180 1046/5/180 1022/6/180
f 1022/23/4 1046/24/4 1045/21/4 1021/22/4
f 1016/103/180 1040/102/180 1038/25/180 1014/26/180
f 1009/22/4 1033/21/4 1034/24/4 1010/23/4
f 1024/35/1 1048/36/1 1056/33/1 1032/34/1
f 1021/27/177 1045/28/177 1047/25/177 1023/26/177
f 1012/10/180 1036/9/180 1039/12/180 1015/11/180
f 1011/26/180 1035/25/180 1033/28/180 1009/27/180
f 1025/19/180 1049/20/180 1053/17/180 1029/18/180
f 1010/6/177 1034/5/177 1043/8/177 1019/7/177
f 1032/30/180 1056/29/180 1054/32/180 1030/31/180
f 1027/11/177 1051/12/177 1048/9/177 1024/10/177
f 1062/96/1 1086/97/1 1083/98/1 1059/99/1
f 1066/31/181 1090/32/181 1092/29/181 1068/30/181
f 1078/14/4 1102/13/4 1097/16/4 1073/15/4
f 1063/14/4 1087/13/4 1088/100/4 1064/101/4
f 1067/3/1 1091/4/1 1089/1/1 1065/2/1
f 1074/26/181 1098/25/181 1100/102/181 1076/103/181
f 1065/18/181 1089/17/181 1085/20/181 1061/19/181
f 1061/15/4 1085/16/4 1090/13/4 1066/14/4
f 1071/99/1 1095/98/1 1098/97/1 1074/96/1
f 1076/101/4 1100/100/4 1099/13/4 1075/14/4
f 1051/12/179 1075/11/179 1072/10/179 1048/9/179
f 1044/33/1 1068/34/1 1060/35/1 1036/36/1
f 1052/100/4 1076/101/4 1075/14/4 1051/13/4
f 1047/98/1 1071/99/1 1074/96/1 1050/97/1
f 1037/16/4 1061/15/4 1066/14/4 1042/13/4
f 1041/17/179 1065/18/179 1061/19/179 1037/20/179
f 1050/25/179 1074/26/179 1076/103/179 1052/102/179
f 1043/4/1 1067/3/1 1065/2/1 1041/1/1
f 1039/13/4 1063/14/4 1064/101/4 1040/100/4
f 1054/13/4 1078/14/4 1073/15/4 1049/16/4
f 1042/32/179 1066/31/179 1068/30/179 1044/29/179
f 1038/97/1 1062/96/1 1059/99/1 1035/98/1
f 1053/1/1 1077/2/1 1079/3/1 1055/4/1
f 1055/8/178 1079/7/178 1070/6/178 1046/5/178
f 1099/12/182 1123/11/182 1120/10/182 1096/9/182
f 1104/29/183 1128/30/183 1126/31/183 1102/32/183
f 1082/5/182 1106/6/182 1115/7/182 1091/8/182
f 1097/20/183 1121/19/183 1125/18/183 1101/17/183
f 1083/25/183 1107/26/183 1105/27/183 1081/28/183
f 1084/9/183 1108/10/183 1111/11/183 1087/12/183
f 1093/28/182 1117/27/182 1119/26/182 1095/25/182
f 1096/36/1 1120/35/1 1128/34/1 1104/33/1
f 1081/21/4 1105/22/4 1106/23/4 1082/24/4
f 1088/102/183 1112/103/183 1110/26/183 1086/25/183
f 1077/2/1 1101/1/1 1103/4/1 1079/3/1
f 1079/7/184 1103/8/184 1094/5/184 1070/6/184
f 1070/23/4 1094/24/4 1093/21/4 1069/22/4
f 1064/103/184 1088/102/184 1086/25/184 1062/26/184
f 1057/22/4 1081/21/4 1082/24/4 1058/23/4
f 1072/35/1 1096/36/1 1104/33/1 1080/34/1
f 1069/27/181 1093/28/181 1095/25/181 1071/26/181
f 1060/10/184 1084/9/184 1087/12/184 1063/11/184
f 1059/26/184 1083/25/184 1081/28/184 1057/27/184
f 1073/19/184 1097/20/184 1101/17/184 1077/18/184
f 1058/6/181 1082/5/181 1091/8/181 1067/7/181
f 1080/30/184 1104/29/184 1102/32/184 1078/31/184
f 1075/11/181 1099/12/181 1096/9/181 1072/10/181
f 1068/34/1 1092/33/1 1084/36/1 1060/35/1
f 1113/104/154 1105/105/154 1107/106/154 1110/107/154
f 1105/105/154 1113/104/154 1115/108/154 1106/109/154
f 1112/110/185 1116/111/185 1114/112/185 1109/113/185
f 1116/111/186 1112/110/186 1111/114/186 1108/115/186
f 1110/107/154 1112/110/154 1109/113/154 1113/104/154
f 1118/109/154 1127/108/154 1125/104/154 1117/105/154
f 1119/106/154 1117/105/154 1125/104/154 1122/107/154
f 1123/114/154 1124/110/154 1121/113/154 1120/115/154
f 1128/111/154 1120/115/154 1121/113/154 1126/112/154
f 1124/110/154 1122/107/154 1125/104/154 1121/113/154
f 1092/33/1 1116/34/1 1108/35/1 1084/36/1
f 1100/100/4 1124/101/4 1123/14/4 1099/13/4
f 1095/98/1 1119/99/1 1122/96/1 1098/97/1
f 1085/16/4 1109/15/4 1114/14/4 1090/13/4
f 1089/17/182 1113/18/182 1109/19/182 1085/20/182
f 1098/25/182 1122/26/182 1124/103/182 1100/102/182
f 1091/4/1 1115/3/1 1113/2/1 1089/1/1
f 1087/13/4 1111/14/4 1112/101/4 1088/100/4
f 1102/13/4 1126/14/4 1121/15/4 1097/16/4
f 1090/32/182 1114/31/182 1116/30/182 1092/29/182
f 1086/97/1 1110/96/1 1107/99/1 1083/98/1
f 1101/1/1 1125/2/1 1127/3/1 1103/4/1
f 1103/8/183 1127/7/183 1118/6/183 1094/5/183
f 1094/24/4 1118/23/4 1117/22/4 1093/21/4
f 1/40/5 9/39/5 6/116/5 3/117/5
f 5/118/5 8/119/5 6/116/5 9/39/5
f 10/120/5 12/121/5 4/122/5 5/118/5
f 7/123/5 8/119/5 5/118/5 4/122/5
