# Blender 4.3.2
# www.blender.org
mtllib track_slope_1x3_ballast.mtl
o Cube
v -0.500000 0.000000 0.500000
v -0.500000 0.000000 0.500000
v -0.500000 -0.000000 -0.500000
v -0.500000 0.333333 -0.500000
v 0.500000 0.000000 0.500000
v 0.500000 0.000000 0.500000
v 0.500000 -0.000000 -0.500000
v 0.500000 0.333333 -0.500000
v -0.500000 0.666667 -1.500000
v -0.500000 -0.000000 -1.500000
v 0.500000 -0.000000 -1.500000
v 0.500000 0.666667 -1.500000
v -0.500000 1.000000 -2.500000
v -0.500000 -0.000000 -2.500000
v 0.500000 -0.000000 -2.500000
v 0.500000 1.000000 -2.500000
vn -1.0000 -0.0000 -0.0000
vn 1.0000 -0.0000 -0.0000
vn -0.0000 -0.0000 -1.0000
vn -0.0000 1.0000 -0.0000
vn -0.0000 -1.0000 -0.0000
vn -0.0000 0.9487 0.3162
vt 0.948029 -0.000537
vt 0.948030 0.000411
vt 0.000412 0.316284
vt 0.000412 0.000412
vt 0.000412 0.333452
vt 0.999534 0.000412
vt 0.999534 0.666493
vt 0.999542 0.001522
vt 0.999226 0.317489
vt 0.051325 0.001521
vt 0.051642 0.000573
vt 0.000654 0.000654
vt 0.000950 0.000654
vt 0.000950 0.297174
vt 0.000654 0.297174
vt 0.000100 0.000100
vt 0.999900 0.000100
vt 0.999900 0.999900
vt 0.000100 0.999900
vt 1.000000 0.999903
vt 0.000097 0.999903
vt 0.000097 0.000097
vt 1.000000 0.000097
vt 0.000457 0.666514
vt 0.000457 0.000457
vt 0.999542 0.000457
vt 0.999543 0.999542
vt 1.000000 0.999902
vt 0.999534 0.333452
vt 0.000412 0.666493
vt 0.000097 0.999902
vt 0.999542 0.666514
vt 0.000457 0.999542
s 1
f 1/1/1 2/2/1 4/3/1 3/4/1
f 8/5/2 7/4/2 11/6/2 12/7/2
f 7/8/2 8/9/2 6/10/2 5/11/2
s 0
f 5/12/3 6/13/4 2/14/3 1/15/4
s 1
f 3/16/5 7/17/5 5/18/5 1/19/5
f 8/20/6 4/21/6 2/22/6 6/23/6
f 12/24/2 11/25/2 15/26/2 16/27/2
f 7/19/5 3/16/5 10/17/5 11/18/5
f 4/22/6 8/23/6 12/28/6 9/21/6
f 3/6/1 4/29/1 9/30/1 10/4/1
f 14/18/3 13/19/3 16/16/3 15/17/3
f 11/16/5 10/17/5 14/18/5 15/19/5
f 9/22/6 12/23/6 16/20/6 13/31/6
f 10/26/1 9/32/1 13/33/1 14/25/1
