# Blender 4.2.0
# www.blender.org
o curve_1x_fixed
v 0.156165 -0.025279 -0.094920
v 0.180436 -0.025279 -0.112553
v 0.162802 -0.025279 -0.136824
v 0.138532 -0.025279 -0.119190
v 0.181971 -0.025279 -0.016855
v 0.181971 0.054721 -0.016855
v 0.211515 -0.025279 -0.022064
v 0.211515 0.054721 -0.022064
v 0.206305 -0.025279 -0.051609
v 0.206305 0.054721 -0.051609
v 0.176761 -0.025279 -0.046399
v 0.176761 0.054721 -0.046399
v 0.808047 -0.025279 -0.127249
v 0.808047 0.054721 -0.127249
v 0.778502 -0.025279 -0.122040
v 0.778502 0.054721 -0.122040
v 0.773293 -0.025279 -0.151584
v 0.773293 0.054721 -0.151584
v 0.802837 -0.025279 -0.156793
v 0.802837 0.054721 -0.156793
v 0.041700 -0.029900 0.063727
v 0.041700 0.030100 0.063727
v 0.967419 -0.030000 -0.099502
v 0.967419 0.030000 -0.099502
v 0.943108 -0.030000 -0.237375
v 0.943108 0.030000 -0.237375
v 0.017389 -0.029900 -0.074146
v 0.017389 0.030100 -0.074146
v 0.046399 -0.025279 -0.176761
v 0.046399 0.054721 -0.176761
v 0.051609 -0.025279 -0.206305
v 0.051609 0.054721 -0.206305
v 0.022064 -0.025279 -0.211515
v 0.022064 0.054721 -0.211515
v 0.016855 -0.025279 -0.181971
v 0.016855 0.054721 -0.181971
v 0.156793 -0.025279 -0.802837
v 0.156793 0.054721 -0.802837
v 0.151584 -0.025279 -0.773293
v 0.151584 0.054721 -0.773293
v 0.122040 -0.025279 -0.778502
v 0.122040 0.054721 -0.778502
v 0.127249 -0.025279 -0.808046
v 0.127249 0.054721 -0.808046
v 0.074146 -0.030000 -0.017389
v 0.074146 0.030000 -0.017389
v 0.237375 -0.030000 -0.943108
v 0.237375 0.030000 -0.943108
v 0.099502 -0.030000 -0.967419
v 0.099502 0.030000 -0.967419
v -0.063727 -0.030000 -0.041700
v -0.063727 0.030000 -0.041700
v 0.161669 -0.025279 -0.085209
v 0.161669 0.054721 -0.085209
v 0.186971 -0.025279 -0.101328
v 0.186971 0.054721 -0.101328
v 0.170852 -0.025279 -0.126630
v 0.170852 0.054721 -0.126630
v 0.145550 -0.025279 -0.110511
v 0.145550 0.054721 -0.110511
v 0.697842 -0.025279 -0.426789
v 0.697842 0.054721 -0.426789
v 0.672540 -0.025279 -0.410670
v 0.672540 0.054721 -0.410670
v 0.656421 -0.025279 -0.435971
v 0.656421 0.054721 -0.435971
v 0.681723 -0.025279 -0.452091
v 0.681723 0.054721 -0.452091
v 0.061032 -0.028500 0.039967
v 0.061032 0.028500 0.039967
v 0.855701 -0.030000 -0.462143
v 0.855701 0.030000 -0.462143
v 0.780479 -0.030000 -0.580218
v 0.780479 0.030000 -0.580218
v -0.010429 -0.028500 -0.072205
v -0.010429 0.028500 -0.072204
v 0.116754 -0.025279 -0.140591
v 0.116754 0.054721 -0.140591
v 0.133962 -0.025279 -0.165166
v 0.133962 0.054721 -0.165166
v 0.109387 -0.025279 -0.182373
v 0.109387 0.054721 -0.182373
v 0.092180 -0.025279 -0.157798
v 0.092180 0.054721 -0.157798
v 0.481396 -0.025279 -0.661354
v 0.481396 0.054721 -0.661354
v 0.464189 -0.025279 -0.636779
v 0.464189 0.054721 -0.636779
v 0.439615 -0.025279 -0.653986
v 0.439615 0.054721 -0.653986
v 0.456822 -0.025279 -0.678561
v 0.456822 0.054721 -0.678561
v 0.071681 -0.028400 0.013568
v 0.071681 0.028600 0.013568
v 0.613710 -0.030000 -0.754427
v 0.613710 0.030000 -0.754427
v 0.499028 -0.030000 -0.834728
v 0.499028 0.030000 -0.834728
v -0.037266 -0.028400 -0.062717
v -0.037266 0.028600 -0.062717
v 0.860477 0.025803 0.000000
v 0.800477 0.025803 0.000000
v 0.860477 0.041289 0.000000
v 0.852366 0.085803 0.000000
v 0.818222 0.071584 0.000000
v 0.842732 0.041289 0.000000
v 0.852366 0.071584 0.000000
v 0.842732 0.071584 0.000000
v 0.818222 0.041289 0.000000
v 0.808588 0.071584 0.000000
v 0.800477 0.041289 0.000000
v 0.808588 0.085803 0.000000
v 0.139523 0.025803 0.000000
v 0.199523 0.025803 0.000000
v 0.139523 0.041289 0.000000
v 0.147634 0.085803 0.000000
v 0.181778 0.071584 0.000000
v 0.157268 0.041289 0.000000
v 0.147634 0.071584 0.000000
v 0.157268 0.071584 0.000000
v 0.181778 0.041289 0.000000
v 0.191412 0.071584 0.000000
v 0.199523 0.041289 0.000000
v 0.191412 0.085803 0.000000
v 0.843943 0.025803 -0.167871
v 0.785096 0.025803 -0.156165
v 0.843943 0.041289 -0.167871
v 0.835988 0.085803 -0.166288
v 0.802500 0.071584 -0.159627
v 0.826539 0.041289 -0.164409
v 0.835988 0.071584 -0.166288
v 0.826539 0.071584 -0.164409
v 0.802500 0.041289 -0.159627
v 0.793051 0.071584 -0.157748
v 0.785096 0.041289 -0.156165
v 0.793051 0.085803 -0.157748
v 0.794977 0.025803 -0.329290
v 0.739544 0.025803 -0.306329
v 0.794977 0.041289 -0.329290
v 0.787483 0.085803 -0.326186
v 0.755939 0.071584 -0.313120
v 0.778583 0.041289 -0.322500
v 0.787483 0.071584 -0.326186
v 0.778583 0.071584 -0.322500
v 0.755939 0.041289 -0.313120
v 0.747038 0.071584 -0.309433
v 0.739544 0.041289 -0.306329
v 0.747038 0.085803 -0.309433
v 0.128902 0.025803 -0.053393
v 0.184335 0.025803 -0.076354
v 0.128902 0.041289 -0.053393
v 0.136396 0.085803 -0.056497
v 0.167941 0.071584 -0.069563
v 0.145297 0.041289 -0.060184
v 0.136396 0.071584 -0.056497
v 0.145297 0.071584 -0.060184
v 0.167941 0.041289 -0.069563
v 0.176842 0.071584 -0.073250
v 0.184335 0.041289 -0.076354
v 0.176842 0.085803 -0.073250
v 0.715460 0.025803 -0.478055
v 0.665572 0.025803 -0.444721
v 0.715460 0.041289 -0.478055
v 0.708716 0.085803 -0.473549
v 0.680327 0.071584 -0.454580
v 0.700706 0.041289 -0.468197
v 0.708716 0.071584 -0.473549
v 0.700706 0.071584 -0.468197
v 0.680327 0.041289 -0.454580
v 0.672316 0.071584 -0.449227
v 0.665572 0.041289 -0.444721
v 0.672316 0.085803 -0.449227
v 0.608449 0.025803 -0.608449
v 0.566023 0.025803 -0.566023
v 0.608449 0.041289 -0.608449
v 0.602714 0.085803 -0.602714
v 0.578570 0.071584 -0.578570
v 0.595901 0.041289 -0.595901
v 0.602714 0.071584 -0.602714
v 0.595901 0.071584 -0.595901
v 0.578570 0.041289 -0.578570
v 0.571758 0.071584 -0.571758
v 0.566023 0.041289 -0.566023
v 0.571758 0.085803 -0.571758
v 0.098658 0.025803 -0.098658
v 0.141084 0.025803 -0.141084
v 0.098658 0.041289 -0.098658
v 0.104393 0.085803 -0.104393
v 0.128536 0.071584 -0.128536
v 0.111205 0.041289 -0.111205
v 0.104393 0.071584 -0.104393
v 0.111205 0.071584 -0.111205
v 0.128536 0.041289 -0.128536
v 0.135349 0.071584 -0.135349
v 0.141084 0.041289 -0.141084
v 0.135349 0.085803 -0.135349
v 0.478055 0.025803 -0.715460
v 0.444721 0.025803 -0.665572
v 0.478055 0.041289 -0.715460
v 0.473549 0.085803 -0.708716
v 0.454580 0.071584 -0.680327
v 0.468197 0.041289 -0.700706
v 0.473549 0.071584 -0.708716
v 0.468197 0.071584 -0.700706
v 0.454580 0.041289 -0.680327
v 0.449227 0.071584 -0.672316
v 0.444721 0.041289 -0.665572
v 0.449227 0.085803 -0.672316
v 0.329290 0.025803 -0.794977
v 0.306329 0.025803 -0.739544
v 0.329290 0.041289 -0.794977
v 0.326186 0.085803 -0.787483
v 0.313120 0.071584 -0.755938
v 0.322499 0.041289 -0.778583
v 0.326186 0.071584 -0.787483
v 0.322499 0.071584 -0.778583
v 0.313120 0.041289 -0.755938
v 0.309433 0.071584 -0.747038
v 0.306329 0.041289 -0.739544
v 0.309433 0.085803 -0.747038
v 0.053393 0.025803 -0.128902
v 0.076354 0.025803 -0.184335
v 0.053393 0.041289 -0.128902
v 0.056497 0.085803 -0.136396
v 0.069563 0.071584 -0.167941
v 0.060184 0.041289 -0.145297
v 0.056497 0.071584 -0.136396
v 0.060184 0.071584 -0.145297
v 0.069563 0.041289 -0.167941
v 0.073250 0.071584 -0.176842
v 0.076354 0.041289 -0.184335
v 0.073250 0.085803 -0.176842
v 0.167871 0.025803 -0.843943
v 0.156165 0.025803 -0.785096
v 0.167871 0.041289 -0.843943
v 0.166288 0.085803 -0.835988
v 0.159627 0.071584 -0.802500
v 0.164409 0.041289 -0.826539
v 0.166288 0.071584 -0.835988
v 0.164409 0.071584 -0.826539
v 0.159627 0.041289 -0.802500
v 0.157748 0.071584 -0.793051
v 0.156165 0.041289 -0.785096
v 0.157748 0.085803 -0.793051
v -0.000000 0.025803 -0.860477
v -0.000000 0.025803 -0.800477
v -0.000000 0.041289 -0.860477
v -0.000000 0.085803 -0.852366
v -0.000000 0.071584 -0.818222
v -0.000000 0.041289 -0.842732
v -0.000000 0.071584 -0.852366
v -0.000000 0.071584 -0.842732
v -0.000000 0.041289 -0.818222
v -0.000000 0.071584 -0.808588
v -0.000000 0.041289 -0.800477
v -0.000000 0.085803 -0.808588
v -0.000000 0.025803 -0.139523
v -0.000000 0.025803 -0.199523
v -0.000000 0.041289 -0.139523
v -0.000000 0.085803 -0.147634
v -0.000000 0.071584 -0.181778
v 0.000000 0.041289 -0.157268
v -0.000000 0.071584 -0.147634
v 0.000000 0.071584 -0.157268
v -0.000000 0.041289 -0.181778
v -0.000000 0.071584 -0.191412
v -0.000000 0.041289 -0.199523
v -0.000000 0.085803 -0.191412
vn 0.1736 -0.0000 0.9848
vn 0.9848 -0.0000 -0.1736
vn -0.1736 -0.0000 -0.9848
vn -0.9848 -0.0000 0.1736
vn -0.0000 1.0000 -0.0000
vn 0.0001 1.0000 -0.0000
vn -0.0001 -1.0000 -0.0000
vn 0.9848 -0.0000 0.1736
vn 0.1736 -0.0000 -0.9848
vn -0.9848 -0.0000 -0.1736
vn -0.1736 -0.0000 0.9848
vn -0.9848 -0.0000 -0.1737
vn -0.0000 -1.0000 -0.0000
vn 0.5373 -0.0000 0.8434
vn 0.8434 -0.0000 -0.5373
vn -0.5373 -0.0000 -0.8434
vn -0.8434 -0.0000 0.5373
vn 0.5342 -0.0000 0.8454
vn -0.5404 -0.0000 -0.8414
vn -0.0013 1.0000 0.0009
vn -0.0013 -1.0000 0.0009
vn 0.8192 -0.0000 0.5736
vn 0.5736 -0.0000 -0.8192
vn -0.8192 -0.0000 -0.5736
vn -0.5736 -0.0000 0.8192
vn 0.8170 -0.0000 0.5766
vn -0.8213 -0.0000 -0.5705
vn -0.0009 1.0000 0.0012
vn -0.0010 -1.0000 0.0014
vn 0.9808 -0.0000 -0.1951
vn 0.9952 -0.0000 -0.0980
vn -0.9808 -0.0000 0.1951
vn -0.0000 -0.0000 1.0000
vn -0.9569 -0.0000 0.2903
vn -0.9952 -0.0000 0.0980
vn 0.8819 -0.0000 -0.4714
vn -0.8315 -0.0000 0.5556
vn 0.8315 -0.0000 -0.5556
vn -0.8819 -0.0000 0.4714
vn 0.9569 -0.0000 -0.2903
vn -0.7730 -0.0000 0.6344
vn 0.6344 -0.0000 -0.7730
vn -0.5556 -0.0000 0.8315
vn 0.5556 -0.0000 -0.8315
vn 0.7730 -0.0000 -0.6344
vn -0.4714 -0.0000 0.8819
vn -0.6344 -0.0000 0.7730
vn 0.2903 -0.0000 -0.9569
vn -0.1951 -0.0000 0.9808
vn 0.1951 -0.0000 -0.9808
vn 0.4714 -0.0000 -0.8819
vn -0.0980 -0.0000 0.9952
vn -0.2903 -0.0000 0.9569
vn -1.0000 -0.0000 -0.0000
vn 0.0980 -0.0000 -0.9952
vt 0.999050 0.183297
vt 0.999050 0.342604
vt 0.939310 0.342604
vt 0.939310 0.183297
vt 0.985655 0.132863
vt 0.985655 0.179437
vt 0.939081 0.179437
vt 0.939081 0.132863
vt 0.979692 0.781451
vt 0.979692 0.844034
vt -0.000781 0.844034
vt -0.000781 0.781451
vt 0.146184 0.656284
vt 0.146184 0.718868
vt 0.000156 0.718868
vt 0.000156 0.656284
vt 0.980629 0.718868
vt 0.980629 0.781451
vt 0.000156 0.781451
vt 0.302823 0.656284
vt 0.302823 0.718868
vt 0.156795 0.718868
vt 0.156795 0.656284
vt 0.999534 0.505675
vt 0.999534 0.654611
vt -0.000466 0.654611
vt -0.000466 0.505675
vt 0.998987 0.850355
vt 0.998987 0.998895
vt 0.001647 0.998895
vt 0.001647 0.850355
vt 0.000000 0.034093
vt 0.000000 0.048121
vt 0.905753 0.210448
vt 0.905753 0.156096
vt 0.906387 0.312903
vt 0.906387 0.321630
vt 0.000200 0.296828
vt 0.000200 0.312903
vt 0.905875 0.089593
vt 0.905875 0.062150
vt 0.905875 0.012881
vt 0.905875 0.000000
vt 0.906387 0.330358
vt 0.000000 0.025761
vt 0.000000 0.012881
vt 0.995700 0.001052
vt 0.958669 0.014624
vt 0.943117 0.014624
vt 0.943117 0.001052
vt 0.950226 0.053635
vt 0.950226 0.041174
vt 0.958669 0.041174
vt 0.988592 0.053635
vt 0.980149 0.014624
vt 0.980149 0.041174
vt 0.979722 0.014521
vt 0.979722 0.041071
vt 0.958242 0.041071
vt 0.958242 0.014521
vt 0.942690 0.014521
vt 0.942690 0.000949
vt 0.995273 0.000949
vt 0.995273 0.014521
vt 0.995700 0.014624
vt 0.000000 0.093759
vt 0.000000 0.121202
vt 0.000200 0.219937
vt 0.000200 0.259595
vt 0.000200 0.281378
vt 0.000200 0.297453
vt 0.905875 0.048121
vt 0.980908 0.014240
vt 0.959024 0.014240
vt 0.943180 0.014240
vt 0.943180 0.000413
vt 0.996752 0.000413
vt 0.996752 0.014240
vt 0.959024 0.041289
vt 0.980908 0.041289
vt 0.989510 0.041289
vt 0.989510 0.053985
vt 0.950422 0.053985
vt 0.950422 0.041289
vt 0.988592 0.041174
vt 0.988165 0.041071
vt 0.988165 0.053532
vt 0.949799 0.053532
vt 0.949799 0.041071
s 0
f 7/1/1 8/2/1 6/3/1 5/4/1
f 9/1/2 10/2/2 8/3/2 7/4/2
f 11/1/3 12/2/3 10/3/3 9/4/3
f 5/1/4 6/2/4 12/3/4 11/4/4
f 8/5/5 10/6/5 12/7/5 6/8/5
f 14/3/1 16/2/1 15/1/1 13/4/1
f 16/3/4 18/2/4 17/1/4 15/4/4
f 18/3/3 20/2/3 19/1/3 17/4/3
f 20/3/2 14/2/2 13/1/2 19/4/2
f 20/7/5 18/6/5 16/5/5 14/8/5
f 23/9/1 24/10/1 22/11/1 21/12/1
f 25/13/2 26/14/2 24/15/2 23/16/2
f 27/17/3 28/18/3 26/19/3 25/15/3
f 21/20/4 22/21/4 28/22/4 27/23/4
f 24/24/6 26/25/6 28/26/6 22/27/6
f 25/28/7 23/29/7 21/30/7 27/31/7
f 31/1/8 32/2/8 30/3/8 29/4/8
f 33/1/9 34/2/9 32/3/9 31/4/9
f 35/1/10 36/2/10 34/3/10 33/4/10
f 29/1/11 30/2/11 36/3/11 35/4/11
f 32/5/5 34/6/5 36/7/5 30/8/5
f 38/3/8 40/2/8 39/1/8 37/4/8
f 40/3/11 42/2/11 41/1/11 39/4/11
f 42/3/12 44/2/12 43/1/12 41/4/12
f 44/3/9 38/2/9 37/1/9 43/4/9
f 44/7/5 42/6/5 40/5/5 38/8/5
f 47/9/8 48/10/8 46/11/8 45/12/8
f 49/13/9 50/14/9 48/15/9 47/16/9
f 51/17/10 52/18/10 50/19/10 49/15/10
f 45/20/11 46/21/11 52/22/11 51/23/11
f 48/24/5 50/25/5 52/26/5 46/27/5
f 49/28/13 47/29/13 45/30/13 51/31/13
f 55/1/14 56/2/14 54/3/14 53/4/14
f 57/1/15 58/2/15 56/3/15 55/4/15
f 59/1/16 60/2/16 58/3/16 57/4/16
f 53/1/17 54/2/17 60/3/17 59/4/17
f 56/5/5 58/6/5 60/7/5 54/8/5
f 62/3/14 64/2/14 63/1/14 61/4/14
f 64/3/17 66/2/17 65/1/17 63/4/17
f 66/3/16 68/2/16 67/1/16 65/4/16
f 68/3/15 62/2/15 61/1/15 67/4/15
f 68/7/5 66/6/5 64/5/5 62/8/5
f 71/9/18 72/10/18 70/11/18 69/12/18
f 73/13/15 74/14/15 72/15/15 71/16/15
f 75/17/19 76/18/19 74/19/19 73/15/19
f 69/20/17 70/21/17 76/22/17 75/23/17
f 72/24/20 74/25/20 76/26/20 70/27/20
f 73/28/21 71/29/21 69/30/21 75/31/21
f 79/1/22 80/2/22 78/3/22 77/4/22
f 81/1/23 82/2/23 80/3/23 79/4/23
f 83/1/24 84/2/24 82/3/24 81/4/24
f 77/1/25 78/2/25 84/3/25 83/4/25
f 80/5/5 82/6/5 84/7/5 78/8/5
f 86/3/22 88/2/22 87/1/22 85/4/22
f 88/3/25 90/2/25 89/1/25 87/4/25
f 90/3/24 92/2/24 91/1/24 89/4/24
f 92/3/23 86/2/23 85/1/23 91/4/23
f 92/7/5 90/6/5 88/5/5 86/8/5
f 95/9/26 96/10/26 94/11/26 93/12/26
f 97/13/23 98/14/23 96/15/23 95/16/23
f 99/17/27 100/18/27 98/19/27 97/15/27
f 93/20/25 94/21/25 100/22/25 99/23/25
f 96/24/28 98/25/28 100/26/28 94/27/28
f 97/28/29 95/29/29 93/30/29 99/31/29
f 114/32/30 150/32/30 159/33/30 123/33/30
f 149/34/13 185/34/13 186/35/13 150/35/13
f 120/36/13 119/37/13 155/37/13 156/36/13
f 111/38/5 109/39/5 133/39/5 135/38/5
f 108/40/31 106/41/31 130/41/31 132/40/31
f 116/42/32 152/42/32 155/43/32 119/43/32
f 107/37/13 108/36/13 132/36/13 131/37/13
f 105/44/13 110/37/13 134/37/13 129/44/13
f 156/40/32 154/41/32 118/41/32 120/40/32
f 124/45/30 122/46/30 158/46/30 160/45/30
f 114/47/33 118/48/33 115/49/33 113/50/33
f 116/51/33 119/52/33 120/53/33 124/54/33
f 118/48/33 121/55/33 117/56/33 120/53/33
f 106/57/33 108/58/33 105/59/33 109/60/33
f 109/60/33 111/61/33 102/62/33 106/57/33
f 102/62/33 101/63/33 103/64/33 106/57/33
f 121/55/33 118/48/33 114/47/33 123/65/33
f 131/37/13 132/36/13 144/36/13 143/37/13
f 135/38/5 133/39/5 145/39/5 147/38/5
f 133/66/34 129/67/34 141/67/34 145/66/34
f 129/44/13 134/37/13 146/37/13 141/44/13
f 117/44/13 153/44/13 158/37/13 122/37/13
f 136/68/5 128/69/5 140/69/5 148/68/5
f 118/70/5 154/70/5 151/71/5 115/71/5
f 112/68/5 104/69/5 128/69/5 136/68/5
f 110/46/35 112/45/35 136/45/35 134/46/35
f 101/34/13 102/35/13 126/35/13 125/34/13
f 103/41/31 101/72/31 125/72/31 127/41/31
f 109/66/35 105/67/35 129/67/35 133/66/35
f 123/38/5 159/38/5 157/39/5 121/39/5
f 104/42/31 107/43/31 131/43/31 128/42/31
f 102/32/35 111/33/35 135/33/35 126/32/35
f 124/68/5 160/68/5 152/69/5 116/69/5
f 121/66/30 157/66/30 153/67/30 117/67/30
f 115/41/32 151/41/32 149/72/32 113/72/32
f 106/70/5 103/71/5 127/71/5 130/70/5
f 140/42/36 143/43/36 167/43/36 164/42/36
f 155/43/37 152/42/37 188/42/37 191/43/37
f 158/46/38 194/46/38 196/45/38 160/45/38
f 137/34/13 138/35/13 162/35/13 161/34/13
f 144/40/36 142/41/36 166/41/36 168/40/36
f 187/41/37 185/72/37 149/72/37 151/41/37
f 157/66/38 193/66/38 189/67/38 153/67/38
f 160/68/5 196/68/5 188/69/5 152/69/5
f 142/70/5 139/71/5 163/71/5 166/70/5
f 146/46/39 148/45/39 172/45/39 170/46/39
f 134/46/34 136/45/34 148/45/34 146/46/34
f 130/70/5 127/71/5 139/71/5 142/70/5
f 132/40/40 130/41/40 142/41/40 144/40/40
f 125/34/13 126/35/13 138/35/13 137/34/13
f 128/42/40 131/43/40 143/43/40 140/42/40
f 127/41/40 125/72/40 137/72/40 139/41/40
f 126/32/34 135/33/34 147/33/34 138/32/34
f 159/38/5 195/38/5 193/39/5 157/39/5
f 167/37/13 168/36/13 180/36/13 179/37/13
f 171/38/5 169/39/5 181/39/5 183/38/5
f 150/32/38 186/32/38 195/33/38 159/33/38
f 169/66/41 165/67/41 177/67/41 181/66/41
f 165/44/13 170/37/13 182/37/13 177/44/13
f 154/41/37 156/40/37 192/40/37 190/41/37
f 158/37/13 153/44/13 189/44/13 194/37/13
f 172/68/5 164/69/5 176/69/5 184/68/5
f 156/36/13 155/37/13 191/37/13 192/36/13
f 139/41/36 137/72/36 161/72/36 163/41/36
f 185/34/13 221/34/13 222/35/13 186/35/13
f 138/32/39 147/33/39 171/33/39 162/32/39
f 151/71/5 154/70/5 190/70/5 187/71/5
f 148/68/5 140/69/5 164/69/5 172/68/5
f 141/44/13 146/37/13 170/37/13 165/44/13
f 145/66/39 141/67/39 165/67/39 169/66/39
f 147/38/5 145/39/5 169/39/5 171/38/5
f 143/37/13 144/36/13 168/36/13 167/37/13
f 175/41/42 173/72/42 197/72/42 199/41/42
f 176/42/42 179/43/42 203/43/42 200/42/42
f 191/43/43 188/42/43 224/42/43 227/43/43
f 194/46/44 230/46/44 232/45/44 196/45/44
f 173/34/13 174/35/13 198/35/13 197/34/13
f 180/40/42 178/41/42 202/41/42 204/40/42
f 223/41/43 221/72/43 185/72/43 187/41/43
f 193/66/44 229/66/44 225/67/44 189/67/44
f 196/68/5 232/68/5 224/69/5 188/69/5
f 178/70/5 175/71/5 199/71/5 202/70/5
f 170/46/41 172/45/41 184/45/41 182/46/41
f 166/70/5 163/71/5 175/71/5 178/70/5
f 168/40/45 166/41/45 178/41/45 180/40/45
f 161/34/13 162/35/13 174/35/13 173/34/13
f 164/42/45 167/43/45 179/43/45 176/42/45
f 163/41/45 161/72/45 173/72/45 175/41/45
f 162/32/41 171/33/41 183/33/41 174/32/41
f 195/38/5 231/38/5 229/39/5 193/39/5
f 203/37/13 204/36/13 216/36/13 215/37/13
f 207/38/5 205/39/5 217/39/5 219/38/5
f 186/32/44 222/32/44 231/33/44 195/33/44
f 205/66/46 201/67/46 213/67/46 217/66/46
f 201/44/13 206/37/13 218/37/13 213/44/13
f 190/41/43 192/40/43 228/40/43 226/41/43
f 194/37/13 189/44/13 225/44/13 230/37/13
f 208/68/5 200/69/5 212/69/5 220/68/5
f 192/36/13 191/37/13 227/37/13 228/36/13
f 221/34/13 257/34/13 258/35/13 222/35/13
f 174/32/47 183/33/47 207/33/47 198/32/47
f 187/71/5 190/70/5 226/70/5 223/71/5
f 184/68/5 176/69/5 200/69/5 208/68/5
f 177/44/13 182/37/13 206/37/13 201/44/13
f 181/66/47 177/67/47 201/67/47 205/66/47
f 183/38/5 181/39/5 205/39/5 207/38/5
f 179/37/13 180/36/13 204/36/13 203/37/13
f 182/46/47 184/45/47 208/45/47 206/46/47
f 211/41/48 209/72/48 233/72/48 235/41/48
f 212/42/48 215/43/48 239/43/48 236/42/48
f 224/42/49 260/42/49 263/43/49 227/43/49
f 230/46/50 266/46/50 268/45/50 232/45/50
f 209/34/13 210/35/13 234/35/13 233/34/13
f 216/40/48 214/41/48 238/41/48 240/40/48
f 259/41/49 257/72/49 221/72/49 223/41/49
f 229/66/50 265/66/50 261/67/50 225/67/50
f 232/68/5 268/68/5 260/69/5 224/69/5
f 206/46/46 208/45/46 220/45/46 218/46/46
f 202/70/5 199/71/5 211/71/5 214/70/5
f 204/40/51 202/41/51 214/41/51 216/40/51
f 197/34/13 198/35/13 210/35/13 209/34/13
f 200/42/51 203/43/51 215/43/51 212/42/51
f 199/41/51 197/72/51 209/72/51 211/41/51
f 198/32/46 207/33/46 219/33/46 210/32/46
f 242/46/52 244/45/52 256/45/52 254/46/52
f 231/38/5 267/38/5 265/39/5 229/39/5
f 239/37/13 240/36/13 252/36/13 251/37/13
f 243/38/5 241/39/5 253/39/5 255/38/5
f 222/32/50 258/32/50 267/33/50 231/33/50
f 241/66/52 237/67/52 249/67/52 253/66/52
f 237/44/13 242/37/13 254/37/13 249/44/13
f 226/41/49 228/40/49 264/40/49 262/41/49
f 230/37/13 225/44/13 261/44/13 266/37/13
f 244/68/5 236/69/5 248/69/5 256/68/5
f 210/32/53 219/33/53 243/33/53 234/32/53
f 223/71/5 226/70/5 262/70/5 259/71/5
f 228/36/13 227/37/13 263/37/13 264/36/13
f 220/68/5 212/69/5 236/69/5 244/68/5
f 213/44/13 218/37/13 242/37/13 237/44/13
f 217/66/53 213/67/53 237/67/53 241/66/53
f 219/38/5 217/39/5 241/39/5 243/38/5
f 215/37/13 216/36/13 240/36/13 239/37/13
f 218/46/53 220/45/53 244/45/53 242/46/53
f 214/70/5 211/71/5 235/71/5 238/70/5
f 253/73/54 250/74/54 247/75/54 245/76/54
f 245/76/54 246/77/54 255/78/54 253/73/54
f 252/79/54 249/80/54 254/81/54 256/82/54
f 256/82/54 248/83/54 251/84/54 252/79/54
f 250/74/54 253/73/54 249/80/54 252/79/54
f 258/77/54 257/76/54 265/73/54 267/78/54
f 259/75/54 262/74/54 265/73/54 257/76/54
f 263/84/54 260/83/54 261/80/54 264/79/54
f 268/82/54 266/81/54 261/80/54 260/83/54
f 264/79/54 261/80/54 265/73/54 262/74/54
f 238/70/5 235/71/5 247/71/5 250/70/5
f 240/40/55 238/41/55 250/41/55 252/40/55
f 233/34/13 234/35/13 246/35/13 245/34/13
f 236/42/55 239/43/55 251/43/55 248/42/55
f 235/41/55 233/72/55 245/72/55 247/41/55
f 234/32/52 243/33/52 255/33/52 246/32/52
f 113/34/13 149/34/13 150/35/13 114/35/13
f 122/85/33 124/54/33 120/53/33 117/56/33
f 107/86/33 104/87/33 112/88/33 108/58/33
f 105/59/33 108/58/33 112/88/33 110/89/33
l 2 1
l 4 3
l 1 4
l 3 2
